%TF.GenerationSoftware,KiCad,Pcbnew,(7.0.0)*%
%TF.CreationDate,2023-06-10T10:58:39-03:00*%
%TF.ProjectId,panel,70616e65-6c2e-46b6-9963-61645f706362,rev?*%
%TF.SameCoordinates,Original*%
%TF.FileFunction,Profile,NP*%
%FSLAX46Y46*%
G04 Gerber Fmt 4.6, Leading zero omitted, Abs format (unit mm)*
G04 Created by KiCad (PCBNEW (7.0.0)) date 2023-06-10 10:58:39*
%MOMM*%
%LPD*%
G01*
G04 APERTURE LIST*
%TA.AperFunction,Profile*%
%ADD10C,0.100000*%
%TD*%
G04 APERTURE END LIST*
D10*
X156967256Y-25226944D02*
X38349256Y-25226944D01*
X90119200Y-79756000D02*
X104089200Y-79756000D01*
X110439200Y-59867800D02*
X124409200Y-59867800D01*
X139903200Y-130479800D02*
X139903200Y-144449800D01*
X69799200Y-53009800D02*
X69799200Y-39039800D01*
X125933200Y-103301800D02*
X125933200Y-89331800D01*
X70307200Y-93649800D02*
X56337200Y-93649800D01*
X79197200Y-99999800D02*
X93167200Y-99999800D01*
X90119200Y-73837800D02*
X90119200Y-59867800D01*
X139903200Y-124129800D02*
X125933200Y-124129800D01*
X125933200Y-144449800D02*
X125933200Y-130479800D01*
X124409200Y-39039800D02*
X124409200Y-53009800D01*
X69799200Y-73837800D02*
X69799200Y-59867800D01*
X104089200Y-93726000D02*
X90119200Y-93726000D01*
X139903200Y-165531800D02*
X125933200Y-165531800D01*
X116027200Y-113969800D02*
X102057200Y-113969800D01*
X70307200Y-99999800D02*
X70307200Y-113969800D01*
X110439200Y-39039800D02*
X124409200Y-39039800D01*
X125933200Y-124129800D02*
X125933200Y-110159800D01*
X70307200Y-120319800D02*
X70307200Y-134289800D01*
X144729200Y-39039800D02*
X144729200Y-53009800D01*
X139903200Y-144449800D02*
X125933200Y-144449800D01*
X56337200Y-134289800D02*
X56337200Y-120319800D01*
X56337200Y-79679800D02*
X70307200Y-79679800D01*
X144729200Y-73837800D02*
X130759200Y-73837800D01*
X90119200Y-93726000D02*
X90119200Y-79756000D01*
X139903200Y-103301800D02*
X125933200Y-103301800D01*
X90119200Y-53009800D02*
X90119200Y-39039800D01*
X130759200Y-39039800D02*
X144729200Y-39039800D01*
X139903200Y-151561800D02*
X139903200Y-165531800D01*
X156967256Y-171073744D02*
X38349256Y-171073744D01*
X125933200Y-165531800D02*
X125933200Y-151561800D01*
X124409200Y-73837800D02*
X110439200Y-73837800D01*
X104089200Y-59867800D02*
X104089200Y-73837800D01*
X63449200Y-53009800D02*
X49479200Y-53009800D01*
X56337200Y-120319800D02*
X70307200Y-120319800D01*
X125933200Y-89331800D02*
X139903200Y-89331800D01*
X83769200Y-73837800D02*
X69799200Y-73837800D01*
X93167200Y-99999800D02*
X93167200Y-113969800D01*
X130759200Y-53009800D02*
X130759200Y-39039800D01*
X104089200Y-53009800D02*
X90119200Y-53009800D01*
X125933200Y-130479800D02*
X139903200Y-130479800D01*
X110439200Y-53009800D02*
X110439200Y-39039800D01*
X116027200Y-99999800D02*
X116027200Y-113969800D01*
X104089200Y-73837800D02*
X90119200Y-73837800D01*
X90119200Y-39039800D02*
X104089200Y-39039800D01*
X38349256Y-171073744D02*
X38349256Y-25226944D01*
X156967256Y-25226944D02*
X156967256Y-171073744D01*
X144729200Y-59867800D02*
X144729200Y-73837800D01*
X69799200Y-39039800D02*
X83769200Y-39039800D01*
X102057200Y-99999800D02*
X116027200Y-99999800D01*
X49479200Y-53009800D02*
X49504600Y-39039800D01*
X49479200Y-73837800D02*
X49479200Y-59867800D01*
X125933200Y-110159800D02*
X139903200Y-110159800D01*
X83769200Y-59867800D02*
X83769200Y-73837800D01*
X70307200Y-134289800D02*
X56337200Y-134289800D01*
X49479200Y-59867800D02*
X63449200Y-59867800D01*
X104089200Y-79756000D02*
X104089200Y-93726000D01*
X139903200Y-89331800D02*
X139903200Y-103301800D01*
X83769200Y-53009800D02*
X69799200Y-53009800D01*
X102057200Y-113969800D02*
X102057200Y-99999800D01*
X63449200Y-73837800D02*
X49479200Y-73837800D01*
X93167200Y-113969800D02*
X79197200Y-113969800D01*
X104089200Y-39039800D02*
X104089200Y-53009800D01*
X49504600Y-39039800D02*
X63449200Y-39039800D01*
X139903200Y-110159800D02*
X139903200Y-124129800D01*
X144729200Y-53009800D02*
X130759200Y-53009800D01*
X125933200Y-151561800D02*
X139903200Y-151561800D01*
X124409200Y-59867800D02*
X124409200Y-73837800D01*
X56337200Y-93649800D02*
X56337200Y-79679800D01*
X56337200Y-99999800D02*
X70307200Y-99999800D01*
X124409200Y-53009800D02*
X110439200Y-53009800D01*
X63449200Y-39039800D02*
X63449200Y-53009800D01*
X130759200Y-73837800D02*
X130759200Y-59867800D01*
X83769200Y-39039800D02*
X83769200Y-53009800D01*
X90119200Y-59867800D02*
X104089200Y-59867800D01*
X130759200Y-59867800D02*
X144729200Y-59867800D01*
X110439200Y-73837800D02*
X110439200Y-59867800D01*
X79197200Y-113969800D02*
X79197200Y-99999800D01*
X70307200Y-79679800D02*
X70307200Y-93649800D01*
X69799200Y-59867800D02*
X83769200Y-59867800D01*
X70307200Y-113969800D02*
X56337200Y-113969800D01*
X63449200Y-59867800D02*
X63449200Y-73837800D01*
X56337200Y-113969800D02*
X56337200Y-99999800D01*
M02*
