%TF.GenerationSoftware,KiCad,Pcbnew,9.0.1*%
%TF.CreationDate,2026-04-08T16:24:08-03:00*%
%TF.ProjectId,panel,70616e65-6c2e-46b6-9963-61645f706362,rev?*%
%TF.SameCoordinates,Original*%
%TF.FileFunction,Legend,Top*%
%TF.FilePolarity,Positive*%
%FSLAX46Y46*%
G04 Gerber Fmt 4.6, Leading zero omitted, Abs format (unit mm)*
G04 Created by KiCad (PCBNEW 9.0.1) date 2026-04-08 16:24:08*
%MOMM*%
%LPD*%
G01*
G04 APERTURE LIST*
%ADD10C,0.200000*%
%ADD11C,1.000000*%
%ADD12C,0.150000*%
%ADD13C,2.000000*%
%ADD14C,0.010000*%
G04 APERTURE END LIST*
D10*
G36*
X81291590Y-165711400D02*
G01*
X81291590Y-155668134D01*
X86935041Y-155668134D01*
X86935041Y-157348524D01*
X82828097Y-157348524D01*
X82828097Y-159576019D01*
X86649179Y-159576019D01*
X86649179Y-161256410D01*
X82828097Y-161256410D01*
X82828097Y-164031009D01*
X87080292Y-164031009D01*
X87080292Y-165711400D01*
X81291590Y-165711400D01*
G37*
G36*
X92079123Y-155723898D02*
G01*
X92634179Y-155859864D01*
X93060848Y-156079127D01*
X93441441Y-156386011D01*
X93781803Y-156784934D01*
X94070549Y-157252973D01*
X94312856Y-157792410D01*
X94508523Y-158412202D01*
X94640637Y-159061989D01*
X94726695Y-159845648D01*
X94757724Y-160785632D01*
X94729267Y-161609885D01*
X94649232Y-162317363D01*
X94524301Y-162923367D01*
X94298946Y-163627565D01*
X94026701Y-164213680D01*
X93708945Y-164697181D01*
X93424367Y-165003129D01*
X93068504Y-165271350D01*
X92629074Y-165498908D01*
X92076493Y-165651497D01*
X91268910Y-165711400D01*
X88377344Y-165711400D01*
X88377344Y-164031009D01*
X89913851Y-164031009D01*
X91061475Y-164031009D01*
X91660422Y-164001908D01*
X91990526Y-163934533D01*
X92338276Y-163763862D01*
X92610976Y-163515046D01*
X92753626Y-163297846D01*
X92888652Y-162982201D01*
X93013317Y-162541127D01*
X93124927Y-161800958D01*
X93169242Y-160693430D01*
X93124159Y-159592395D01*
X93013317Y-158897024D01*
X92819308Y-158323512D01*
X92577099Y-157920053D01*
X92264988Y-157629618D01*
X91866157Y-157445000D01*
X91467546Y-157379180D01*
X90604374Y-157348524D01*
X89913851Y-157348524D01*
X89913851Y-164031009D01*
X88377344Y-164031009D01*
X88377344Y-155668134D01*
X91185843Y-155668134D01*
X92079123Y-155723898D01*
G37*
G36*
X99600669Y-162037987D02*
G01*
X99600669Y-160357596D01*
X102912675Y-160357596D01*
X102912675Y-164363790D01*
X102569915Y-164730783D01*
X102111506Y-165091026D01*
X101513530Y-165441511D01*
X100894775Y-165701731D01*
X100277491Y-165855709D01*
X99657284Y-165906794D01*
X99060655Y-165862639D01*
X98519359Y-165734897D01*
X98026343Y-165528523D01*
X97575505Y-165245506D01*
X97158139Y-164877878D01*
X96799400Y-164443200D01*
X96494534Y-163937253D01*
X96241328Y-163352624D01*
X95994861Y-162514781D01*
X95845637Y-161625922D01*
X95794901Y-160675112D01*
X95827763Y-159891699D01*
X95923418Y-159170517D01*
X96078919Y-158503764D01*
X96293303Y-157884637D01*
X96571614Y-157309513D01*
X96904901Y-156809330D01*
X97296515Y-156377965D01*
X97752312Y-156012516D01*
X98254294Y-155744597D01*
X98855219Y-155573158D01*
X99574681Y-155511818D01*
X100292426Y-155568181D01*
X100888041Y-155725003D01*
X101381272Y-155968259D01*
X101788718Y-156290342D01*
X102149820Y-156714030D01*
X102438909Y-157207601D01*
X102660477Y-157779533D01*
X102814294Y-158442732D01*
X101287996Y-158833521D01*
X101146725Y-158367120D01*
X100945965Y-157980164D01*
X100682860Y-157661155D01*
X100372174Y-157427718D01*
X100007118Y-157282503D01*
X99574681Y-157231288D01*
X99079898Y-157288342D01*
X98656312Y-157450926D01*
X98290585Y-157713175D01*
X97973205Y-158078811D01*
X97727408Y-158520351D01*
X97542179Y-159069896D01*
X97422213Y-159750773D01*
X97378743Y-160592069D01*
X97423334Y-161504064D01*
X97545825Y-162236811D01*
X97733628Y-162822790D01*
X97980630Y-163288510D01*
X98304437Y-163681046D01*
X98669241Y-163958536D01*
X99083333Y-164128320D01*
X99558903Y-164187324D01*
X100038011Y-164125461D01*
X100527399Y-163935143D01*
X100987048Y-163649685D01*
X101360390Y-163323315D01*
X101360390Y-162037987D01*
X99600669Y-162037987D01*
G37*
G36*
X104331311Y-165711400D02*
G01*
X104331311Y-155668134D01*
X109974762Y-155668134D01*
X109974762Y-157348524D01*
X105867818Y-157348524D01*
X105867818Y-159576019D01*
X109688900Y-159576019D01*
X109688900Y-161256410D01*
X105867818Y-161256410D01*
X105867818Y-164031009D01*
X110120013Y-164031009D01*
X110120013Y-165711400D01*
X104331311Y-165711400D01*
G37*
D11*
G36*
X83174925Y-148781400D02*
G01*
X83174925Y-144599962D01*
X81154084Y-144599962D01*
X81154084Y-143759767D01*
X86565968Y-143759767D01*
X86565968Y-144599962D01*
X84549695Y-144599962D01*
X84549695Y-148781400D01*
X83174925Y-148781400D01*
G37*
G36*
X87459506Y-148781400D02*
G01*
X87459506Y-143759767D01*
X88834691Y-143759767D01*
X88834691Y-145733249D01*
X91528592Y-145733249D01*
X91528592Y-143759767D01*
X92903777Y-143759767D01*
X92903777Y-148781400D01*
X91528592Y-148781400D01*
X91528592Y-146573444D01*
X88834691Y-146573444D01*
X88834691Y-148781400D01*
X87459506Y-148781400D01*
G37*
G36*
X94282284Y-148781400D02*
G01*
X94282284Y-143759767D01*
X95657469Y-143759767D01*
X95657469Y-148781400D01*
X94282284Y-148781400D01*
G37*
G36*
X96982413Y-148781400D02*
G01*
X96982413Y-143759767D01*
X98320229Y-143759767D01*
X101107137Y-147121464D01*
X101107137Y-143759767D01*
X102384747Y-143759767D01*
X102384747Y-148781400D01*
X101004995Y-148781400D01*
X98259608Y-145469772D01*
X98259608Y-148781400D01*
X96982413Y-148781400D01*
G37*
G36*
X107005651Y-146944693D02*
G01*
X107005651Y-146104498D01*
X109969025Y-146104498D01*
X109969025Y-148107595D01*
X109662345Y-148291091D01*
X109252189Y-148471213D01*
X108717158Y-148646455D01*
X108163535Y-148776565D01*
X107611228Y-148853554D01*
X107056307Y-148879097D01*
X106522481Y-148857019D01*
X106038163Y-148793148D01*
X105597043Y-148689961D01*
X105193662Y-148548453D01*
X104820230Y-148364639D01*
X104499253Y-148147300D01*
X104226478Y-147894326D01*
X103999925Y-147602012D01*
X103779402Y-147183090D01*
X103645886Y-146738661D01*
X103600490Y-146263256D01*
X103629893Y-145871549D01*
X103715479Y-145510958D01*
X103854611Y-145177582D01*
X104046429Y-144868018D01*
X104295444Y-144580456D01*
X104593649Y-144330365D01*
X104944040Y-144114682D01*
X105351858Y-143931958D01*
X105801000Y-143797998D01*
X106338670Y-143712279D01*
X106982399Y-143681609D01*
X107624592Y-143709790D01*
X108157510Y-143788201D01*
X108598822Y-143909829D01*
X108963379Y-144070871D01*
X109286470Y-144282715D01*
X109545129Y-144529500D01*
X109743374Y-144815466D01*
X109881000Y-145147066D01*
X108515365Y-145342460D01*
X108388964Y-145109260D01*
X108209337Y-144915782D01*
X107973927Y-144756277D01*
X107695945Y-144639559D01*
X107369316Y-144566951D01*
X106982399Y-144541344D01*
X106539698Y-144569871D01*
X106160701Y-144651163D01*
X105833471Y-144782287D01*
X105549499Y-144965105D01*
X105329576Y-145185875D01*
X105163845Y-145460648D01*
X105056506Y-145801086D01*
X105017612Y-146221734D01*
X105057509Y-146677732D01*
X105167107Y-147044105D01*
X105335141Y-147337095D01*
X105556143Y-147569955D01*
X105845864Y-147766223D01*
X106172268Y-147904968D01*
X106542771Y-147989860D01*
X106968282Y-148019362D01*
X107396957Y-147988430D01*
X107834831Y-147893271D01*
X108246096Y-147750542D01*
X108580138Y-147587357D01*
X108580138Y-146944693D01*
X107005651Y-146944693D01*
G37*
D12*
G36*
X51878119Y-164126151D02*
G01*
X51995690Y-164152630D01*
X52105262Y-164195800D01*
X52207824Y-164255447D01*
X52303504Y-164332875D01*
X52388089Y-164426622D01*
X52462477Y-164537652D01*
X52527111Y-164667607D01*
X52582259Y-164829056D01*
X52615310Y-164998981D01*
X52626487Y-165179906D01*
X52618106Y-165334625D01*
X52593348Y-165480582D01*
X52552241Y-165619521D01*
X52494084Y-165752883D01*
X52417476Y-165881738D01*
X52336642Y-165986265D01*
X52256269Y-166063098D01*
X52175677Y-166115783D01*
X52093878Y-166146713D01*
X52009621Y-166157000D01*
X51942900Y-166149103D01*
X51895315Y-166128301D01*
X51857251Y-166093042D01*
X51831293Y-166046235D01*
X51820803Y-166005670D01*
X51811876Y-165928755D01*
X51740654Y-166022442D01*
X51662766Y-166094473D01*
X51578742Y-166141887D01*
X51497261Y-166157000D01*
X51437874Y-166149342D01*
X51379080Y-166126093D01*
X51319940Y-166086047D01*
X51267683Y-166032091D01*
X51221108Y-165960216D01*
X51180081Y-165867450D01*
X51150446Y-165766867D01*
X51132452Y-165659384D01*
X51127184Y-165559948D01*
X51315910Y-165559948D01*
X51324217Y-165681791D01*
X51347001Y-165776852D01*
X51382497Y-165850963D01*
X51430890Y-165910350D01*
X51481193Y-165943766D01*
X51535179Y-165954766D01*
X51592371Y-165943999D01*
X51656079Y-165909093D01*
X51716617Y-165854005D01*
X51777529Y-165773172D01*
X51828878Y-165673939D01*
X51872326Y-165544316D01*
X51900132Y-165404510D01*
X51909237Y-165266246D01*
X51900642Y-165145702D01*
X51877012Y-165051576D01*
X51839994Y-164978039D01*
X51789825Y-164920507D01*
X51734344Y-164886958D01*
X51671467Y-164875579D01*
X51607951Y-164886642D01*
X51548002Y-164920032D01*
X51493324Y-164974966D01*
X51435803Y-165062792D01*
X51387908Y-165168861D01*
X51348700Y-165301783D01*
X51323636Y-165440428D01*
X51315910Y-165559948D01*
X51127184Y-165559948D01*
X51126317Y-165543584D01*
X51135275Y-165401224D01*
X51162642Y-165256782D01*
X51209848Y-165108465D01*
X51272492Y-164970691D01*
X51341614Y-164863037D01*
X51417302Y-164781302D01*
X51502763Y-164718459D01*
X51582471Y-164683250D01*
X51658186Y-164672003D01*
X51744771Y-164687362D01*
X51828271Y-164734163D01*
X51878385Y-164781276D01*
X51924755Y-164843609D01*
X51967581Y-164923329D01*
X52002477Y-164711082D01*
X52185842Y-164711082D01*
X52038289Y-165627115D01*
X52007606Y-165838629D01*
X52012787Y-165872756D01*
X52028580Y-165902132D01*
X52051663Y-165922052D01*
X52079322Y-165928755D01*
X52114146Y-165921589D01*
X52160353Y-165896359D01*
X52221746Y-165845712D01*
X52293539Y-165765710D01*
X52355030Y-165668977D01*
X52406668Y-165553598D01*
X52444826Y-165428963D01*
X52467333Y-165303475D01*
X52474812Y-165175754D01*
X52465052Y-165027327D01*
X52436014Y-164886427D01*
X52387159Y-164750893D01*
X52320604Y-164630086D01*
X52234411Y-164525028D01*
X52125850Y-164434965D01*
X52007285Y-164369687D01*
X51880008Y-164330044D01*
X51742175Y-164316508D01*
X51623329Y-164326104D01*
X51511378Y-164354351D01*
X51405270Y-164400892D01*
X51304095Y-164465984D01*
X51210708Y-164548620D01*
X51128846Y-164646822D01*
X51057647Y-164761577D01*
X50996715Y-164894508D01*
X50948958Y-165036666D01*
X50915000Y-165183091D01*
X50894533Y-165334791D01*
X50887630Y-165492903D01*
X50894957Y-165659981D01*
X50916083Y-165810227D01*
X50950117Y-165945872D01*
X50996715Y-166068828D01*
X51057082Y-166181187D01*
X51129085Y-166277450D01*
X51213666Y-166358783D01*
X51312338Y-166425545D01*
X51452365Y-166488764D01*
X51604236Y-166527602D01*
X51769836Y-166540949D01*
X51905697Y-166532490D01*
X52024597Y-166508472D01*
X52128624Y-166470568D01*
X52219639Y-166419927D01*
X52334933Y-166329372D01*
X52424163Y-166231294D01*
X52491207Y-166125736D01*
X52676679Y-166125736D01*
X52636491Y-166216715D01*
X52577901Y-166314188D01*
X52497343Y-166419316D01*
X52408711Y-166510829D01*
X52308380Y-166589748D01*
X52195093Y-166655988D01*
X52076502Y-166702597D01*
X51936915Y-166732515D01*
X51772950Y-166743182D01*
X51622122Y-166734164D01*
X51482623Y-166707921D01*
X51353279Y-166665391D01*
X51229191Y-166603386D01*
X51120664Y-166525276D01*
X51025933Y-166431284D01*
X50942191Y-166320381D01*
X50874626Y-166200791D01*
X50822051Y-166071637D01*
X50774516Y-165896529D01*
X50745731Y-165711574D01*
X50735956Y-165514763D01*
X50747401Y-165295689D01*
X50781475Y-165084825D01*
X50838446Y-164880098D01*
X50909397Y-164701866D01*
X50992054Y-164549746D01*
X51086508Y-164420997D01*
X51193453Y-164313699D01*
X51310888Y-164229847D01*
X51441580Y-164168524D01*
X51587607Y-164130362D01*
X51751426Y-164117083D01*
X51878119Y-164126151D01*
G37*
G36*
X53465631Y-164682986D02*
G01*
X53546951Y-164714941D01*
X53620799Y-164767624D01*
X53685298Y-164839054D01*
X53738789Y-164928137D01*
X53781725Y-165037390D01*
X53811551Y-165155445D01*
X53829794Y-165282258D01*
X53836038Y-165419264D01*
X53829061Y-165565959D01*
X53808844Y-165698950D01*
X53776046Y-165820189D01*
X53729176Y-165931444D01*
X53671313Y-166021667D01*
X53601840Y-166093374D01*
X53523309Y-166146664D01*
X53443652Y-166177888D01*
X53361597Y-166188263D01*
X53273134Y-166174771D01*
X53196183Y-166135628D01*
X53128815Y-166075283D01*
X53075741Y-166002516D01*
X53075741Y-166711919D01*
X52891277Y-166711919D01*
X52891277Y-165436239D01*
X53058339Y-165436239D01*
X53064777Y-165579065D01*
X53082311Y-165692022D01*
X53108876Y-165780637D01*
X53143335Y-165849498D01*
X53205447Y-165925003D01*
X53273249Y-165968476D01*
X53349324Y-165983099D01*
X53408195Y-165974577D01*
X53462098Y-165949402D01*
X53512379Y-165906890D01*
X53559891Y-165844735D01*
X53595392Y-165773465D01*
X53622791Y-165681591D01*
X53640893Y-165564311D01*
X53647544Y-165415845D01*
X53641135Y-165274777D01*
X53623584Y-165161887D01*
X53596825Y-165072110D01*
X53561906Y-165001242D01*
X53499333Y-164922971D01*
X53432064Y-164878371D01*
X53357567Y-164863489D01*
X53301718Y-164872203D01*
X53249125Y-164898330D01*
X53198493Y-164943263D01*
X53149014Y-165010157D01*
X53111682Y-165085667D01*
X53083373Y-165179197D01*
X53064995Y-165294528D01*
X53058339Y-165436239D01*
X52891277Y-165436239D01*
X52891277Y-164703266D01*
X53059346Y-164703266D01*
X53059346Y-164892188D01*
X53124083Y-164794095D01*
X53193527Y-164727080D01*
X53244963Y-164697343D01*
X53304888Y-164678619D01*
X53374969Y-164672003D01*
X53465631Y-164682986D01*
G37*
G36*
X54650195Y-164684164D02*
G01*
X54744347Y-164715845D01*
X54822962Y-164767871D01*
X54872391Y-164825876D01*
X54906594Y-164898947D01*
X54929819Y-164993304D01*
X54936196Y-165068817D01*
X54939070Y-165220328D01*
X54939070Y-165548468D01*
X54942986Y-165861006D01*
X54950793Y-165982732D01*
X54968259Y-166071366D01*
X54997413Y-166157000D01*
X54804797Y-166157000D01*
X54781678Y-166075403D01*
X54767886Y-165976382D01*
X54663768Y-166078442D01*
X54570690Y-166140391D01*
X54473291Y-166176092D01*
X54367267Y-166188263D01*
X54277150Y-166179878D01*
X54202930Y-166156542D01*
X54141814Y-166120151D01*
X54091578Y-166071392D01*
X54049393Y-166008768D01*
X54019673Y-165939184D01*
X54001574Y-165861193D01*
X53995315Y-165772683D01*
X53995874Y-165766455D01*
X54192053Y-165766455D01*
X54198320Y-165828915D01*
X54216649Y-165883018D01*
X54247832Y-165930953D01*
X54287962Y-165965763D01*
X54341170Y-165988412D01*
X54411322Y-165996776D01*
X54481152Y-165989548D01*
X54543948Y-165968591D01*
X54600915Y-165934372D01*
X54651919Y-165887008D01*
X54692188Y-165830392D01*
X54722823Y-165763646D01*
X54743916Y-165669302D01*
X54752499Y-165516717D01*
X54752499Y-165426225D01*
X54638937Y-165473364D01*
X54451256Y-165519770D01*
X54346235Y-165545646D01*
X54290422Y-165569229D01*
X54248239Y-165603370D01*
X54217607Y-165649341D01*
X54198480Y-165704820D01*
X54192053Y-165766455D01*
X53995874Y-165766455D01*
X54004536Y-165669989D01*
X54031677Y-165577900D01*
X54074015Y-165497950D01*
X54126932Y-165436483D01*
X54189030Y-165389968D01*
X54259647Y-165355761D01*
X54423595Y-165318880D01*
X54631774Y-165276466D01*
X54752499Y-165234739D01*
X54753598Y-165170869D01*
X54746656Y-165073596D01*
X54728487Y-165006001D01*
X54701299Y-164960087D01*
X54650483Y-164916407D01*
X54582229Y-164887793D01*
X54491281Y-164877167D01*
X54405241Y-164885390D01*
X54343102Y-164906992D01*
X54299123Y-164938716D01*
X54263936Y-164985720D01*
X54233096Y-165056023D01*
X54207440Y-165156581D01*
X54027097Y-165123852D01*
X54048128Y-165022062D01*
X54075300Y-164938961D01*
X54107972Y-164871672D01*
X54149533Y-164814404D01*
X54203127Y-164765082D01*
X54270913Y-164723905D01*
X54382633Y-164685691D01*
X54517934Y-164672003D01*
X54650195Y-164684164D01*
G37*
G36*
X55225383Y-166157000D02*
G01*
X55225383Y-164148346D01*
X55409756Y-164148346D01*
X55409756Y-165294578D01*
X55846279Y-164703266D01*
X56085057Y-164703266D01*
X55669051Y-165242554D01*
X56127097Y-166157000D01*
X55899585Y-166157000D01*
X55539907Y-165413646D01*
X55409756Y-165580709D01*
X55409756Y-166157000D01*
X55225383Y-166157000D01*
G37*
G36*
X56826914Y-164685003D02*
G01*
X56920288Y-164722464D01*
X57003019Y-164783678D01*
X57076897Y-164870084D01*
X57135039Y-164973673D01*
X57178086Y-165098069D01*
X57205495Y-165247436D01*
X57215291Y-165427080D01*
X57214192Y-165492659D01*
X56402695Y-165492659D01*
X56413935Y-165611665D01*
X56435231Y-165709821D01*
X56465412Y-165790616D01*
X56504086Y-165856825D01*
X56569901Y-165926970D01*
X56644761Y-165968724D01*
X56731598Y-165983099D01*
X56797514Y-165974876D01*
X56854673Y-165951262D01*
X56904797Y-165912757D01*
X56947140Y-165859886D01*
X56985169Y-165786522D01*
X57018553Y-165688053D01*
X57209154Y-165719438D01*
X57169338Y-165860075D01*
X57113744Y-165973967D01*
X57042092Y-166065286D01*
X56979294Y-166117491D01*
X56907541Y-166155801D01*
X56825275Y-166179824D01*
X56730591Y-166188263D01*
X56612891Y-166174960D01*
X56512531Y-166137157D01*
X56426324Y-166076447D01*
X56351954Y-165992258D01*
X56293033Y-165889431D01*
X56249555Y-165766403D01*
X56221945Y-165619143D01*
X56212094Y-165442467D01*
X56220559Y-165287495D01*
X56412953Y-165287495D01*
X57020568Y-165287495D01*
X57005909Y-165169548D01*
X56982106Y-165081583D01*
X56950868Y-165017118D01*
X56903172Y-164955505D01*
X56850047Y-164912378D01*
X56790355Y-164886211D01*
X56722348Y-164877167D01*
X56641053Y-164889947D01*
X56570720Y-164927007D01*
X56508757Y-164988908D01*
X56460513Y-165069750D01*
X56428454Y-165167831D01*
X56412953Y-165287495D01*
X56220559Y-165287495D01*
X56222098Y-165259313D01*
X56250095Y-165106960D01*
X56294081Y-164980012D01*
X56353511Y-164874236D01*
X56429020Y-164786178D01*
X56513936Y-164723665D01*
X56610145Y-164685329D01*
X56720333Y-164672003D01*
X56826914Y-164685003D01*
G37*
G36*
X57931293Y-164686375D02*
G01*
X58014670Y-164727876D01*
X58087763Y-164796656D01*
X58152268Y-164896218D01*
X58152268Y-164703266D01*
X58318231Y-164703266D01*
X58318231Y-166711919D01*
X58133766Y-166711919D01*
X58133766Y-165998364D01*
X58083280Y-166071952D01*
X58013324Y-166134285D01*
X57933553Y-166174774D01*
X57848918Y-166188263D01*
X57755771Y-166175458D01*
X57670353Y-166137692D01*
X57590680Y-166074202D01*
X57515435Y-165982000D01*
X57456412Y-165874302D01*
X57412911Y-165746867D01*
X57385367Y-165595872D01*
X57375948Y-165423294D01*
X57565077Y-165423294D01*
X57571648Y-165565735D01*
X57589665Y-165679959D01*
X57617187Y-165771033D01*
X57653188Y-165843147D01*
X57701040Y-165906115D01*
X57751528Y-165949101D01*
X57805500Y-165974509D01*
X57864305Y-165983099D01*
X57938415Y-165968647D01*
X58005215Y-165925448D01*
X58067179Y-165849986D01*
X58101855Y-165781332D01*
X58128434Y-165693946D01*
X58145885Y-165583594D01*
X58152268Y-165445154D01*
X58145582Y-165297780D01*
X58127241Y-165179359D01*
X58099222Y-165084747D01*
X58062600Y-165009669D01*
X58013677Y-164943334D01*
X57962912Y-164898517D01*
X57909476Y-164872289D01*
X57852032Y-164863489D01*
X57776804Y-164878315D01*
X57709870Y-164922456D01*
X57648608Y-164999411D01*
X57614941Y-165069038D01*
X57588808Y-165159456D01*
X57571467Y-165275582D01*
X57565077Y-165423294D01*
X57375948Y-165423294D01*
X57375575Y-165416455D01*
X57382210Y-165272294D01*
X57401379Y-165142276D01*
X57432362Y-165024445D01*
X57477046Y-164915996D01*
X57531871Y-164829283D01*
X57597317Y-164761518D01*
X57671794Y-164711770D01*
X57750446Y-164682052D01*
X57834630Y-164672003D01*
X57931293Y-164686375D01*
G37*
G36*
X59319779Y-166157000D02*
G01*
X59319779Y-165943165D01*
X59263906Y-166033293D01*
X59202423Y-166101040D01*
X59134648Y-166148964D01*
X59059275Y-166178177D01*
X58974481Y-166188263D01*
X58880745Y-166175798D01*
X58794596Y-166139048D01*
X58719607Y-166081277D01*
X58670581Y-166015339D01*
X58636832Y-165934441D01*
X58613795Y-165832767D01*
X58605898Y-165749642D01*
X58602529Y-165603057D01*
X58602529Y-164703266D01*
X58786902Y-164703266D01*
X58786902Y-165509267D01*
X58790472Y-165686603D01*
X58798168Y-165769264D01*
X58814468Y-165830241D01*
X58838951Y-165880521D01*
X58871990Y-165921794D01*
X58911422Y-165951977D01*
X58957340Y-165970670D01*
X59011300Y-165977237D01*
X59091648Y-165963090D01*
X59167097Y-165920450D01*
X59211401Y-165877376D01*
X59245357Y-165826149D01*
X59270045Y-165765845D01*
X59291538Y-165656469D01*
X59300270Y-165481912D01*
X59300270Y-164703266D01*
X59484734Y-164703266D01*
X59484734Y-166157000D01*
X59319779Y-166157000D01*
G37*
G36*
X59774162Y-164429714D02*
G01*
X59774162Y-164148346D01*
X59958535Y-164148346D01*
X59958535Y-164429714D01*
X59774162Y-164429714D01*
G37*
G36*
X59774162Y-166157000D02*
G01*
X59774162Y-164703266D01*
X59958535Y-164703266D01*
X59958535Y-166157000D01*
X59774162Y-166157000D01*
G37*
G36*
X60165348Y-165718584D02*
G01*
X60347705Y-165680237D01*
X60364923Y-165773574D01*
X60393550Y-165847247D01*
X60433251Y-165905063D01*
X60483274Y-165946622D01*
X60547405Y-165973349D01*
X60629531Y-165983099D01*
X60712945Y-165974129D01*
X60773995Y-165950322D01*
X60818026Y-165914711D01*
X60853125Y-165864785D01*
X60872990Y-165811942D01*
X60879575Y-165754243D01*
X60873528Y-165703068D01*
X60855867Y-165660512D01*
X60825261Y-165624306D01*
X60772801Y-165593581D01*
X60636675Y-165541752D01*
X60450105Y-165471680D01*
X60355399Y-165423538D01*
X60285632Y-165363049D01*
X60236514Y-165285419D01*
X60206226Y-165192904D01*
X60196031Y-165090513D01*
X60204434Y-164996658D01*
X60229370Y-164910750D01*
X60268706Y-164834977D01*
X60320045Y-164773242D01*
X60368050Y-164735866D01*
X60437373Y-164701434D01*
X60513443Y-164679530D01*
X60596742Y-164672003D01*
X60719972Y-164685133D01*
X60821598Y-164721829D01*
X60883228Y-164761064D01*
X60930048Y-164806165D01*
X60964571Y-164856895D01*
X61002216Y-164951705D01*
X61028135Y-165084651D01*
X60847793Y-165117502D01*
X60833883Y-165045849D01*
X60810160Y-164987791D01*
X60776535Y-164940792D01*
X60734674Y-164907067D01*
X60680327Y-164885194D01*
X60610022Y-164877167D01*
X60525667Y-164884853D01*
X60467501Y-164904610D01*
X60428672Y-164932854D01*
X60397454Y-164973908D01*
X60380065Y-165016832D01*
X60374358Y-165063280D01*
X60379968Y-165108406D01*
X60396890Y-165148887D01*
X60424313Y-165183494D01*
X60467598Y-165214100D01*
X60630539Y-165276626D01*
X60810866Y-165345912D01*
X60903572Y-165390565D01*
X60973282Y-165445664D01*
X61025021Y-165519526D01*
X61048905Y-165578532D01*
X61063814Y-165647803D01*
X61069077Y-165729697D01*
X61063179Y-165809509D01*
X61045481Y-165886200D01*
X61015313Y-165961117D01*
X60975017Y-166026832D01*
X60923806Y-166082656D01*
X60860066Y-166128912D01*
X60791099Y-166161293D01*
X60714974Y-166181327D01*
X60630539Y-166188263D01*
X60522794Y-166179531D01*
X60435213Y-166155450D01*
X60364321Y-166118443D01*
X60307222Y-166069805D01*
X60258211Y-166005921D01*
X60218186Y-165927729D01*
X60187020Y-165832972D01*
X60165348Y-165718584D01*
G37*
G36*
X62789706Y-165924480D02*
G01*
X62789706Y-166157000D01*
X61796859Y-166157000D01*
X61801202Y-166069929D01*
X61818383Y-165986518D01*
X61866346Y-165855521D01*
X61939741Y-165720660D01*
X62034796Y-165588403D01*
X62181084Y-165417921D01*
X62343165Y-165230967D01*
X62448759Y-165092278D01*
X62512002Y-164991717D01*
X62562128Y-164882622D01*
X62589522Y-164784484D01*
X62598098Y-164694351D01*
X62589250Y-164600908D01*
X62563400Y-164519367D01*
X62519696Y-164446689D01*
X62463409Y-164391460D01*
X62396314Y-164357613D01*
X62315356Y-164345695D01*
X62229852Y-164358438D01*
X62159936Y-164394455D01*
X62102132Y-164453039D01*
X62058871Y-164530671D01*
X62031534Y-164627860D01*
X62021257Y-164750161D01*
X61831664Y-164724027D01*
X61849439Y-164583153D01*
X61880341Y-164466371D01*
X61923263Y-164369624D01*
X61978210Y-164289885D01*
X62044431Y-164226624D01*
X62121860Y-164180172D01*
X62212615Y-164150894D01*
X62319386Y-164140531D01*
X62426794Y-164151625D01*
X62517849Y-164182988D01*
X62595409Y-164232893D01*
X62661662Y-164301242D01*
X62717087Y-164386893D01*
X62756007Y-164480507D01*
X62779585Y-164583827D01*
X62787691Y-164699358D01*
X62778571Y-164818438D01*
X62750780Y-164936884D01*
X62704157Y-165051769D01*
X62628323Y-165182715D01*
X62526521Y-165320644D01*
X62344024Y-165536867D01*
X62193609Y-165710614D01*
X62130800Y-165790513D01*
X62087085Y-165858554D01*
X62053040Y-165924480D01*
X62789706Y-165924480D01*
G37*
G36*
X63556118Y-164148164D02*
G01*
X63626307Y-164170098D01*
X63688764Y-164205499D01*
X63745677Y-164254814D01*
X63795732Y-164316893D01*
X63839432Y-164392956D01*
X63891148Y-164524515D01*
X63932671Y-164691176D01*
X63956884Y-164882242D01*
X63966469Y-165165129D01*
X63959459Y-165401074D01*
X63940470Y-165588259D01*
X63912155Y-165734826D01*
X63868169Y-165872955D01*
X63813953Y-165983247D01*
X63749764Y-166069927D01*
X63673392Y-166134418D01*
X63583537Y-166174246D01*
X63476731Y-166188263D01*
X63371033Y-166174474D01*
X63280836Y-166135072D01*
X63202996Y-166070958D01*
X63135463Y-165980290D01*
X63087369Y-165881456D01*
X63046948Y-165756247D01*
X63015361Y-165599367D01*
X62994506Y-165404638D01*
X62986902Y-165165129D01*
X62986924Y-165164397D01*
X63176496Y-165164397D01*
X63184096Y-165427419D01*
X63203647Y-165612838D01*
X63230973Y-165738609D01*
X63263049Y-165820066D01*
X63311169Y-165894281D01*
X63362115Y-165944124D01*
X63416760Y-165973274D01*
X63476731Y-165983099D01*
X63536622Y-165973244D01*
X63591224Y-165943990D01*
X63642167Y-165893932D01*
X63690321Y-165819334D01*
X63722473Y-165737529D01*
X63749826Y-165611635D01*
X63769374Y-165426501D01*
X63776967Y-165164397D01*
X63769344Y-164900545D01*
X63749752Y-164714884D01*
X63722397Y-164589243D01*
X63690321Y-164508116D01*
X63642246Y-164434405D01*
X63590998Y-164384720D01*
X63535677Y-164355554D01*
X63474624Y-164345695D01*
X63413859Y-164354788D01*
X63360859Y-164381175D01*
X63313829Y-164425115D01*
X63271750Y-164488943D01*
X63235667Y-164580304D01*
X63205640Y-164714198D01*
X63184570Y-164903792D01*
X63176496Y-165164397D01*
X62986924Y-165164397D01*
X62993989Y-164927184D01*
X63013155Y-164739165D01*
X63041674Y-164592624D01*
X63086004Y-164454507D01*
X63140405Y-164344478D01*
X63204614Y-164258256D01*
X63280994Y-164194057D01*
X63370570Y-164154452D01*
X63476731Y-164140531D01*
X63556118Y-164148164D01*
G37*
G36*
X65122714Y-165924480D02*
G01*
X65122714Y-166157000D01*
X64129867Y-166157000D01*
X64134210Y-166069929D01*
X64151391Y-165986518D01*
X64199354Y-165855521D01*
X64272749Y-165720660D01*
X64367803Y-165588403D01*
X64514092Y-165417921D01*
X64676173Y-165230967D01*
X64781767Y-165092278D01*
X64845010Y-164991717D01*
X64895136Y-164882622D01*
X64922530Y-164784484D01*
X64931106Y-164694351D01*
X64922258Y-164600908D01*
X64896408Y-164519367D01*
X64852704Y-164446689D01*
X64796417Y-164391460D01*
X64729322Y-164357613D01*
X64648364Y-164345695D01*
X64562860Y-164358438D01*
X64492944Y-164394455D01*
X64435140Y-164453039D01*
X64391879Y-164530671D01*
X64364542Y-164627860D01*
X64354265Y-164750161D01*
X64164672Y-164724027D01*
X64182447Y-164583153D01*
X64213349Y-164466371D01*
X64256270Y-164369624D01*
X64311217Y-164289885D01*
X64377439Y-164226624D01*
X64454868Y-164180172D01*
X64545623Y-164150894D01*
X64652394Y-164140531D01*
X64759802Y-164151625D01*
X64850856Y-164182988D01*
X64928416Y-164232893D01*
X64994670Y-164301242D01*
X65050095Y-164386893D01*
X65089015Y-164480507D01*
X65112593Y-164583827D01*
X65120699Y-164699358D01*
X65111578Y-164818438D01*
X65083788Y-164936884D01*
X65037165Y-165051769D01*
X64961331Y-165182715D01*
X64859529Y-165320644D01*
X64677032Y-165536867D01*
X64526616Y-165710614D01*
X64463808Y-165790513D01*
X64420093Y-165858554D01*
X64386047Y-165924480D01*
X65122714Y-165924480D01*
G37*
G36*
X65320917Y-165626993D02*
G01*
X65505382Y-165594264D01*
X65534042Y-165728038D01*
X65570525Y-165824544D01*
X65613459Y-165891996D01*
X65667698Y-165942344D01*
X65729010Y-165972642D01*
X65799481Y-165983099D01*
X65882528Y-165969516D01*
X65954886Y-165929928D01*
X66019208Y-165863297D01*
X66068946Y-165777178D01*
X66098644Y-165679408D01*
X66108875Y-165566298D01*
X66099288Y-165458325D01*
X66071697Y-165366735D01*
X66025894Y-165287739D01*
X65966220Y-165227304D01*
X65896836Y-165190787D01*
X65814868Y-165178074D01*
X65759867Y-165184156D01*
X65684717Y-165205429D01*
X65705142Y-164989641D01*
X65734909Y-164992450D01*
X65811599Y-164983163D01*
X65881810Y-164955916D01*
X65946942Y-164910628D01*
X65987876Y-164864620D01*
X66016874Y-164808724D01*
X66034883Y-164740992D01*
X66041281Y-164658203D01*
X66033400Y-164571962D01*
X66010625Y-164498346D01*
X65972588Y-164434355D01*
X65923306Y-164385752D01*
X65865079Y-164356097D01*
X65795359Y-164345695D01*
X65726268Y-164356047D01*
X65667242Y-164385840D01*
X65616024Y-164435087D01*
X65575802Y-164500531D01*
X65544691Y-164588048D01*
X65523791Y-164703266D01*
X65339419Y-164659547D01*
X65362865Y-164538338D01*
X65396523Y-164435785D01*
X65439873Y-164349163D01*
X65493108Y-164276452D01*
X65555632Y-164217800D01*
X65625223Y-164175599D01*
X65703194Y-164149569D01*
X65791237Y-164140531D01*
X65871947Y-164148551D01*
X65947104Y-164172129D01*
X66017742Y-164211117D01*
X66082325Y-164264811D01*
X66134627Y-164328723D01*
X66176011Y-164403458D01*
X66206706Y-164487125D01*
X66224822Y-164572948D01*
X66230874Y-164662233D01*
X66224991Y-164746866D01*
X66207628Y-164825343D01*
X66178576Y-164899149D01*
X66139327Y-164963913D01*
X66088372Y-165020433D01*
X66023879Y-165068898D01*
X66107874Y-165107104D01*
X66175970Y-165163644D01*
X66230783Y-165238891D01*
X66270932Y-165329449D01*
X66295834Y-165435752D01*
X66304605Y-165561658D01*
X66295484Y-165688765D01*
X66268824Y-165803558D01*
X66224563Y-165908707D01*
X66161174Y-166006057D01*
X66085559Y-166085062D01*
X66001149Y-166141513D01*
X65906225Y-166176215D01*
X65798473Y-166188263D01*
X65700929Y-166177872D01*
X65614927Y-166147975D01*
X65538466Y-166099484D01*
X65470027Y-166031947D01*
X65411932Y-165948373D01*
X65368073Y-165854247D01*
X65337668Y-165747915D01*
X65320917Y-165626993D01*
G37*
D11*
G36*
X84466110Y-149782191D02*
G01*
X84916073Y-149868245D01*
X85316174Y-150006706D01*
X85673660Y-150196922D01*
X85993787Y-150441279D01*
X86259155Y-150725928D01*
X86469424Y-151052802D01*
X86625067Y-151428116D01*
X86723212Y-151859901D01*
X86757779Y-152357669D01*
X86723535Y-152851175D01*
X86626250Y-153279851D01*
X86471873Y-153653009D01*
X86263204Y-153978513D01*
X85999756Y-154262458D01*
X85682025Y-154506073D01*
X85326727Y-154695754D01*
X84928574Y-154833876D01*
X84480267Y-154919760D01*
X83972861Y-154949697D01*
X83458277Y-154919736D01*
X83005112Y-154833927D01*
X82604133Y-154696223D01*
X82247776Y-154507559D01*
X81930517Y-154265817D01*
X81666445Y-153982883D01*
X81457692Y-153659705D01*
X81303550Y-153290430D01*
X81206580Y-152867464D01*
X81172494Y-152381788D01*
X81174676Y-152347594D01*
X82370444Y-152347594D01*
X82403454Y-152780885D01*
X82494633Y-153132774D01*
X82635411Y-153417756D01*
X82821958Y-153647577D01*
X83064921Y-153842299D01*
X83333045Y-153978745D01*
X83631722Y-154061452D01*
X83968998Y-154089962D01*
X84306539Y-154061554D01*
X84604207Y-153979298D01*
X84870214Y-153843869D01*
X85110071Y-153650935D01*
X85293096Y-153423391D01*
X85432219Y-153137144D01*
X85522943Y-152779252D01*
X85555966Y-152333856D01*
X85523626Y-151892833D01*
X85435016Y-151540343D01*
X85299580Y-151260172D01*
X85122008Y-151039063D01*
X84888894Y-150853268D01*
X84623763Y-150721331D01*
X84320228Y-150640234D01*
X83968998Y-150611944D01*
X83618381Y-150640432D01*
X83313979Y-150722279D01*
X83046713Y-150855784D01*
X82810371Y-151044254D01*
X82630045Y-151268159D01*
X82492772Y-151550816D01*
X82403119Y-151905291D01*
X82370444Y-152347594D01*
X81174676Y-152347594D01*
X81204960Y-151872982D01*
X81295445Y-151447620D01*
X81435819Y-151092797D01*
X81667574Y-150728906D01*
X81971596Y-150403727D01*
X82209992Y-150214519D01*
X82457727Y-150064666D01*
X82716277Y-149950961D01*
X83081617Y-149843163D01*
X83492918Y-149775752D01*
X83957412Y-149752209D01*
X84466110Y-149782191D01*
G37*
G36*
X87673796Y-154852000D02*
G01*
X87673796Y-149830367D01*
X91621554Y-149830367D01*
X91621554Y-150670562D01*
X88836636Y-150670562D01*
X88836636Y-151882006D01*
X91240612Y-151882006D01*
X91240612Y-152722202D01*
X88836636Y-152722202D01*
X88836636Y-154852000D01*
X87673796Y-154852000D01*
G37*
G36*
X96113516Y-154852000D02*
G01*
X96113516Y-150670562D01*
X94404717Y-150670562D01*
X94404717Y-149830367D01*
X98980942Y-149830367D01*
X98980942Y-150670562D01*
X97276005Y-150670562D01*
X97276005Y-154852000D01*
X96113516Y-154852000D01*
G37*
G36*
X99736508Y-154852000D02*
G01*
X99736508Y-149830367D01*
X100899348Y-149830367D01*
X100899348Y-151803849D01*
X103177279Y-151803849D01*
X103177279Y-149830367D01*
X104340119Y-149830367D01*
X104340119Y-154852000D01*
X103177279Y-154852000D01*
X103177279Y-152644044D01*
X100899348Y-152644044D01*
X100899348Y-154852000D01*
X99736508Y-154852000D01*
G37*
G36*
X105541229Y-154852000D02*
G01*
X105541229Y-149830367D01*
X109810945Y-149830367D01*
X109810945Y-150670562D01*
X106703718Y-150670562D01*
X106703718Y-151784309D01*
X109594668Y-151784309D01*
X109594668Y-152624505D01*
X106703718Y-152624505D01*
X106703718Y-154011804D01*
X109920839Y-154011804D01*
X109920839Y-154852000D01*
X105541229Y-154852000D01*
G37*
D13*
G36*
X86480849Y-132177094D02*
G01*
X87140531Y-132247263D01*
X87697847Y-132401728D01*
X88185890Y-132661254D01*
X88604441Y-133023733D01*
X88954034Y-133499618D01*
X89123803Y-133859288D01*
X89226630Y-134248159D01*
X89261780Y-134673205D01*
X89219297Y-135132260D01*
X89093552Y-135560963D01*
X88882593Y-135967081D01*
X88599798Y-136326814D01*
X88259256Y-136619566D01*
X87854331Y-136850019D01*
X88433461Y-137078444D01*
X88896324Y-137382518D01*
X89261169Y-137762266D01*
X89532817Y-138213027D01*
X89696885Y-138713455D01*
X89753319Y-139277182D01*
X89718490Y-139727239D01*
X89613630Y-140170169D01*
X89435803Y-140610748D01*
X89194671Y-141018858D01*
X88906177Y-141361828D01*
X88568130Y-141646338D01*
X88185157Y-141865737D01*
X87737028Y-142025801D01*
X87211972Y-142122612D01*
X86533406Y-142161518D01*
X84773207Y-142191000D01*
X81364798Y-142191000D01*
X81364798Y-140510609D01*
X83387129Y-140510609D01*
X85258640Y-140510609D01*
X86254042Y-140490065D01*
X86645329Y-140448937D01*
X87057403Y-140305017D01*
X87379278Y-140046547D01*
X87532684Y-139818035D01*
X87628822Y-139537191D01*
X87663211Y-139189866D01*
X87606252Y-138762495D01*
X87444613Y-138419890D01*
X87182431Y-138149934D01*
X86812635Y-137958882D01*
X86280238Y-137861357D01*
X85019892Y-137814168D01*
X83387129Y-137814168D01*
X83387129Y-140510609D01*
X81364798Y-140510609D01*
X81364798Y-136133777D01*
X83387129Y-136133777D01*
X84712146Y-136133777D01*
X86181267Y-136099583D01*
X86656262Y-135974791D01*
X86997038Y-135742988D01*
X87159798Y-135529188D01*
X87259347Y-135273498D01*
X87294404Y-134963854D01*
X87227291Y-134536317D01*
X87037949Y-134212807D01*
X86849265Y-134051364D01*
X86600655Y-133933312D01*
X86276522Y-133862318D01*
X84548504Y-133828124D01*
X83387129Y-133828124D01*
X83387129Y-136133777D01*
X81364798Y-136133777D01*
X81364798Y-132147734D01*
X85367939Y-132147734D01*
X86480849Y-132177094D01*
G37*
G36*
X100490845Y-142191000D02*
G01*
X98290828Y-142191000D01*
X97416438Y-139924426D01*
X93413909Y-139924426D01*
X92587146Y-142191000D01*
X90442084Y-142191000D01*
X91974988Y-138244035D01*
X94035507Y-138244035D01*
X96767973Y-138244035D01*
X95388001Y-134492465D01*
X94035507Y-138244035D01*
X91974988Y-138244035D01*
X94342642Y-132147734D01*
X96480988Y-132147734D01*
X100490845Y-142191000D01*
G37*
G36*
X106425895Y-132203498D02*
G01*
X107156232Y-132339464D01*
X107717639Y-132558727D01*
X108218420Y-132865611D01*
X108666264Y-133264534D01*
X109046193Y-133732573D01*
X109365018Y-134272010D01*
X109622474Y-134891802D01*
X109796309Y-135541589D01*
X109909543Y-136325248D01*
X109950370Y-137265232D01*
X109912927Y-138089485D01*
X109807617Y-138796963D01*
X109643235Y-139402967D01*
X109346715Y-140107165D01*
X108988498Y-140693280D01*
X108570398Y-141176781D01*
X108195954Y-141482729D01*
X107727713Y-141750950D01*
X107149516Y-141978508D01*
X106422435Y-142131097D01*
X105359826Y-142191000D01*
X101555133Y-142191000D01*
X101555133Y-140510609D01*
X103576853Y-140510609D01*
X105086885Y-140510609D01*
X105874974Y-140481508D01*
X106309320Y-140414133D01*
X106766887Y-140243462D01*
X107125702Y-139994646D01*
X107313400Y-139777446D01*
X107491066Y-139461801D01*
X107655098Y-139020727D01*
X107801953Y-138280558D01*
X107860262Y-137173030D01*
X107800943Y-136071995D01*
X107655098Y-135376624D01*
X107399824Y-134803112D01*
X107081128Y-134399653D01*
X106670455Y-134109218D01*
X106145678Y-133924600D01*
X105621190Y-133858780D01*
X104485437Y-133828124D01*
X103576853Y-133828124D01*
X103576853Y-140510609D01*
X101555133Y-140510609D01*
X101555133Y-132147734D01*
X105250527Y-132147734D01*
X106425895Y-132203498D01*
G37*
D12*
G36*
X75439049Y-123866326D02*
G01*
X75585258Y-123886596D01*
X75758830Y-123941910D01*
X75894378Y-124026730D01*
X75970705Y-124103135D01*
X76037477Y-124198750D01*
X76094962Y-124316158D01*
X76136852Y-124442882D01*
X76162299Y-124578558D01*
X76170983Y-124725021D01*
X76157766Y-124912476D01*
X76119397Y-125080612D01*
X76056472Y-125233024D01*
X75967803Y-125372386D01*
X75884881Y-125458400D01*
X75776285Y-125530098D01*
X75636384Y-125586149D01*
X75458177Y-125623390D01*
X75233548Y-125637085D01*
X74591342Y-125637085D01*
X74591342Y-126871000D01*
X74260088Y-126871000D01*
X74260088Y-125288306D01*
X74591342Y-125288306D01*
X75238586Y-125288306D01*
X75404319Y-125276907D01*
X75530438Y-125246424D01*
X75624965Y-125201256D01*
X75694557Y-125143958D01*
X75767941Y-125037745D01*
X75813291Y-124904869D01*
X75829501Y-124737294D01*
X75820203Y-124613684D01*
X75793521Y-124506338D01*
X75750122Y-124412146D01*
X75691077Y-124331662D01*
X75621876Y-124272715D01*
X75540836Y-124233543D01*
X75439562Y-124215165D01*
X75231716Y-124206799D01*
X74591342Y-124206799D01*
X74591342Y-125288306D01*
X74260088Y-125288306D01*
X74260088Y-123858020D01*
X75204392Y-123858020D01*
X75439049Y-123866326D01*
G37*
G36*
X76549865Y-126871000D02*
G01*
X76549865Y-124690399D01*
X76826470Y-124690399D01*
X76826470Y-125019578D01*
X76937407Y-124815246D01*
X77022016Y-124716778D01*
X77116327Y-124661777D01*
X77219243Y-124643505D01*
X77320427Y-124655877D01*
X77425122Y-124694200D01*
X77535232Y-124761657D01*
X77429444Y-125101643D01*
X77314538Y-125040855D01*
X77203977Y-125021593D01*
X77108334Y-125039822D01*
X77022932Y-125094499D01*
X76955009Y-125180068D01*
X76908444Y-125296915D01*
X76870491Y-125500094D01*
X76857305Y-125728493D01*
X76857305Y-126871000D01*
X76549865Y-126871000D01*
G37*
G36*
X78705619Y-124661746D02*
G01*
X78862539Y-124709267D01*
X78993563Y-124787307D01*
X79075946Y-124874314D01*
X79132950Y-124983921D01*
X79171659Y-125125457D01*
X79182287Y-125238726D01*
X79187077Y-125465993D01*
X79187077Y-125958203D01*
X79193604Y-126427010D01*
X79206616Y-126609599D01*
X79235726Y-126742549D01*
X79284316Y-126871000D01*
X78963289Y-126871000D01*
X78924757Y-126748605D01*
X78901771Y-126600073D01*
X78728241Y-126753164D01*
X78573111Y-126846087D01*
X78410780Y-126899639D01*
X78234072Y-126917894D01*
X78083877Y-126905317D01*
X77960177Y-126870313D01*
X77858318Y-126815726D01*
X77774590Y-126742589D01*
X77704283Y-126648653D01*
X77654749Y-126544276D01*
X77624584Y-126427289D01*
X77614153Y-126294525D01*
X77615085Y-126285183D01*
X77942049Y-126285183D01*
X77952494Y-126378873D01*
X77983042Y-126460027D01*
X78035014Y-126531929D01*
X78101898Y-126584145D01*
X78190577Y-126618118D01*
X78307497Y-126630665D01*
X78423881Y-126619822D01*
X78528540Y-126588386D01*
X78623486Y-126537058D01*
X78708493Y-126466013D01*
X78775608Y-126381089D01*
X78826666Y-126280970D01*
X78861821Y-126139453D01*
X78876125Y-125910576D01*
X78876125Y-125774838D01*
X78686855Y-125845547D01*
X78374053Y-125915155D01*
X78199020Y-125953969D01*
X78105997Y-125989344D01*
X78035692Y-126040556D01*
X77984639Y-126109511D01*
X77952761Y-126192730D01*
X77942049Y-126285183D01*
X77615085Y-126285183D01*
X77629520Y-126140483D01*
X77674756Y-126002350D01*
X77745319Y-125882425D01*
X77833513Y-125790225D01*
X77937011Y-125720452D01*
X78054706Y-125669142D01*
X78327952Y-125613821D01*
X78674917Y-125550199D01*
X78876125Y-125487608D01*
X78877957Y-125391804D01*
X78866386Y-125245894D01*
X78836106Y-125144501D01*
X78790793Y-125075631D01*
X78706099Y-125010110D01*
X78592343Y-124967190D01*
X78440762Y-124951251D01*
X78297363Y-124963585D01*
X78193797Y-124995988D01*
X78120499Y-125043575D01*
X78061854Y-125114081D01*
X78010453Y-125219535D01*
X77967694Y-125370371D01*
X77667123Y-125321279D01*
X77702175Y-125168593D01*
X77747460Y-125043941D01*
X77801914Y-124943008D01*
X77871183Y-124857106D01*
X77960505Y-124783124D01*
X78073482Y-124721357D01*
X78259683Y-124664037D01*
X78485184Y-124643505D01*
X78705619Y-124661746D01*
G37*
G36*
X80584704Y-124663004D02*
G01*
X80740328Y-124719196D01*
X80878213Y-124811017D01*
X81001343Y-124940626D01*
X81098246Y-125096009D01*
X81169992Y-125282603D01*
X81215673Y-125506655D01*
X81232000Y-125776120D01*
X81230168Y-125874489D01*
X79877673Y-125874489D01*
X79896406Y-126052997D01*
X79931900Y-126200231D01*
X79982202Y-126321425D01*
X80046659Y-126420738D01*
X80156350Y-126525955D01*
X80281117Y-126588586D01*
X80425846Y-126610148D01*
X80535705Y-126597814D01*
X80630970Y-126562393D01*
X80714510Y-126504635D01*
X80785082Y-126425330D01*
X80848463Y-126315283D01*
X80904104Y-126167580D01*
X81221772Y-126214658D01*
X81155412Y-126425612D01*
X81062755Y-126596451D01*
X80943335Y-126733430D01*
X80838672Y-126811736D01*
X80719083Y-126869202D01*
X80581973Y-126905237D01*
X80424167Y-126917894D01*
X80228001Y-126897940D01*
X80060733Y-126841235D01*
X79917056Y-126750170D01*
X79793104Y-126623887D01*
X79694904Y-126469647D01*
X79622440Y-126285105D01*
X79576424Y-126064214D01*
X79560005Y-125799201D01*
X79574113Y-125566743D01*
X79894770Y-125566743D01*
X80907462Y-125566743D01*
X80883031Y-125389823D01*
X80843358Y-125257875D01*
X80791294Y-125161177D01*
X80711801Y-125068757D01*
X80623260Y-125004068D01*
X80523773Y-124964817D01*
X80410428Y-124951251D01*
X80274936Y-124970421D01*
X80157716Y-125026010D01*
X80054444Y-125118862D01*
X79974037Y-125240126D01*
X79920604Y-125387246D01*
X79894770Y-125566743D01*
X79574113Y-125566743D01*
X79576678Y-125524470D01*
X79623341Y-125295940D01*
X79696650Y-125105518D01*
X79795699Y-124946854D01*
X79921548Y-124814768D01*
X80063075Y-124720997D01*
X80223423Y-124663494D01*
X80407070Y-124643505D01*
X80584704Y-124663004D01*
G37*
G36*
X82790117Y-126073791D02*
G01*
X83092367Y-126120869D01*
X83056297Y-126304019D01*
X83001684Y-126460178D01*
X82929349Y-126593362D01*
X82838813Y-126706502D01*
X82732150Y-126798150D01*
X82614571Y-126863731D01*
X82483981Y-126903976D01*
X82337657Y-126917894D01*
X82155132Y-126898430D01*
X81997398Y-126842718D01*
X81859778Y-126752403D01*
X81738956Y-126625902D01*
X81644431Y-126473289D01*
X81574020Y-126287728D01*
X81528923Y-126062460D01*
X81512727Y-125788943D01*
X81524301Y-125556238D01*
X81557325Y-125351980D01*
X81609966Y-125172168D01*
X81687359Y-125008658D01*
X81785578Y-124877825D01*
X81906263Y-124775762D01*
X82042530Y-124702421D01*
X82186187Y-124658403D01*
X82339336Y-124643505D01*
X82486505Y-124655889D01*
X82614116Y-124691150D01*
X82725276Y-124747477D01*
X82822479Y-124824489D01*
X82906259Y-124922018D01*
X82974188Y-125038260D01*
X83026773Y-125175859D01*
X83063363Y-125338498D01*
X82764471Y-125393819D01*
X82726512Y-125252852D01*
X82675835Y-125144398D01*
X82613346Y-125062442D01*
X82536719Y-125001070D01*
X82450286Y-124964037D01*
X82351243Y-124951251D01*
X82238302Y-124964219D01*
X82139509Y-125001628D01*
X82052011Y-125062960D01*
X81973888Y-125150003D01*
X81915257Y-125252540D01*
X81869890Y-125386230D01*
X81839809Y-125558582D01*
X81828716Y-125778684D01*
X81839534Y-126002756D01*
X81868749Y-126176969D01*
X81912539Y-126310890D01*
X81968697Y-126412495D01*
X82044328Y-126499241D01*
X82129039Y-126560186D01*
X82224701Y-126597292D01*
X82334146Y-126610148D01*
X82450604Y-126594870D01*
X82550112Y-126550964D01*
X82636396Y-126478623D01*
X82704036Y-126381666D01*
X82755960Y-126249845D01*
X82790117Y-126073791D01*
G37*
G36*
X83357218Y-124280071D02*
G01*
X83357218Y-123858020D01*
X83664506Y-123858020D01*
X83664506Y-124280071D01*
X83357218Y-124280071D01*
G37*
G36*
X83357218Y-126871000D02*
G01*
X83357218Y-124690399D01*
X83664506Y-124690399D01*
X83664506Y-126871000D01*
X83357218Y-126871000D01*
G37*
G36*
X85089336Y-124659980D02*
G01*
X85224869Y-124707912D01*
X85347950Y-124786936D01*
X85455448Y-124894082D01*
X85544599Y-125027705D01*
X85616159Y-125191586D01*
X85665870Y-125368668D01*
X85696275Y-125558888D01*
X85706682Y-125764396D01*
X85695052Y-125984439D01*
X85661357Y-126183926D01*
X85606695Y-126365783D01*
X85528578Y-126532666D01*
X85432139Y-126668001D01*
X85316351Y-126775562D01*
X85185466Y-126855496D01*
X85052703Y-126902332D01*
X84915945Y-126917894D01*
X84768507Y-126897657D01*
X84640256Y-126838943D01*
X84527975Y-126748425D01*
X84439519Y-126639274D01*
X84439519Y-127703379D01*
X84132078Y-127703379D01*
X84132078Y-125789859D01*
X84410515Y-125789859D01*
X84421246Y-126004098D01*
X84450469Y-126173533D01*
X84494745Y-126306456D01*
X84552176Y-126409747D01*
X84655695Y-126523005D01*
X84768699Y-126588215D01*
X84895490Y-126610148D01*
X84993609Y-126597365D01*
X85083447Y-126559603D01*
X85167250Y-126495835D01*
X85246436Y-126402603D01*
X85305603Y-126295698D01*
X85351269Y-126157887D01*
X85381439Y-125981967D01*
X85392524Y-125759267D01*
X85381842Y-125547666D01*
X85352591Y-125378330D01*
X85307992Y-125243665D01*
X85249795Y-125137364D01*
X85145505Y-125019957D01*
X85033391Y-124953056D01*
X84909229Y-124930734D01*
X84816148Y-124943805D01*
X84728492Y-124982995D01*
X84644106Y-125050394D01*
X84561641Y-125150736D01*
X84499421Y-125264001D01*
X84452239Y-125404295D01*
X84421609Y-125577292D01*
X84410515Y-125789859D01*
X84132078Y-125789859D01*
X84132078Y-124690399D01*
X84412194Y-124690399D01*
X84412194Y-124973782D01*
X84520089Y-124826643D01*
X84635829Y-124726120D01*
X84721557Y-124681514D01*
X84821431Y-124653428D01*
X84938232Y-124643505D01*
X85089336Y-124659980D01*
G37*
G36*
X86078083Y-124280071D02*
G01*
X86078083Y-123858020D01*
X86385371Y-123858020D01*
X86385371Y-124280071D01*
X86078083Y-124280071D01*
G37*
G36*
X86078083Y-126871000D02*
G01*
X86078083Y-124690399D01*
X86385371Y-124690399D01*
X86385371Y-126871000D01*
X86078083Y-126871000D01*
G37*
G36*
X87772222Y-124662919D02*
G01*
X87932513Y-124718771D01*
X88074212Y-124809727D01*
X88200401Y-124937512D01*
X88300992Y-125092186D01*
X88374718Y-125275156D01*
X88421249Y-125491983D01*
X88437775Y-125749925D01*
X88424191Y-126028870D01*
X88387571Y-126245104D01*
X88332750Y-126410846D01*
X88252013Y-126559495D01*
X88150767Y-126683401D01*
X88026989Y-126784721D01*
X87889661Y-126858504D01*
X87744394Y-126902859D01*
X87589031Y-126917894D01*
X87402061Y-126898360D01*
X87239997Y-126842415D01*
X87098214Y-126751759D01*
X86973386Y-126624986D01*
X86875116Y-126471223D01*
X86802093Y-126284155D01*
X86755380Y-126056908D01*
X86738608Y-125780699D01*
X86738666Y-125779600D01*
X87054444Y-125779600D01*
X87065730Y-125990954D01*
X87096707Y-126160498D01*
X87144152Y-126295828D01*
X87206485Y-126403152D01*
X87288347Y-126494558D01*
X87378081Y-126558366D01*
X87477432Y-126596902D01*
X87589031Y-126610148D01*
X87699685Y-126596882D01*
X87798464Y-126558231D01*
X87887964Y-126494106D01*
X87969897Y-126402053D01*
X88031970Y-126294388D01*
X88079437Y-126157410D01*
X88110561Y-125984482D01*
X88121938Y-125767510D01*
X88110742Y-125564223D01*
X88079833Y-125399292D01*
X88032139Y-125265877D01*
X87968981Y-125158430D01*
X87886712Y-125066686D01*
X87797221Y-125002844D01*
X87698836Y-124964419D01*
X87589031Y-124951251D01*
X87477388Y-124964449D01*
X87378018Y-125002837D01*
X87288300Y-125066371D01*
X87206485Y-125157331D01*
X87144180Y-125264133D01*
X87096736Y-125399038D01*
X87065743Y-125568305D01*
X87054444Y-125779600D01*
X86738666Y-125779600D01*
X86751679Y-125534164D01*
X86788301Y-125327112D01*
X86845631Y-125153214D01*
X86922345Y-125007238D01*
X87018724Y-124885305D01*
X87140968Y-124780287D01*
X87275108Y-124705288D01*
X87423456Y-124659359D01*
X87589031Y-124643505D01*
X87772222Y-124662919D01*
G37*
G36*
X90440413Y-126533944D02*
G01*
X90484835Y-126871000D01*
X90252499Y-126894447D01*
X90096244Y-126876641D01*
X89992991Y-126831066D01*
X89913439Y-126756255D01*
X89863237Y-126664187D01*
X89837813Y-126532294D01*
X89825684Y-126228946D01*
X89825684Y-124977629D01*
X89600218Y-124977629D01*
X89600218Y-124690399D01*
X89825684Y-124690399D01*
X89825684Y-124150195D01*
X90131293Y-123928362D01*
X90131293Y-124690399D01*
X90440413Y-124690399D01*
X90440413Y-124977629D01*
X90131293Y-124977629D01*
X90131293Y-126254958D01*
X90136611Y-126399428D01*
X90147474Y-126458657D01*
X90168743Y-126499085D01*
X90200445Y-126530647D01*
X90241917Y-126549864D01*
X90305469Y-126557392D01*
X90440413Y-126533944D01*
G37*
G36*
X90743122Y-124280071D02*
G01*
X90743122Y-123858020D01*
X91050410Y-123858020D01*
X91050410Y-124280071D01*
X90743122Y-124280071D01*
G37*
G36*
X90743122Y-126871000D02*
G01*
X90743122Y-124690399D01*
X91050410Y-124690399D01*
X91050410Y-126871000D01*
X90743122Y-126871000D01*
G37*
G36*
X91823744Y-124940809D02*
G01*
X91930143Y-124808377D01*
X92046648Y-124717015D01*
X92175551Y-124662269D01*
X92320625Y-124643505D01*
X92483986Y-124663850D01*
X92637530Y-124724471D01*
X92774520Y-124822561D01*
X92883452Y-124951983D01*
X92968042Y-125110176D01*
X93034578Y-125305342D01*
X93075292Y-125517285D01*
X93089227Y-125747910D01*
X93072770Y-126028647D01*
X93026856Y-126261030D01*
X92955049Y-126453485D01*
X92858570Y-126612713D01*
X92734638Y-126748850D01*
X92602788Y-126842822D01*
X92460806Y-126898857D01*
X92305360Y-126917894D01*
X92151850Y-126897036D01*
X92019566Y-126836782D01*
X91903662Y-126736768D01*
X91801456Y-126591647D01*
X91801456Y-126871000D01*
X91516303Y-126871000D01*
X91516303Y-125764396D01*
X91798098Y-125764396D01*
X91810447Y-126024624D01*
X91842147Y-126205502D01*
X91886941Y-126326949D01*
X91969334Y-126455042D01*
X92060747Y-126541509D01*
X92162962Y-126592654D01*
X92279715Y-126610148D01*
X92375931Y-126597405D01*
X92464741Y-126559611D01*
X92548327Y-126495488D01*
X92628066Y-126401321D01*
X92688214Y-126293524D01*
X92734071Y-126158061D01*
X92764015Y-125988888D01*
X92774917Y-125778684D01*
X92764207Y-125561839D01*
X92735076Y-125390711D01*
X92691025Y-125256823D01*
X92634019Y-125153117D01*
X92531010Y-125038863D01*
X92418866Y-124973271D01*
X92293301Y-124951251D01*
X92197092Y-124964003D01*
X92108286Y-125001825D01*
X92024697Y-125066002D01*
X91944949Y-125160262D01*
X91884284Y-125268159D01*
X91838465Y-125401142D01*
X91808814Y-125564431D01*
X91798098Y-125764396D01*
X91516303Y-125764396D01*
X91516303Y-123858020D01*
X91823744Y-123858020D01*
X91823744Y-124940809D01*
G37*
G36*
X93463987Y-124280071D02*
G01*
X93463987Y-123858020D01*
X93771275Y-123858020D01*
X93771275Y-124280071D01*
X93463987Y-124280071D01*
G37*
G36*
X93463987Y-126871000D02*
G01*
X93463987Y-124690399D01*
X93771275Y-124690399D01*
X93771275Y-126871000D01*
X93463987Y-126871000D01*
G37*
G36*
X96399633Y-126871000D02*
G01*
X96399633Y-126550248D01*
X96306513Y-126685439D01*
X96204040Y-126787060D01*
X96091081Y-126858946D01*
X95965460Y-126902766D01*
X95824136Y-126917894D01*
X95667910Y-126899197D01*
X95524328Y-126844072D01*
X95399347Y-126757415D01*
X95317638Y-126658508D01*
X95261389Y-126537162D01*
X95222993Y-126384651D01*
X95209832Y-126259963D01*
X95204217Y-126040085D01*
X95204217Y-124690399D01*
X95511505Y-124690399D01*
X95511505Y-125899401D01*
X95517455Y-126165405D01*
X95530281Y-126289396D01*
X95557449Y-126380861D01*
X95598254Y-126456282D01*
X95653319Y-126518191D01*
X95719039Y-126563466D01*
X95795568Y-126591505D01*
X95885502Y-126601355D01*
X96019415Y-126580136D01*
X96145163Y-126516176D01*
X96219004Y-126451565D01*
X96275596Y-126374724D01*
X96316743Y-126284267D01*
X96352566Y-126120204D01*
X96367119Y-125858369D01*
X96367119Y-124690399D01*
X96674559Y-124690399D01*
X96674559Y-126871000D01*
X96399633Y-126871000D01*
G37*
G36*
X97826317Y-126533944D02*
G01*
X97870739Y-126871000D01*
X97638403Y-126894447D01*
X97482148Y-126876641D01*
X97378895Y-126831066D01*
X97299343Y-126756255D01*
X97249141Y-126664187D01*
X97223717Y-126532294D01*
X97211588Y-126228946D01*
X97211588Y-124977629D01*
X96986122Y-124977629D01*
X96986122Y-124690399D01*
X97211588Y-124690399D01*
X97211588Y-124150195D01*
X97517197Y-123928362D01*
X97517197Y-124690399D01*
X97826317Y-124690399D01*
X97826317Y-124977629D01*
X97517197Y-124977629D01*
X97517197Y-126254958D01*
X97522515Y-126399428D01*
X97533378Y-126458657D01*
X97554646Y-126499085D01*
X97586348Y-126530647D01*
X97627820Y-126549864D01*
X97691373Y-126557392D01*
X97826317Y-126533944D01*
G37*
G36*
X100561226Y-126871000D02*
G01*
X100276073Y-126871000D01*
X100276073Y-126596409D01*
X100179016Y-126737812D01*
X100064708Y-126836441D01*
X99929890Y-126896737D01*
X99768811Y-126917894D01*
X99627746Y-126901879D01*
X99495596Y-126854380D01*
X99369932Y-126774463D01*
X99258952Y-126667530D01*
X99165294Y-126535081D01*
X99088137Y-126373843D01*
X99033803Y-126198623D01*
X99000045Y-126002743D01*
X98988302Y-125782714D01*
X98988347Y-125781799D01*
X99304291Y-125781799D01*
X99315257Y-125993565D01*
X99345295Y-126162972D01*
X99391155Y-126297697D01*
X99451142Y-126404068D01*
X99558066Y-126521154D01*
X99672241Y-126587907D01*
X99797815Y-126610148D01*
X99924767Y-126588502D01*
X100037466Y-126524314D01*
X100140213Y-126413227D01*
X100197615Y-126311596D01*
X100241625Y-126182032D01*
X100270533Y-126018192D01*
X100281110Y-125812390D01*
X100270113Y-125584182D01*
X100240297Y-125405160D01*
X100195407Y-125266116D01*
X100137618Y-125159346D01*
X100059711Y-125066299D01*
X99975998Y-125002336D01*
X99884974Y-124964227D01*
X99784229Y-124951251D01*
X99655282Y-124973393D01*
X99542638Y-125038688D01*
X99441678Y-125151286D01*
X99386448Y-125253759D01*
X99343460Y-125387704D01*
X99314856Y-125560700D01*
X99304291Y-125781799D01*
X98988347Y-125781799D01*
X98998817Y-125567732D01*
X99029328Y-125371584D01*
X99078825Y-125191769D01*
X99150863Y-125025578D01*
X99241113Y-124891336D01*
X99350392Y-124784921D01*
X99475469Y-124706527D01*
X99609493Y-124659494D01*
X99755072Y-124643505D01*
X99912178Y-124665001D01*
X100047095Y-124727036D01*
X100163959Y-124823975D01*
X100255465Y-124944656D01*
X100255465Y-123858020D01*
X100561226Y-123858020D01*
X100561226Y-126871000D01*
G37*
G36*
X101045285Y-124280071D02*
G01*
X101045285Y-123858020D01*
X101352573Y-123858020D01*
X101352573Y-124280071D01*
X101045285Y-124280071D01*
G37*
G36*
X101045285Y-126871000D02*
G01*
X101045285Y-124690399D01*
X101352573Y-124690399D01*
X101352573Y-126871000D01*
X101045285Y-126871000D01*
G37*
G36*
X103003655Y-126073791D02*
G01*
X103305905Y-126120869D01*
X103269835Y-126304019D01*
X103215222Y-126460178D01*
X103142887Y-126593362D01*
X103052351Y-126706502D01*
X102945689Y-126798150D01*
X102828109Y-126863731D01*
X102697519Y-126903976D01*
X102551195Y-126917894D01*
X102368670Y-126898430D01*
X102210936Y-126842718D01*
X102073316Y-126752403D01*
X101952495Y-126625902D01*
X101857969Y-126473289D01*
X101787558Y-126287728D01*
X101742461Y-126062460D01*
X101726265Y-125788943D01*
X101737839Y-125556238D01*
X101770864Y-125351980D01*
X101823504Y-125172168D01*
X101900897Y-125008658D01*
X101999116Y-124877825D01*
X102119801Y-124775762D01*
X102256068Y-124702421D01*
X102399725Y-124658403D01*
X102552874Y-124643505D01*
X102700043Y-124655889D01*
X102827654Y-124691150D01*
X102938814Y-124747477D01*
X103036017Y-124824489D01*
X103119797Y-124922018D01*
X103187726Y-125038260D01*
X103240311Y-125175859D01*
X103276901Y-125338498D01*
X102978009Y-125393819D01*
X102940050Y-125252852D01*
X102889373Y-125144398D01*
X102826884Y-125062442D01*
X102750257Y-125001070D01*
X102663824Y-124964037D01*
X102564781Y-124951251D01*
X102451840Y-124964219D01*
X102353047Y-125001628D01*
X102265549Y-125062960D01*
X102187426Y-125150003D01*
X102128795Y-125252540D01*
X102083428Y-125386230D01*
X102053347Y-125558582D01*
X102042254Y-125778684D01*
X102053072Y-126002756D01*
X102082287Y-126176969D01*
X102126077Y-126310890D01*
X102182235Y-126412495D01*
X102257866Y-126499241D01*
X102342577Y-126560186D01*
X102438239Y-126597292D01*
X102547684Y-126610148D01*
X102664142Y-126594870D01*
X102763650Y-126550964D01*
X102849934Y-126478623D01*
X102917574Y-126381666D01*
X102969498Y-126249845D01*
X103003655Y-126073791D01*
G37*
G36*
X104556282Y-124661746D02*
G01*
X104713202Y-124709267D01*
X104844226Y-124787307D01*
X104926609Y-124874314D01*
X104983613Y-124983921D01*
X105022322Y-125125457D01*
X105032950Y-125238726D01*
X105037740Y-125465993D01*
X105037740Y-125958203D01*
X105044267Y-126427010D01*
X105057279Y-126609599D01*
X105086389Y-126742549D01*
X105134979Y-126871000D01*
X104813952Y-126871000D01*
X104775420Y-126748605D01*
X104752433Y-126600073D01*
X104578904Y-126753164D01*
X104423774Y-126846087D01*
X104261443Y-126899639D01*
X104084735Y-126917894D01*
X103934540Y-126905317D01*
X103810840Y-126870313D01*
X103708981Y-126815726D01*
X103625253Y-126742589D01*
X103554946Y-126648653D01*
X103505412Y-126544276D01*
X103475247Y-126427289D01*
X103464816Y-126294525D01*
X103465748Y-126285183D01*
X103792712Y-126285183D01*
X103803157Y-126378873D01*
X103833705Y-126460027D01*
X103885677Y-126531929D01*
X103952561Y-126584145D01*
X104041240Y-126618118D01*
X104158160Y-126630665D01*
X104274544Y-126619822D01*
X104379203Y-126588386D01*
X104474149Y-126537058D01*
X104559156Y-126466013D01*
X104626271Y-126381089D01*
X104677329Y-126280970D01*
X104712484Y-126139453D01*
X104726788Y-125910576D01*
X104726788Y-125774838D01*
X104537518Y-125845547D01*
X104224716Y-125915155D01*
X104049683Y-125953969D01*
X103956660Y-125989344D01*
X103886355Y-126040556D01*
X103835302Y-126109511D01*
X103803424Y-126192730D01*
X103792712Y-126285183D01*
X103465748Y-126285183D01*
X103480183Y-126140483D01*
X103525418Y-126002350D01*
X103595982Y-125882425D01*
X103684176Y-125790225D01*
X103787674Y-125720452D01*
X103905369Y-125669142D01*
X104178615Y-125613821D01*
X104525580Y-125550199D01*
X104726788Y-125487608D01*
X104728620Y-125391804D01*
X104717049Y-125245894D01*
X104686769Y-125144501D01*
X104641456Y-125075631D01*
X104556762Y-125010110D01*
X104443006Y-124967190D01*
X104291425Y-124951251D01*
X104148026Y-124963585D01*
X104044460Y-124995988D01*
X103971162Y-125043575D01*
X103912517Y-125114081D01*
X103861116Y-125219535D01*
X103818357Y-125370371D01*
X103517786Y-125321279D01*
X103552838Y-125168593D01*
X103598123Y-125043941D01*
X103652577Y-124943008D01*
X103721845Y-124857106D01*
X103811168Y-124783124D01*
X103924145Y-124721357D01*
X104110346Y-124664037D01*
X104335847Y-124643505D01*
X104556282Y-124661746D01*
G37*
G36*
X105390213Y-126213376D02*
G01*
X105694142Y-126155856D01*
X105722838Y-126295862D01*
X105770550Y-126406371D01*
X105836719Y-126493095D01*
X105920090Y-126555434D01*
X106026975Y-126595523D01*
X106163852Y-126610148D01*
X106302875Y-126596693D01*
X106404625Y-126560983D01*
X106478009Y-126507566D01*
X106536509Y-126432678D01*
X106569617Y-126353413D01*
X106580591Y-126266865D01*
X106570513Y-126190102D01*
X106541078Y-126126268D01*
X106490069Y-126071959D01*
X106402634Y-126025872D01*
X106175759Y-125948128D01*
X105864808Y-125843020D01*
X105706965Y-125770808D01*
X105590687Y-125680074D01*
X105508823Y-125563629D01*
X105458343Y-125424856D01*
X105441351Y-125271270D01*
X105455357Y-125130487D01*
X105496916Y-125001626D01*
X105562477Y-124887966D01*
X105648041Y-124795363D01*
X105728050Y-124739299D01*
X105843588Y-124687652D01*
X105970372Y-124654796D01*
X106109202Y-124643505D01*
X106314587Y-124663200D01*
X106483963Y-124718243D01*
X106586679Y-124777097D01*
X106664713Y-124844748D01*
X106722252Y-124920842D01*
X106784993Y-125063058D01*
X106828192Y-125262477D01*
X106527621Y-125311753D01*
X106504439Y-125204274D01*
X106464899Y-125117187D01*
X106408858Y-125046689D01*
X106339090Y-124996100D01*
X106248512Y-124963292D01*
X106131337Y-124951251D01*
X105990745Y-124962780D01*
X105893802Y-124992415D01*
X105829086Y-125034782D01*
X105777057Y-125096362D01*
X105748074Y-125160748D01*
X105738564Y-125230420D01*
X105747913Y-125298109D01*
X105776116Y-125358831D01*
X105821822Y-125410742D01*
X105893963Y-125456650D01*
X106165531Y-125550439D01*
X106466076Y-125654368D01*
X106620586Y-125721348D01*
X106736771Y-125803996D01*
X106823002Y-125914789D01*
X106862809Y-126003299D01*
X106887656Y-126107204D01*
X106896428Y-126230045D01*
X106886598Y-126349763D01*
X106857102Y-126464801D01*
X106806821Y-126577175D01*
X106739661Y-126675748D01*
X106654311Y-126759484D01*
X106548076Y-126828868D01*
X106433131Y-126877439D01*
X106306257Y-126907491D01*
X106165531Y-126917894D01*
X105985956Y-126904796D01*
X105839988Y-126868676D01*
X105721834Y-126813164D01*
X105626670Y-126740207D01*
X105544984Y-126644381D01*
X105478277Y-126527094D01*
X105426333Y-126384958D01*
X105390213Y-126213376D01*
G37*
G36*
X109052691Y-124665063D02*
G01*
X109191654Y-124727314D01*
X109313475Y-124830485D01*
X109420983Y-124979827D01*
X109420983Y-124690399D01*
X109697588Y-124690399D01*
X109697588Y-127703379D01*
X109390147Y-127703379D01*
X109390147Y-126633046D01*
X109306004Y-126743429D01*
X109189410Y-126836928D01*
X109056458Y-126897662D01*
X108915400Y-126917894D01*
X108760155Y-126898687D01*
X108617792Y-126842038D01*
X108485004Y-126746804D01*
X108359595Y-126608500D01*
X108261223Y-126446953D01*
X108188721Y-126255801D01*
X108142815Y-126029308D01*
X108127118Y-125770441D01*
X108442332Y-125770441D01*
X108453284Y-125984102D01*
X108483311Y-126155439D01*
X108529182Y-126292050D01*
X108589183Y-126400221D01*
X108668937Y-126494673D01*
X108753084Y-126559151D01*
X108843037Y-126597264D01*
X108941046Y-126610148D01*
X109064563Y-126588471D01*
X109175896Y-126523672D01*
X109279169Y-126410480D01*
X109336961Y-126307499D01*
X109381260Y-126176419D01*
X109410345Y-126010891D01*
X109420983Y-125803231D01*
X109409840Y-125582171D01*
X109379272Y-125404539D01*
X109332574Y-125262621D01*
X109271537Y-125150003D01*
X109189999Y-125050501D01*
X109105390Y-124983275D01*
X109016331Y-124943933D01*
X108920590Y-124930734D01*
X108795211Y-124952973D01*
X108683654Y-125019185D01*
X108581551Y-125134616D01*
X108525439Y-125239058D01*
X108481884Y-125374684D01*
X108452983Y-125548874D01*
X108442332Y-125770441D01*
X108127118Y-125770441D01*
X108126496Y-125760183D01*
X108137554Y-125543941D01*
X108169503Y-125348914D01*
X108221140Y-125172168D01*
X108295614Y-125009494D01*
X108386989Y-124879425D01*
X108496066Y-124777777D01*
X108620193Y-124703155D01*
X108751280Y-124658578D01*
X108891586Y-124643505D01*
X109052691Y-124665063D01*
G37*
G36*
X111366835Y-126871000D02*
G01*
X111366835Y-126550248D01*
X111273714Y-126685439D01*
X111171242Y-126787060D01*
X111058283Y-126858946D01*
X110932662Y-126902766D01*
X110791338Y-126917894D01*
X110635112Y-126899197D01*
X110491530Y-126844072D01*
X110366549Y-126757415D01*
X110284839Y-126658508D01*
X110228590Y-126537162D01*
X110190195Y-126384651D01*
X110177034Y-126259963D01*
X110171419Y-126040085D01*
X110171419Y-124690399D01*
X110478707Y-124690399D01*
X110478707Y-125899401D01*
X110484657Y-126165405D01*
X110497483Y-126289396D01*
X110524651Y-126380861D01*
X110565456Y-126456282D01*
X110620521Y-126518191D01*
X110686241Y-126563466D01*
X110762770Y-126591505D01*
X110852704Y-126601355D01*
X110986616Y-126580136D01*
X111112365Y-126516176D01*
X111186205Y-126451565D01*
X111242798Y-126374724D01*
X111283945Y-126284267D01*
X111319768Y-126120204D01*
X111334320Y-125858369D01*
X111334320Y-124690399D01*
X111641761Y-124690399D01*
X111641761Y-126871000D01*
X111366835Y-126871000D01*
G37*
G36*
X112124141Y-124280071D02*
G01*
X112124141Y-123858020D01*
X112431429Y-123858020D01*
X112431429Y-124280071D01*
X112124141Y-124280071D01*
G37*
G36*
X112124141Y-126871000D02*
G01*
X112124141Y-124690399D01*
X112431429Y-124690399D01*
X112431429Y-126871000D01*
X112124141Y-126871000D01*
G37*
G36*
X112776116Y-126213376D02*
G01*
X113080046Y-126155856D01*
X113108742Y-126295862D01*
X113156453Y-126406371D01*
X113222623Y-126493095D01*
X113305994Y-126555434D01*
X113412879Y-126595523D01*
X113549756Y-126610148D01*
X113688779Y-126596693D01*
X113790529Y-126560983D01*
X113863913Y-126507566D01*
X113922412Y-126432678D01*
X113955521Y-126353413D01*
X113966495Y-126266865D01*
X113956417Y-126190102D01*
X113926982Y-126126268D01*
X113875972Y-126071959D01*
X113788538Y-126025872D01*
X113561662Y-125948128D01*
X113250711Y-125843020D01*
X113092869Y-125770808D01*
X112976591Y-125680074D01*
X112894727Y-125563629D01*
X112844247Y-125424856D01*
X112827255Y-125271270D01*
X112841261Y-125130487D01*
X112882820Y-125001626D01*
X112948381Y-124887966D01*
X113033945Y-124795363D01*
X113113954Y-124739299D01*
X113229492Y-124687652D01*
X113356276Y-124654796D01*
X113495106Y-124643505D01*
X113700491Y-124663200D01*
X113869866Y-124718243D01*
X113972583Y-124777097D01*
X114050617Y-124844748D01*
X114108156Y-124920842D01*
X114170896Y-125063058D01*
X114214096Y-125262477D01*
X113913525Y-125311753D01*
X113890342Y-125204274D01*
X113850803Y-125117187D01*
X113794762Y-125046689D01*
X113724994Y-124996100D01*
X113634415Y-124963292D01*
X113517241Y-124951251D01*
X113376649Y-124962780D01*
X113279706Y-124992415D01*
X113214990Y-125034782D01*
X113162961Y-125096362D01*
X113133978Y-125160748D01*
X113124468Y-125230420D01*
X113133816Y-125298109D01*
X113162020Y-125358831D01*
X113207726Y-125410742D01*
X113279867Y-125456650D01*
X113551435Y-125550439D01*
X113851980Y-125654368D01*
X114006490Y-125721348D01*
X114122674Y-125803996D01*
X114208906Y-125914789D01*
X114248713Y-126003299D01*
X114273560Y-126107204D01*
X114282331Y-126230045D01*
X114272502Y-126349763D01*
X114243006Y-126464801D01*
X114192725Y-126577175D01*
X114125565Y-126675748D01*
X114040214Y-126759484D01*
X113933980Y-126828868D01*
X113819035Y-126877439D01*
X113692161Y-126907491D01*
X113551435Y-126917894D01*
X113371860Y-126904796D01*
X113225892Y-126868676D01*
X113107738Y-126813164D01*
X113012574Y-126740207D01*
X112930888Y-126644381D01*
X112864181Y-126527094D01*
X112812237Y-126384958D01*
X112776116Y-126213376D01*
G37*
G36*
X116542136Y-124663004D02*
G01*
X116697760Y-124719196D01*
X116835645Y-124811017D01*
X116958775Y-124940626D01*
X117055678Y-125096009D01*
X117127424Y-125282603D01*
X117173105Y-125506655D01*
X117189432Y-125776120D01*
X117187600Y-125874489D01*
X115835105Y-125874489D01*
X115853838Y-126052997D01*
X115889332Y-126200231D01*
X115939634Y-126321425D01*
X116004091Y-126420738D01*
X116113782Y-126525955D01*
X116238549Y-126588586D01*
X116383278Y-126610148D01*
X116493137Y-126597814D01*
X116588401Y-126562393D01*
X116671942Y-126504635D01*
X116742514Y-126425330D01*
X116805895Y-126315283D01*
X116861536Y-126167580D01*
X117179204Y-126214658D01*
X117112844Y-126425612D01*
X117020187Y-126596451D01*
X116900767Y-126733430D01*
X116796104Y-126811736D01*
X116676515Y-126869202D01*
X116539405Y-126905237D01*
X116381599Y-126917894D01*
X116185433Y-126897940D01*
X116018165Y-126841235D01*
X115874488Y-126750170D01*
X115750536Y-126623887D01*
X115652336Y-126469647D01*
X115579872Y-126285105D01*
X115533856Y-126064214D01*
X115517437Y-125799201D01*
X115531545Y-125566743D01*
X115852202Y-125566743D01*
X116864894Y-125566743D01*
X116840462Y-125389823D01*
X116800790Y-125257875D01*
X116748726Y-125161177D01*
X116669233Y-125068757D01*
X116580692Y-125004068D01*
X116481205Y-124964817D01*
X116367860Y-124951251D01*
X116232368Y-124970421D01*
X116115148Y-125026010D01*
X116011876Y-125118862D01*
X115931469Y-125240126D01*
X115878036Y-125387246D01*
X115852202Y-125566743D01*
X115531545Y-125566743D01*
X115534110Y-125524470D01*
X115580773Y-125295940D01*
X115654082Y-125105518D01*
X115753131Y-124946854D01*
X115878980Y-124814768D01*
X116020507Y-124720997D01*
X116180855Y-124663494D01*
X116364502Y-124643505D01*
X116542136Y-124663004D01*
G37*
G36*
X117441155Y-126213376D02*
G01*
X117745084Y-126155856D01*
X117773780Y-126295862D01*
X117821492Y-126406371D01*
X117887661Y-126493095D01*
X117971032Y-126555434D01*
X118077917Y-126595523D01*
X118214794Y-126610148D01*
X118353817Y-126596693D01*
X118455567Y-126560983D01*
X118528951Y-126507566D01*
X118587451Y-126432678D01*
X118620559Y-126353413D01*
X118631533Y-126266865D01*
X118621455Y-126190102D01*
X118592020Y-126126268D01*
X118541011Y-126071959D01*
X118453576Y-126025872D01*
X118226701Y-125948128D01*
X117915750Y-125843020D01*
X117757907Y-125770808D01*
X117641629Y-125680074D01*
X117559765Y-125563629D01*
X117509285Y-125424856D01*
X117492293Y-125271270D01*
X117506299Y-125130487D01*
X117547858Y-125001626D01*
X117613419Y-124887966D01*
X117698984Y-124795363D01*
X117778992Y-124739299D01*
X117894530Y-124687652D01*
X118021314Y-124654796D01*
X118160145Y-124643505D01*
X118365529Y-124663200D01*
X118534905Y-124718243D01*
X118637621Y-124777097D01*
X118715655Y-124844748D01*
X118773194Y-124920842D01*
X118835935Y-125063058D01*
X118879134Y-125262477D01*
X118578563Y-125311753D01*
X118555381Y-125204274D01*
X118515841Y-125117187D01*
X118459800Y-125046689D01*
X118390032Y-124996100D01*
X118299454Y-124963292D01*
X118182279Y-124951251D01*
X118041687Y-124962780D01*
X117944744Y-124992415D01*
X117880029Y-125034782D01*
X117827999Y-125096362D01*
X117799016Y-125160748D01*
X117789506Y-125230420D01*
X117798855Y-125298109D01*
X117827058Y-125358831D01*
X117872764Y-125410742D01*
X117944906Y-125456650D01*
X118216473Y-125550439D01*
X118517018Y-125654368D01*
X118671528Y-125721348D01*
X118787713Y-125803996D01*
X118873944Y-125914789D01*
X118913751Y-126003299D01*
X118938598Y-126107204D01*
X118947370Y-126230045D01*
X118937540Y-126349763D01*
X118908044Y-126464801D01*
X118857763Y-126577175D01*
X118790603Y-126675748D01*
X118705253Y-126759484D01*
X118599018Y-126828868D01*
X118484074Y-126877439D01*
X118357199Y-126907491D01*
X118216473Y-126917894D01*
X118036898Y-126904796D01*
X117890930Y-126868676D01*
X117772776Y-126813164D01*
X117677612Y-126740207D01*
X117595926Y-126644381D01*
X117529219Y-126527094D01*
X117477275Y-126384958D01*
X117441155Y-126213376D01*
G37*
G36*
X120956115Y-126533944D02*
G01*
X121000536Y-126871000D01*
X120768200Y-126894447D01*
X120611945Y-126876641D01*
X120508692Y-126831066D01*
X120429140Y-126756255D01*
X120378938Y-126664187D01*
X120353514Y-126532294D01*
X120341386Y-126228946D01*
X120341386Y-124977629D01*
X120115919Y-124977629D01*
X120115919Y-124690399D01*
X120341386Y-124690399D01*
X120341386Y-124150195D01*
X120646995Y-123928362D01*
X120646995Y-124690399D01*
X120956115Y-124690399D01*
X120956115Y-124977629D01*
X120646995Y-124977629D01*
X120646995Y-126254958D01*
X120652313Y-126399428D01*
X120663176Y-126458657D01*
X120684444Y-126499085D01*
X120716146Y-126530647D01*
X120757618Y-126549864D01*
X120821170Y-126557392D01*
X120956115Y-126533944D01*
G37*
G36*
X122445691Y-126871000D02*
G01*
X122445691Y-126550248D01*
X122352570Y-126685439D01*
X122250098Y-126787060D01*
X122137139Y-126858946D01*
X122011517Y-126902766D01*
X121870193Y-126917894D01*
X121713967Y-126899197D01*
X121570385Y-126844072D01*
X121445404Y-126757415D01*
X121363695Y-126658508D01*
X121307446Y-126537162D01*
X121269051Y-126384651D01*
X121255889Y-126259963D01*
X121250275Y-126040085D01*
X121250275Y-124690399D01*
X121557563Y-124690399D01*
X121557563Y-125899401D01*
X121563512Y-126165405D01*
X121576339Y-126289396D01*
X121603507Y-126380861D01*
X121644311Y-126456282D01*
X121699376Y-126518191D01*
X121765096Y-126563466D01*
X121841625Y-126591505D01*
X121931559Y-126601355D01*
X122065472Y-126580136D01*
X122191220Y-126516176D01*
X122265061Y-126451565D01*
X122321654Y-126374724D01*
X122362801Y-126284267D01*
X122398623Y-126120204D01*
X122413176Y-125858369D01*
X122413176Y-124690399D01*
X122720616Y-124690399D01*
X122720616Y-126871000D01*
X122445691Y-126871000D01*
G37*
D14*
%TO.C,REF\u002A\u002A*%
X68200690Y-153317418D02*
X68235585Y-153332669D01*
X68318877Y-153398635D01*
X68390103Y-153494018D01*
X68434153Y-153595806D01*
X68441322Y-153645987D01*
X68417285Y-153716047D01*
X68364561Y-153753117D01*
X68308031Y-153775564D01*
X68282146Y-153779700D01*
X68269542Y-153749683D01*
X68244654Y-153684361D01*
X68233735Y-153654845D01*
X68172508Y-153552748D01*
X68083861Y-153501823D01*
X67970193Y-153503389D01*
X67961774Y-153505394D01*
X67901088Y-153534167D01*
X67856474Y-153590259D01*
X67826002Y-153680563D01*
X67807744Y-153811971D01*
X67799771Y-153991374D01*
X67799023Y-154086833D01*
X67798652Y-154237313D01*
X67796223Y-154339895D01*
X67789760Y-154405072D01*
X67777288Y-154443338D01*
X67756833Y-154465185D01*
X67726419Y-154481107D01*
X67724661Y-154481909D01*
X67666091Y-154506672D01*
X67637075Y-154515791D01*
X67632616Y-154488222D01*
X67628799Y-154412020D01*
X67625899Y-154296941D01*
X67624191Y-154152741D01*
X67623851Y-154047214D01*
X67625588Y-153843013D01*
X67632382Y-153688097D01*
X67646607Y-153573424D01*
X67670638Y-153489951D01*
X67706848Y-153428636D01*
X67757612Y-153380434D01*
X67807739Y-153346793D01*
X67928275Y-153302019D01*
X68068557Y-153291921D01*
X68200690Y-153317418D01*
G36*
X68200690Y-153317418D02*
G01*
X68235585Y-153332669D01*
X68318877Y-153398635D01*
X68390103Y-153494018D01*
X68434153Y-153595806D01*
X68441322Y-153645987D01*
X68417285Y-153716047D01*
X68364561Y-153753117D01*
X68308031Y-153775564D01*
X68282146Y-153779700D01*
X68269542Y-153749683D01*
X68244654Y-153684361D01*
X68233735Y-153654845D01*
X68172508Y-153552748D01*
X68083861Y-153501823D01*
X67970193Y-153503389D01*
X67961774Y-153505394D01*
X67901088Y-153534167D01*
X67856474Y-153590259D01*
X67826002Y-153680563D01*
X67807744Y-153811971D01*
X67799771Y-153991374D01*
X67799023Y-154086833D01*
X67798652Y-154237313D01*
X67796223Y-154339895D01*
X67789760Y-154405072D01*
X67777288Y-154443338D01*
X67756833Y-154465185D01*
X67726419Y-154481107D01*
X67724661Y-154481909D01*
X67666091Y-154506672D01*
X67637075Y-154515791D01*
X67632616Y-154488222D01*
X67628799Y-154412020D01*
X67625899Y-154296941D01*
X67624191Y-154152741D01*
X67623851Y-154047214D01*
X67625588Y-153843013D01*
X67632382Y-153688097D01*
X67646607Y-153573424D01*
X67670638Y-153489951D01*
X67706848Y-153428636D01*
X67757612Y-153380434D01*
X67807739Y-153346793D01*
X67928275Y-153302019D01*
X68068557Y-153291921D01*
X68200690Y-153317418D01*
G37*
X60282429Y-153255119D02*
X60376123Y-153309314D01*
X60441264Y-153363107D01*
X60488907Y-153419466D01*
X60521728Y-153488387D01*
X60542406Y-153579868D01*
X60553620Y-153703906D01*
X60558049Y-153870498D01*
X60558563Y-153990251D01*
X60558563Y-154431059D01*
X60434483Y-154486683D01*
X60310402Y-154542307D01*
X60295805Y-154059495D01*
X60289773Y-153879179D01*
X60283445Y-153748301D01*
X60275606Y-153657911D01*
X60265037Y-153599064D01*
X60250523Y-153562813D01*
X60230848Y-153540210D01*
X60224535Y-153535317D01*
X60128888Y-153497106D01*
X60032207Y-153512227D01*
X59974655Y-153552343D01*
X59951245Y-153580770D01*
X59935039Y-153618072D01*
X59924741Y-153674623D01*
X59919049Y-153760794D01*
X59916664Y-153886958D01*
X59916264Y-154018442D01*
X59916186Y-154183399D01*
X59913361Y-154300161D01*
X59903907Y-154378910D01*
X59883940Y-154429831D01*
X59849576Y-154463106D01*
X59796932Y-154488920D01*
X59726617Y-154515744D01*
X59649820Y-154544942D01*
X59658962Y-154026746D01*
X59662643Y-153839939D01*
X59666950Y-153701890D01*
X59673123Y-153602968D01*
X59682402Y-153533545D01*
X59696027Y-153483990D01*
X59715239Y-153444673D01*
X59738402Y-153409984D01*
X59850152Y-153299170D01*
X59986513Y-153235089D01*
X60134825Y-153219739D01*
X60282429Y-153255119D01*
G36*
X60282429Y-153255119D02*
G01*
X60376123Y-153309314D01*
X60441264Y-153363107D01*
X60488907Y-153419466D01*
X60521728Y-153488387D01*
X60542406Y-153579868D01*
X60553620Y-153703906D01*
X60558049Y-153870498D01*
X60558563Y-153990251D01*
X60558563Y-154431059D01*
X60434483Y-154486683D01*
X60310402Y-154542307D01*
X60295805Y-154059495D01*
X60289773Y-153879179D01*
X60283445Y-153748301D01*
X60275606Y-153657911D01*
X60265037Y-153599064D01*
X60250523Y-153562813D01*
X60230848Y-153540210D01*
X60224535Y-153535317D01*
X60128888Y-153497106D01*
X60032207Y-153512227D01*
X59974655Y-153552343D01*
X59951245Y-153580770D01*
X59935039Y-153618072D01*
X59924741Y-153674623D01*
X59919049Y-153760794D01*
X59916664Y-153886958D01*
X59916264Y-154018442D01*
X59916186Y-154183399D01*
X59913361Y-154300161D01*
X59903907Y-154378910D01*
X59883940Y-154429831D01*
X59849576Y-154463106D01*
X59796932Y-154488920D01*
X59726617Y-154515744D01*
X59649820Y-154544942D01*
X59658962Y-154026746D01*
X59662643Y-153839939D01*
X59666950Y-153701890D01*
X59673123Y-153602968D01*
X59682402Y-153533545D01*
X59696027Y-153483990D01*
X59715239Y-153444673D01*
X59738402Y-153409984D01*
X59850152Y-153299170D01*
X59986513Y-153235089D01*
X60134825Y-153219739D01*
X60282429Y-153255119D01*
G37*
X63930943Y-153299320D02*
X64063565Y-153348259D01*
X64171010Y-153434819D01*
X64213032Y-153495752D01*
X64258843Y-153607561D01*
X64257891Y-153688406D01*
X64209808Y-153742778D01*
X64192017Y-153752024D01*
X64115204Y-153780850D01*
X64075976Y-153773465D01*
X64062689Y-153725058D01*
X64062012Y-153698320D01*
X64037686Y-153599948D01*
X63974281Y-153531134D01*
X63886154Y-153497898D01*
X63787663Y-153506261D01*
X63707602Y-153549696D01*
X63680561Y-153574472D01*
X63661394Y-153604529D01*
X63648446Y-153649965D01*
X63640064Y-153720876D01*
X63634593Y-153827360D01*
X63630378Y-153979512D01*
X63629287Y-154027687D01*
X63625307Y-154192495D01*
X63620781Y-154308488D01*
X63613995Y-154385233D01*
X63603231Y-154432293D01*
X63586773Y-154459235D01*
X63562906Y-154475623D01*
X63547626Y-154482863D01*
X63482733Y-154507620D01*
X63444534Y-154515791D01*
X63431912Y-154488503D01*
X63424208Y-154406003D01*
X63421380Y-154267341D01*
X63423386Y-154071562D01*
X63424011Y-154041365D01*
X63428421Y-153862749D01*
X63433635Y-153732323D01*
X63441055Y-153639892D01*
X63452082Y-153575258D01*
X63468117Y-153528225D01*
X63490561Y-153488596D01*
X63502302Y-153471615D01*
X63569619Y-153396480D01*
X63644910Y-153338038D01*
X63654128Y-153332936D01*
X63789133Y-153292660D01*
X63930943Y-153299320D01*
G36*
X63930943Y-153299320D02*
G01*
X64063565Y-153348259D01*
X64171010Y-153434819D01*
X64213032Y-153495752D01*
X64258843Y-153607561D01*
X64257891Y-153688406D01*
X64209808Y-153742778D01*
X64192017Y-153752024D01*
X64115204Y-153780850D01*
X64075976Y-153773465D01*
X64062689Y-153725058D01*
X64062012Y-153698320D01*
X64037686Y-153599948D01*
X63974281Y-153531134D01*
X63886154Y-153497898D01*
X63787663Y-153506261D01*
X63707602Y-153549696D01*
X63680561Y-153574472D01*
X63661394Y-153604529D01*
X63648446Y-153649965D01*
X63640064Y-153720876D01*
X63634593Y-153827360D01*
X63630378Y-153979512D01*
X63629287Y-154027687D01*
X63625307Y-154192495D01*
X63620781Y-154308488D01*
X63613995Y-154385233D01*
X63603231Y-154432293D01*
X63586773Y-154459235D01*
X63562906Y-154475623D01*
X63547626Y-154482863D01*
X63482733Y-154507620D01*
X63444534Y-154515791D01*
X63431912Y-154488503D01*
X63424208Y-154406003D01*
X63421380Y-154267341D01*
X63423386Y-154071562D01*
X63424011Y-154041365D01*
X63428421Y-153862749D01*
X63433635Y-153732323D01*
X63441055Y-153639892D01*
X63452082Y-153575258D01*
X63468117Y-153528225D01*
X63490561Y-153488596D01*
X63502302Y-153471615D01*
X63569619Y-153396480D01*
X63644910Y-153338038D01*
X63654128Y-153332936D01*
X63789133Y-153292660D01*
X63930943Y-153299320D01*
G37*
X66445124Y-153317240D02*
X66449579Y-153394053D01*
X66453071Y-153510791D01*
X66455315Y-153658221D01*
X66456035Y-153812855D01*
X66456035Y-154336127D01*
X66363645Y-154428517D01*
X66299978Y-154485447D01*
X66244089Y-154508507D01*
X66167702Y-154507047D01*
X66137380Y-154503334D01*
X66042610Y-154492526D01*
X65964222Y-154486333D01*
X65945115Y-154485761D01*
X65880699Y-154489502D01*
X65788571Y-154498894D01*
X65752850Y-154503334D01*
X65665114Y-154510201D01*
X65606153Y-154495285D01*
X65547690Y-154449235D01*
X65526585Y-154428517D01*
X65434195Y-154336127D01*
X65434195Y-153357347D01*
X65508558Y-153323466D01*
X65572590Y-153298370D01*
X65610052Y-153289584D01*
X65619657Y-153317350D01*
X65628635Y-153394930D01*
X65636386Y-153513748D01*
X65642314Y-153665228D01*
X65645173Y-153793205D01*
X65653161Y-154296825D01*
X65722848Y-154306678D01*
X65786229Y-154299789D01*
X65817286Y-154277483D01*
X65825967Y-154235779D01*
X65833378Y-154146944D01*
X65838931Y-154022234D01*
X65842036Y-153872907D01*
X65842484Y-153796061D01*
X65842931Y-153353687D01*
X65934874Y-153321635D01*
X65999949Y-153299843D01*
X66035347Y-153289681D01*
X66036368Y-153289584D01*
X66039920Y-153317209D01*
X66043823Y-153393811D01*
X66047751Y-153509979D01*
X66051376Y-153656304D01*
X66053908Y-153793205D01*
X66061897Y-154296825D01*
X66237069Y-154296825D01*
X66245107Y-153837365D01*
X66253146Y-153377905D01*
X66338543Y-153333744D01*
X66401593Y-153303419D01*
X66438910Y-153289658D01*
X66439987Y-153289584D01*
X66445124Y-153317240D01*
G36*
X66445124Y-153317240D02*
G01*
X66449579Y-153394053D01*
X66453071Y-153510791D01*
X66455315Y-153658221D01*
X66456035Y-153812855D01*
X66456035Y-154336127D01*
X66363645Y-154428517D01*
X66299978Y-154485447D01*
X66244089Y-154508507D01*
X66167702Y-154507047D01*
X66137380Y-154503334D01*
X66042610Y-154492526D01*
X65964222Y-154486333D01*
X65945115Y-154485761D01*
X65880699Y-154489502D01*
X65788571Y-154498894D01*
X65752850Y-154503334D01*
X65665114Y-154510201D01*
X65606153Y-154495285D01*
X65547690Y-154449235D01*
X65526585Y-154428517D01*
X65434195Y-154336127D01*
X65434195Y-153357347D01*
X65508558Y-153323466D01*
X65572590Y-153298370D01*
X65610052Y-153289584D01*
X65619657Y-153317350D01*
X65628635Y-153394930D01*
X65636386Y-153513748D01*
X65642314Y-153665228D01*
X65645173Y-153793205D01*
X65653161Y-154296825D01*
X65722848Y-154306678D01*
X65786229Y-154299789D01*
X65817286Y-154277483D01*
X65825967Y-154235779D01*
X65833378Y-154146944D01*
X65838931Y-154022234D01*
X65842036Y-153872907D01*
X65842484Y-153796061D01*
X65842931Y-153353687D01*
X65934874Y-153321635D01*
X65999949Y-153299843D01*
X66035347Y-153289681D01*
X66036368Y-153289584D01*
X66039920Y-153317209D01*
X66043823Y-153393811D01*
X66047751Y-153509979D01*
X66051376Y-153656304D01*
X66053908Y-153793205D01*
X66061897Y-154296825D01*
X66237069Y-154296825D01*
X66245107Y-153837365D01*
X66253146Y-153377905D01*
X66338543Y-153333744D01*
X66401593Y-153303419D01*
X66438910Y-153289658D01*
X66439987Y-153289584D01*
X66445124Y-153317240D01*
G37*
X61609598Y-153101257D02*
X61618154Y-153220588D01*
X61627981Y-153290906D01*
X61641599Y-153321579D01*
X61661527Y-153321971D01*
X61667989Y-153318310D01*
X61753940Y-153291798D01*
X61865745Y-153293346D01*
X61979414Y-153320599D01*
X62050510Y-153355855D01*
X62123405Y-153412178D01*
X62176693Y-153475919D01*
X62213275Y-153556910D01*
X62236050Y-153664986D01*
X62247919Y-153809980D01*
X62251782Y-154001726D01*
X62251851Y-154038509D01*
X62251897Y-154451688D01*
X62159954Y-154483739D01*
X62094652Y-154505544D01*
X62058824Y-154515697D01*
X62057770Y-154515791D01*
X62054242Y-154488260D01*
X62051239Y-154412323D01*
X62048990Y-154297965D01*
X62047724Y-154155169D01*
X62047529Y-154068351D01*
X62047123Y-153897173D01*
X62045032Y-153774488D01*
X62039947Y-153690400D01*
X62030560Y-153635014D01*
X62015561Y-153598432D01*
X61993642Y-153570759D01*
X61979957Y-153557432D01*
X61885949Y-153503728D01*
X61783364Y-153499707D01*
X61690290Y-153545125D01*
X61673078Y-153561523D01*
X61647832Y-153592357D01*
X61630320Y-153628931D01*
X61619142Y-153681815D01*
X61612896Y-153761577D01*
X61610182Y-153878785D01*
X61609598Y-154040391D01*
X61609598Y-154451688D01*
X61517655Y-154483739D01*
X61452353Y-154505544D01*
X61416525Y-154515697D01*
X61415471Y-154515791D01*
X61412775Y-154487848D01*
X61410345Y-154409030D01*
X61408278Y-154286853D01*
X61406671Y-154128832D01*
X61405623Y-153942483D01*
X61405231Y-153735320D01*
X61405230Y-153726106D01*
X61405230Y-152936420D01*
X61500115Y-152896397D01*
X61595000Y-152856373D01*
X61609598Y-153101257D01*
G36*
X61609598Y-153101257D02*
G01*
X61618154Y-153220588D01*
X61627981Y-153290906D01*
X61641599Y-153321579D01*
X61661527Y-153321971D01*
X61667989Y-153318310D01*
X61753940Y-153291798D01*
X61865745Y-153293346D01*
X61979414Y-153320599D01*
X62050510Y-153355855D01*
X62123405Y-153412178D01*
X62176693Y-153475919D01*
X62213275Y-153556910D01*
X62236050Y-153664986D01*
X62247919Y-153809980D01*
X62251782Y-154001726D01*
X62251851Y-154038509D01*
X62251897Y-154451688D01*
X62159954Y-154483739D01*
X62094652Y-154505544D01*
X62058824Y-154515697D01*
X62057770Y-154515791D01*
X62054242Y-154488260D01*
X62051239Y-154412323D01*
X62048990Y-154297965D01*
X62047724Y-154155169D01*
X62047529Y-154068351D01*
X62047123Y-153897173D01*
X62045032Y-153774488D01*
X62039947Y-153690400D01*
X62030560Y-153635014D01*
X62015561Y-153598432D01*
X61993642Y-153570759D01*
X61979957Y-153557432D01*
X61885949Y-153503728D01*
X61783364Y-153499707D01*
X61690290Y-153545125D01*
X61673078Y-153561523D01*
X61647832Y-153592357D01*
X61630320Y-153628931D01*
X61619142Y-153681815D01*
X61612896Y-153761577D01*
X61610182Y-153878785D01*
X61609598Y-154040391D01*
X61609598Y-154451688D01*
X61517655Y-154483739D01*
X61452353Y-154505544D01*
X61416525Y-154515697D01*
X61415471Y-154515791D01*
X61412775Y-154487848D01*
X61410345Y-154409030D01*
X61408278Y-154286853D01*
X61406671Y-154128832D01*
X61405623Y-153942483D01*
X61405231Y-153735320D01*
X61405230Y-153726106D01*
X61405230Y-152936420D01*
X61500115Y-152896397D01*
X61595000Y-152856373D01*
X61609598Y-153101257D01*
G37*
X56913221Y-153243415D02*
X57050061Y-153315368D01*
X57151051Y-153431166D01*
X57186925Y-153505613D01*
X57214839Y-153617392D01*
X57229129Y-153758627D01*
X57230484Y-153912771D01*
X57219595Y-154063279D01*
X57197153Y-154193605D01*
X57163850Y-154287203D01*
X57153615Y-154303322D01*
X57032382Y-154423649D01*
X56888387Y-154495717D01*
X56732139Y-154516808D01*
X56574148Y-154484202D01*
X56530180Y-154464653D01*
X56444556Y-154404412D01*
X56369408Y-154324535D01*
X56362306Y-154314404D01*
X56333439Y-154265581D01*
X56314357Y-154213390D01*
X56303084Y-154144685D01*
X56297645Y-154046318D01*
X56296062Y-153905144D01*
X56296035Y-153873492D01*
X56296107Y-153863419D01*
X56587989Y-153863419D01*
X56589687Y-153996656D01*
X56596372Y-154085074D01*
X56610425Y-154142185D01*
X56634229Y-154181502D01*
X56646379Y-154194641D01*
X56716236Y-154244572D01*
X56784059Y-154242295D01*
X56852635Y-154198984D01*
X56893535Y-154152746D01*
X56917758Y-154085257D01*
X56931361Y-153978833D01*
X56932294Y-153966420D01*
X56934616Y-153773547D01*
X56910350Y-153630300D01*
X56859824Y-153537560D01*
X56783368Y-153496207D01*
X56756076Y-153493952D01*
X56684411Y-153505293D01*
X56635390Y-153544584D01*
X56605418Y-153619726D01*
X56590899Y-153738622D01*
X56587989Y-153863419D01*
X56296107Y-153863419D01*
X56297122Y-153723059D01*
X56301688Y-153617949D01*
X56311688Y-153545114D01*
X56329079Y-153491508D01*
X56355816Y-153444081D01*
X56361724Y-153435264D01*
X56461032Y-153316407D01*
X56569242Y-153247408D01*
X56700981Y-153220019D01*
X56745717Y-153218681D01*
X56913221Y-153243415D01*
G36*
X56913221Y-153243415D02*
G01*
X57050061Y-153315368D01*
X57151051Y-153431166D01*
X57186925Y-153505613D01*
X57214839Y-153617392D01*
X57229129Y-153758627D01*
X57230484Y-153912771D01*
X57219595Y-154063279D01*
X57197153Y-154193605D01*
X57163850Y-154287203D01*
X57153615Y-154303322D01*
X57032382Y-154423649D01*
X56888387Y-154495717D01*
X56732139Y-154516808D01*
X56574148Y-154484202D01*
X56530180Y-154464653D01*
X56444556Y-154404412D01*
X56369408Y-154324535D01*
X56362306Y-154314404D01*
X56333439Y-154265581D01*
X56314357Y-154213390D01*
X56303084Y-154144685D01*
X56297645Y-154046318D01*
X56296062Y-153905144D01*
X56296035Y-153873492D01*
X56296107Y-153863419D01*
X56587989Y-153863419D01*
X56589687Y-153996656D01*
X56596372Y-154085074D01*
X56610425Y-154142185D01*
X56634229Y-154181502D01*
X56646379Y-154194641D01*
X56716236Y-154244572D01*
X56784059Y-154242295D01*
X56852635Y-154198984D01*
X56893535Y-154152746D01*
X56917758Y-154085257D01*
X56931361Y-153978833D01*
X56932294Y-153966420D01*
X56934616Y-153773547D01*
X56910350Y-153630300D01*
X56859824Y-153537560D01*
X56783368Y-153496207D01*
X56756076Y-153493952D01*
X56684411Y-153505293D01*
X56635390Y-153544584D01*
X56605418Y-153619726D01*
X56590899Y-153738622D01*
X56587989Y-153863419D01*
X56296107Y-153863419D01*
X56297122Y-153723059D01*
X56301688Y-153617949D01*
X56311688Y-153545114D01*
X56329079Y-153491508D01*
X56355816Y-153444081D01*
X56361724Y-153435264D01*
X56461032Y-153316407D01*
X56569242Y-153247408D01*
X56700981Y-153220019D01*
X56745717Y-153218681D01*
X56913221Y-153243415D01*
G37*
X69208439Y-153333940D02*
X69323950Y-153409434D01*
X69379664Y-153477017D01*
X69423804Y-153599655D01*
X69427309Y-153696698D01*
X69419368Y-153826456D01*
X69120115Y-153957439D01*
X68974611Y-154024358D01*
X68879537Y-154078190D01*
X68830101Y-154124816D01*
X68821511Y-154170120D01*
X68848972Y-154219982D01*
X68879253Y-154253032D01*
X68967363Y-154306033D01*
X69063196Y-154309747D01*
X69151212Y-154268441D01*
X69215869Y-154186383D01*
X69227433Y-154157408D01*
X69282825Y-154066909D01*
X69346553Y-154028340D01*
X69433966Y-153995346D01*
X69433966Y-154120434D01*
X69426238Y-154205556D01*
X69395966Y-154277338D01*
X69332518Y-154359756D01*
X69323088Y-154370466D01*
X69252513Y-154443791D01*
X69191847Y-154483142D01*
X69115950Y-154501245D01*
X69053030Y-154507174D01*
X68940487Y-154508651D01*
X68860370Y-154489935D01*
X68810390Y-154462147D01*
X68731838Y-154401041D01*
X68677463Y-154334954D01*
X68643052Y-154251841D01*
X68624388Y-154139654D01*
X68617256Y-153986346D01*
X68616687Y-153908536D01*
X68618622Y-153815253D01*
X68794899Y-153815253D01*
X68796944Y-153865296D01*
X68802039Y-153873492D01*
X68835666Y-153862358D01*
X68908030Y-153832893D01*
X69004747Y-153791001D01*
X69024973Y-153781997D01*
X69147203Y-153719842D01*
X69214547Y-153665215D01*
X69229348Y-153614049D01*
X69193947Y-153562276D01*
X69164711Y-153539400D01*
X69059216Y-153493650D01*
X68960476Y-153501208D01*
X68877812Y-153557051D01*
X68820548Y-153656153D01*
X68802188Y-153734814D01*
X68794899Y-153815253D01*
X68618622Y-153815253D01*
X68620459Y-153726751D01*
X68634359Y-153592253D01*
X68661894Y-153494316D01*
X68706572Y-153422211D01*
X68771901Y-153365213D01*
X68800383Y-153346793D01*
X68929763Y-153298822D01*
X69071412Y-153295803D01*
X69208439Y-153333940D01*
G36*
X69208439Y-153333940D02*
G01*
X69323950Y-153409434D01*
X69379664Y-153477017D01*
X69423804Y-153599655D01*
X69427309Y-153696698D01*
X69419368Y-153826456D01*
X69120115Y-153957439D01*
X68974611Y-154024358D01*
X68879537Y-154078190D01*
X68830101Y-154124816D01*
X68821511Y-154170120D01*
X68848972Y-154219982D01*
X68879253Y-154253032D01*
X68967363Y-154306033D01*
X69063196Y-154309747D01*
X69151212Y-154268441D01*
X69215869Y-154186383D01*
X69227433Y-154157408D01*
X69282825Y-154066909D01*
X69346553Y-154028340D01*
X69433966Y-153995346D01*
X69433966Y-154120434D01*
X69426238Y-154205556D01*
X69395966Y-154277338D01*
X69332518Y-154359756D01*
X69323088Y-154370466D01*
X69252513Y-154443791D01*
X69191847Y-154483142D01*
X69115950Y-154501245D01*
X69053030Y-154507174D01*
X68940487Y-154508651D01*
X68860370Y-154489935D01*
X68810390Y-154462147D01*
X68731838Y-154401041D01*
X68677463Y-154334954D01*
X68643052Y-154251841D01*
X68624388Y-154139654D01*
X68617256Y-153986346D01*
X68616687Y-153908536D01*
X68618622Y-153815253D01*
X68794899Y-153815253D01*
X68796944Y-153865296D01*
X68802039Y-153873492D01*
X68835666Y-153862358D01*
X68908030Y-153832893D01*
X69004747Y-153791001D01*
X69024973Y-153781997D01*
X69147203Y-153719842D01*
X69214547Y-153665215D01*
X69229348Y-153614049D01*
X69193947Y-153562276D01*
X69164711Y-153539400D01*
X69059216Y-153493650D01*
X68960476Y-153501208D01*
X68877812Y-153557051D01*
X68820548Y-153656153D01*
X68802188Y-153734814D01*
X68794899Y-153815253D01*
X68618622Y-153815253D01*
X68620459Y-153726751D01*
X68634359Y-153592253D01*
X68661894Y-153494316D01*
X68706572Y-153422211D01*
X68771901Y-153365213D01*
X68800383Y-153346793D01*
X68929763Y-153298822D01*
X69071412Y-153295803D01*
X69208439Y-153333940D01*
G37*
X65258914Y-153531855D02*
X65258543Y-153750061D01*
X65257108Y-153917919D01*
X65254002Y-154043470D01*
X65248622Y-154134755D01*
X65240362Y-154199815D01*
X65228616Y-154246691D01*
X65212781Y-154283424D01*
X65200790Y-154304391D01*
X65101490Y-154418094D01*
X64975588Y-154489365D01*
X64836291Y-154514938D01*
X64696805Y-154491550D01*
X64613743Y-154449519D01*
X64526545Y-154376811D01*
X64467117Y-154288012D01*
X64431261Y-154171720D01*
X64414781Y-154016535D01*
X64412447Y-153902687D01*
X64412761Y-153894506D01*
X64616724Y-153894506D01*
X64617970Y-154025057D01*
X64623678Y-154111480D01*
X64636804Y-154168018D01*
X64660306Y-154208914D01*
X64688386Y-154239762D01*
X64782688Y-154299305D01*
X64883940Y-154304392D01*
X64979636Y-154254679D01*
X64987084Y-154247943D01*
X65018874Y-154212902D01*
X65038808Y-154171211D01*
X65049600Y-154109162D01*
X65053965Y-154013044D01*
X65054655Y-153906779D01*
X65053159Y-153773280D01*
X65046964Y-153684222D01*
X65033514Y-153625693D01*
X65010251Y-153583782D01*
X64991175Y-153561523D01*
X64902563Y-153505385D01*
X64800508Y-153498635D01*
X64703095Y-153541514D01*
X64684296Y-153557432D01*
X64652293Y-153592782D01*
X64632318Y-153634902D01*
X64621593Y-153697651D01*
X64617339Y-153794887D01*
X64616724Y-153894506D01*
X64412761Y-153894506D01*
X64419504Y-153719347D01*
X64443472Y-153581595D01*
X64488548Y-153478032D01*
X64558928Y-153397256D01*
X64613743Y-153355855D01*
X64713376Y-153311128D01*
X64828855Y-153290367D01*
X64936199Y-153295925D01*
X64996264Y-153318343D01*
X65019835Y-153324723D01*
X65035477Y-153300935D01*
X65046395Y-153237188D01*
X65054655Y-153140087D01*
X65063699Y-153031941D01*
X65076261Y-152966875D01*
X65099119Y-152929668D01*
X65139051Y-152905099D01*
X65164138Y-152894219D01*
X65259023Y-152854472D01*
X65258914Y-153531855D01*
G36*
X65258914Y-153531855D02*
G01*
X65258543Y-153750061D01*
X65257108Y-153917919D01*
X65254002Y-154043470D01*
X65248622Y-154134755D01*
X65240362Y-154199815D01*
X65228616Y-154246691D01*
X65212781Y-154283424D01*
X65200790Y-154304391D01*
X65101490Y-154418094D01*
X64975588Y-154489365D01*
X64836291Y-154514938D01*
X64696805Y-154491550D01*
X64613743Y-154449519D01*
X64526545Y-154376811D01*
X64467117Y-154288012D01*
X64431261Y-154171720D01*
X64414781Y-154016535D01*
X64412447Y-153902687D01*
X64412761Y-153894506D01*
X64616724Y-153894506D01*
X64617970Y-154025057D01*
X64623678Y-154111480D01*
X64636804Y-154168018D01*
X64660306Y-154208914D01*
X64688386Y-154239762D01*
X64782688Y-154299305D01*
X64883940Y-154304392D01*
X64979636Y-154254679D01*
X64987084Y-154247943D01*
X65018874Y-154212902D01*
X65038808Y-154171211D01*
X65049600Y-154109162D01*
X65053965Y-154013044D01*
X65054655Y-153906779D01*
X65053159Y-153773280D01*
X65046964Y-153684222D01*
X65033514Y-153625693D01*
X65010251Y-153583782D01*
X64991175Y-153561523D01*
X64902563Y-153505385D01*
X64800508Y-153498635D01*
X64703095Y-153541514D01*
X64684296Y-153557432D01*
X64652293Y-153592782D01*
X64632318Y-153634902D01*
X64621593Y-153697651D01*
X64617339Y-153794887D01*
X64616724Y-153894506D01*
X64412761Y-153894506D01*
X64419504Y-153719347D01*
X64443472Y-153581595D01*
X64488548Y-153478032D01*
X64558928Y-153397256D01*
X64613743Y-153355855D01*
X64713376Y-153311128D01*
X64828855Y-153290367D01*
X64936199Y-153295925D01*
X64996264Y-153318343D01*
X65019835Y-153324723D01*
X65035477Y-153300935D01*
X65046395Y-153237188D01*
X65054655Y-153140087D01*
X65063699Y-153031941D01*
X65076261Y-152966875D01*
X65099119Y-152929668D01*
X65139051Y-152905099D01*
X65164138Y-152894219D01*
X65259023Y-152854472D01*
X65258914Y-153531855D01*
G37*
X59180552Y-153262076D02*
X59295658Y-153339511D01*
X59384611Y-153451349D01*
X59437749Y-153593665D01*
X59448497Y-153698415D01*
X59447276Y-153742126D01*
X59437056Y-153775594D01*
X59408961Y-153805579D01*
X59354116Y-153838840D01*
X59263645Y-153882138D01*
X59128672Y-153942233D01*
X59127989Y-153942534D01*
X59003751Y-153999437D01*
X58901873Y-154049965D01*
X58832767Y-154088680D01*
X58806846Y-154110140D01*
X58806839Y-154110313D01*
X58829685Y-154157044D01*
X58883109Y-154208554D01*
X58944442Y-154245661D01*
X58975515Y-154253032D01*
X59060289Y-154227538D01*
X59133293Y-154163691D01*
X59168913Y-154093494D01*
X59203180Y-154041743D01*
X59270303Y-153982809D01*
X59349208Y-153931896D01*
X59418821Y-153904209D01*
X59433377Y-153902687D01*
X59449763Y-153927721D01*
X59450750Y-153991711D01*
X59438708Y-154077993D01*
X59416007Y-154169901D01*
X59385014Y-154250769D01*
X59383448Y-154253909D01*
X59290181Y-154384134D01*
X59169304Y-154472711D01*
X59032027Y-154516186D01*
X58889560Y-154511106D01*
X58753112Y-154454016D01*
X58747045Y-154450002D01*
X58639710Y-154352726D01*
X58569132Y-154225809D01*
X58530074Y-154058926D01*
X58524832Y-154012039D01*
X58515548Y-153790729D01*
X58526678Y-153687524D01*
X58806839Y-153687524D01*
X58810479Y-153751903D01*
X58830389Y-153770691D01*
X58880026Y-153756635D01*
X58958267Y-153723409D01*
X59045726Y-153681759D01*
X59047899Y-153680656D01*
X59122030Y-153641665D01*
X59151781Y-153615644D01*
X59144445Y-153588365D01*
X59113553Y-153552521D01*
X59034960Y-153500651D01*
X58950323Y-153496839D01*
X58874403Y-153534589D01*
X58821965Y-153607401D01*
X58806839Y-153687524D01*
X58526678Y-153687524D01*
X58534644Y-153613661D01*
X58583634Y-153473229D01*
X58651836Y-153374847D01*
X58774935Y-153275430D01*
X58910528Y-153226111D01*
X59048955Y-153222968D01*
X59180552Y-153262076D01*
G36*
X59180552Y-153262076D02*
G01*
X59295658Y-153339511D01*
X59384611Y-153451349D01*
X59437749Y-153593665D01*
X59448497Y-153698415D01*
X59447276Y-153742126D01*
X59437056Y-153775594D01*
X59408961Y-153805579D01*
X59354116Y-153838840D01*
X59263645Y-153882138D01*
X59128672Y-153942233D01*
X59127989Y-153942534D01*
X59003751Y-153999437D01*
X58901873Y-154049965D01*
X58832767Y-154088680D01*
X58806846Y-154110140D01*
X58806839Y-154110313D01*
X58829685Y-154157044D01*
X58883109Y-154208554D01*
X58944442Y-154245661D01*
X58975515Y-154253032D01*
X59060289Y-154227538D01*
X59133293Y-154163691D01*
X59168913Y-154093494D01*
X59203180Y-154041743D01*
X59270303Y-153982809D01*
X59349208Y-153931896D01*
X59418821Y-153904209D01*
X59433377Y-153902687D01*
X59449763Y-153927721D01*
X59450750Y-153991711D01*
X59438708Y-154077993D01*
X59416007Y-154169901D01*
X59385014Y-154250769D01*
X59383448Y-154253909D01*
X59290181Y-154384134D01*
X59169304Y-154472711D01*
X59032027Y-154516186D01*
X58889560Y-154511106D01*
X58753112Y-154454016D01*
X58747045Y-154450002D01*
X58639710Y-154352726D01*
X58569132Y-154225809D01*
X58530074Y-154058926D01*
X58524832Y-154012039D01*
X58515548Y-153790729D01*
X58526678Y-153687524D01*
X58806839Y-153687524D01*
X58810479Y-153751903D01*
X58830389Y-153770691D01*
X58880026Y-153756635D01*
X58958267Y-153723409D01*
X59045726Y-153681759D01*
X59047899Y-153680656D01*
X59122030Y-153641665D01*
X59151781Y-153615644D01*
X59144445Y-153588365D01*
X59113553Y-153552521D01*
X59034960Y-153500651D01*
X58950323Y-153496839D01*
X58874403Y-153534589D01*
X58821965Y-153607401D01*
X58806839Y-153687524D01*
X58526678Y-153687524D01*
X58534644Y-153613661D01*
X58583634Y-153473229D01*
X58651836Y-153374847D01*
X58774935Y-153275430D01*
X58910528Y-153226111D01*
X59048955Y-153222968D01*
X59180552Y-153262076D01*
G37*
X62944944Y-153301760D02*
X63059343Y-153344242D01*
X63060652Y-153345058D01*
X63131403Y-153397130D01*
X63183636Y-153457984D01*
X63220371Y-153537287D01*
X63244634Y-153644709D01*
X63259445Y-153789917D01*
X63267829Y-153982579D01*
X63268564Y-154010028D01*
X63279120Y-154423921D01*
X63190291Y-154469856D01*
X63126018Y-154500898D01*
X63087210Y-154515606D01*
X63085415Y-154515791D01*
X63078700Y-154488650D01*
X63073365Y-154415441D01*
X63070083Y-154308481D01*
X63069368Y-154221869D01*
X63069351Y-154081562D01*
X63062937Y-153993451D01*
X63040580Y-153951425D01*
X62992732Y-153949375D01*
X62909849Y-153981190D01*
X62784713Y-154039672D01*
X62692697Y-154088245D01*
X62645371Y-154130386D01*
X62631458Y-154176316D01*
X62631437Y-154178589D01*
X62654395Y-154257711D01*
X62722370Y-154300455D01*
X62826398Y-154306646D01*
X62901330Y-154305572D01*
X62940839Y-154327153D01*
X62965478Y-154378991D01*
X62979659Y-154445032D01*
X62959223Y-154482504D01*
X62951528Y-154487867D01*
X62879083Y-154509406D01*
X62777633Y-154512455D01*
X62673157Y-154498178D01*
X62599125Y-154472088D01*
X62496772Y-154385185D01*
X62438591Y-154264216D01*
X62427069Y-154169708D01*
X62435862Y-154084462D01*
X62467680Y-154014876D01*
X62530684Y-153953072D01*
X62633031Y-153891172D01*
X62782882Y-153821297D01*
X62792012Y-153817348D01*
X62926997Y-153754988D01*
X63010294Y-153703846D01*
X63045997Y-153657888D01*
X63038203Y-153611083D01*
X62991007Y-153557398D01*
X62976894Y-153545044D01*
X62882359Y-153497141D01*
X62784406Y-153499158D01*
X62699097Y-153546124D01*
X62642496Y-153633069D01*
X62637237Y-153650134D01*
X62586023Y-153732904D01*
X62521037Y-153772772D01*
X62427069Y-153812282D01*
X62427069Y-153710058D01*
X62455653Y-153561472D01*
X62540495Y-153425184D01*
X62584645Y-153379591D01*
X62685005Y-153321074D01*
X62812635Y-153294584D01*
X62944944Y-153301760D01*
G36*
X62944944Y-153301760D02*
G01*
X63059343Y-153344242D01*
X63060652Y-153345058D01*
X63131403Y-153397130D01*
X63183636Y-153457984D01*
X63220371Y-153537287D01*
X63244634Y-153644709D01*
X63259445Y-153789917D01*
X63267829Y-153982579D01*
X63268564Y-154010028D01*
X63279120Y-154423921D01*
X63190291Y-154469856D01*
X63126018Y-154500898D01*
X63087210Y-154515606D01*
X63085415Y-154515791D01*
X63078700Y-154488650D01*
X63073365Y-154415441D01*
X63070083Y-154308481D01*
X63069368Y-154221869D01*
X63069351Y-154081562D01*
X63062937Y-153993451D01*
X63040580Y-153951425D01*
X62992732Y-153949375D01*
X62909849Y-153981190D01*
X62784713Y-154039672D01*
X62692697Y-154088245D01*
X62645371Y-154130386D01*
X62631458Y-154176316D01*
X62631437Y-154178589D01*
X62654395Y-154257711D01*
X62722370Y-154300455D01*
X62826398Y-154306646D01*
X62901330Y-154305572D01*
X62940839Y-154327153D01*
X62965478Y-154378991D01*
X62979659Y-154445032D01*
X62959223Y-154482504D01*
X62951528Y-154487867D01*
X62879083Y-154509406D01*
X62777633Y-154512455D01*
X62673157Y-154498178D01*
X62599125Y-154472088D01*
X62496772Y-154385185D01*
X62438591Y-154264216D01*
X62427069Y-154169708D01*
X62435862Y-154084462D01*
X62467680Y-154014876D01*
X62530684Y-153953072D01*
X62633031Y-153891172D01*
X62782882Y-153821297D01*
X62792012Y-153817348D01*
X62926997Y-153754988D01*
X63010294Y-153703846D01*
X63045997Y-153657888D01*
X63038203Y-153611083D01*
X62991007Y-153557398D01*
X62976894Y-153545044D01*
X62882359Y-153497141D01*
X62784406Y-153499158D01*
X62699097Y-153546124D01*
X62642496Y-153633069D01*
X62637237Y-153650134D01*
X62586023Y-153732904D01*
X62521037Y-153772772D01*
X62427069Y-153812282D01*
X62427069Y-153710058D01*
X62455653Y-153561472D01*
X62540495Y-153425184D01*
X62584645Y-153379591D01*
X62685005Y-153321074D01*
X62812635Y-153294584D01*
X62944944Y-153301760D01*
G37*
X58036900Y-153239303D02*
X58148450Y-153294922D01*
X58246908Y-153397331D01*
X58274023Y-153435264D01*
X58303562Y-153484900D01*
X58322728Y-153538812D01*
X58333693Y-153610764D01*
X58338629Y-153714522D01*
X58339713Y-153851501D01*
X58334818Y-154039215D01*
X58317804Y-154180158D01*
X58285177Y-154285308D01*
X58233442Y-154365643D01*
X58159104Y-154432141D01*
X58153642Y-154436078D01*
X58080380Y-154476353D01*
X57992160Y-154496280D01*
X57879962Y-154501193D01*
X57697567Y-154501193D01*
X57697491Y-154678257D01*
X57695793Y-154776870D01*
X57685450Y-154834714D01*
X57658422Y-154869406D01*
X57606668Y-154898564D01*
X57594239Y-154904521D01*
X57536077Y-154932439D01*
X57491044Y-154950072D01*
X57457559Y-154951594D01*
X57434038Y-154931181D01*
X57418900Y-154883007D01*
X57410563Y-154801246D01*
X57407444Y-154680072D01*
X57407960Y-154513660D01*
X57410529Y-154296185D01*
X57411332Y-154231136D01*
X57414222Y-154006902D01*
X57416812Y-153860221D01*
X57697414Y-153860221D01*
X57698991Y-153984726D01*
X57706000Y-154066187D01*
X57721858Y-154119915D01*
X57749981Y-154161223D01*
X57769075Y-154181371D01*
X57847135Y-154240321D01*
X57916247Y-154245120D01*
X57987560Y-154196438D01*
X57989368Y-154194641D01*
X58018383Y-154157018D01*
X58036033Y-154105884D01*
X58044936Y-154027138D01*
X58047709Y-153906676D01*
X58047759Y-153879988D01*
X58041058Y-153713983D01*
X58019248Y-153598905D01*
X57979765Y-153528654D01*
X57920044Y-153497129D01*
X57885528Y-153493952D01*
X57803611Y-153508860D01*
X57747421Y-153557948D01*
X57713598Y-153647762D01*
X57698780Y-153784845D01*
X57697414Y-153860221D01*
X57416812Y-153860221D01*
X57417287Y-153833352D01*
X57421247Y-153702782D01*
X57426826Y-153607487D01*
X57434746Y-153539764D01*
X57445731Y-153491907D01*
X57460501Y-153456213D01*
X57479782Y-153424978D01*
X57488049Y-153413224D01*
X57597712Y-153302197D01*
X57736365Y-153239247D01*
X57896754Y-153221697D01*
X58036900Y-153239303D01*
G36*
X58036900Y-153239303D02*
G01*
X58148450Y-153294922D01*
X58246908Y-153397331D01*
X58274023Y-153435264D01*
X58303562Y-153484900D01*
X58322728Y-153538812D01*
X58333693Y-153610764D01*
X58338629Y-153714522D01*
X58339713Y-153851501D01*
X58334818Y-154039215D01*
X58317804Y-154180158D01*
X58285177Y-154285308D01*
X58233442Y-154365643D01*
X58159104Y-154432141D01*
X58153642Y-154436078D01*
X58080380Y-154476353D01*
X57992160Y-154496280D01*
X57879962Y-154501193D01*
X57697567Y-154501193D01*
X57697491Y-154678257D01*
X57695793Y-154776870D01*
X57685450Y-154834714D01*
X57658422Y-154869406D01*
X57606668Y-154898564D01*
X57594239Y-154904521D01*
X57536077Y-154932439D01*
X57491044Y-154950072D01*
X57457559Y-154951594D01*
X57434038Y-154931181D01*
X57418900Y-154883007D01*
X57410563Y-154801246D01*
X57407444Y-154680072D01*
X57407960Y-154513660D01*
X57410529Y-154296185D01*
X57411332Y-154231136D01*
X57414222Y-154006902D01*
X57416812Y-153860221D01*
X57697414Y-153860221D01*
X57698991Y-153984726D01*
X57706000Y-154066187D01*
X57721858Y-154119915D01*
X57749981Y-154161223D01*
X57769075Y-154181371D01*
X57847135Y-154240321D01*
X57916247Y-154245120D01*
X57987560Y-154196438D01*
X57989368Y-154194641D01*
X58018383Y-154157018D01*
X58036033Y-154105884D01*
X58044936Y-154027138D01*
X58047709Y-153906676D01*
X58047759Y-153879988D01*
X58041058Y-153713983D01*
X58019248Y-153598905D01*
X57979765Y-153528654D01*
X57920044Y-153497129D01*
X57885528Y-153493952D01*
X57803611Y-153508860D01*
X57747421Y-153557948D01*
X57713598Y-153647762D01*
X57698780Y-153784845D01*
X57697414Y-153860221D01*
X57416812Y-153860221D01*
X57417287Y-153833352D01*
X57421247Y-153702782D01*
X57426826Y-153607487D01*
X57434746Y-153539764D01*
X57445731Y-153491907D01*
X57460501Y-153456213D01*
X57479782Y-153424978D01*
X57488049Y-153413224D01*
X57597712Y-153302197D01*
X57736365Y-153239247D01*
X57896754Y-153221697D01*
X58036900Y-153239303D01*
G37*
X67179406Y-153312556D02*
X67263469Y-153350793D01*
X67329450Y-153397126D01*
X67377794Y-153448932D01*
X67411172Y-153515763D01*
X67432253Y-153607169D01*
X67443707Y-153732701D01*
X67448203Y-153901908D01*
X67448678Y-154013333D01*
X67448678Y-154448027D01*
X67374316Y-154481909D01*
X67315746Y-154506672D01*
X67286730Y-154515791D01*
X67281179Y-154488657D01*
X67276775Y-154415494D01*
X67274078Y-154308663D01*
X67273506Y-154223837D01*
X67271046Y-154101287D01*
X67264412Y-154004068D01*
X67254726Y-153944534D01*
X67247032Y-153931883D01*
X67195311Y-153944802D01*
X67114117Y-153977939D01*
X67020102Y-154022861D01*
X66929917Y-154071135D01*
X66860215Y-154114328D01*
X66827648Y-154144008D01*
X66827519Y-154144329D01*
X66830320Y-154199257D01*
X66855439Y-154251692D01*
X66899541Y-154294281D01*
X66963909Y-154308526D01*
X67018921Y-154306866D01*
X67096835Y-154305645D01*
X67137732Y-154323898D01*
X67162295Y-154372126D01*
X67165392Y-154381220D01*
X67176040Y-154449998D01*
X67147565Y-154491760D01*
X67073344Y-154511663D01*
X66993168Y-154515344D01*
X66848890Y-154488058D01*
X66774203Y-154449090D01*
X66681963Y-154357548D01*
X66633043Y-154245182D01*
X66628654Y-154126451D01*
X66670001Y-154015811D01*
X66732197Y-153946480D01*
X66794294Y-153907665D01*
X66891895Y-153858525D01*
X67005632Y-153808692D01*
X67024590Y-153801077D01*
X67149521Y-153745945D01*
X67221539Y-153697354D01*
X67244700Y-153649047D01*
X67223064Y-153594770D01*
X67185920Y-153552343D01*
X67098127Y-153500102D01*
X67001530Y-153496184D01*
X66912944Y-153536441D01*
X66849186Y-153616726D01*
X66840817Y-153637440D01*
X66792096Y-153713625D01*
X66720965Y-153770185D01*
X66631207Y-153816601D01*
X66631207Y-153684984D01*
X66636490Y-153604568D01*
X66659142Y-153541186D01*
X66709367Y-153473563D01*
X66757582Y-153421476D01*
X66832554Y-153347722D01*
X66890806Y-153308102D01*
X66953372Y-153292210D01*
X67024193Y-153289584D01*
X67179406Y-153312556D01*
G36*
X67179406Y-153312556D02*
G01*
X67263469Y-153350793D01*
X67329450Y-153397126D01*
X67377794Y-153448932D01*
X67411172Y-153515763D01*
X67432253Y-153607169D01*
X67443707Y-153732701D01*
X67448203Y-153901908D01*
X67448678Y-154013333D01*
X67448678Y-154448027D01*
X67374316Y-154481909D01*
X67315746Y-154506672D01*
X67286730Y-154515791D01*
X67281179Y-154488657D01*
X67276775Y-154415494D01*
X67274078Y-154308663D01*
X67273506Y-154223837D01*
X67271046Y-154101287D01*
X67264412Y-154004068D01*
X67254726Y-153944534D01*
X67247032Y-153931883D01*
X67195311Y-153944802D01*
X67114117Y-153977939D01*
X67020102Y-154022861D01*
X66929917Y-154071135D01*
X66860215Y-154114328D01*
X66827648Y-154144008D01*
X66827519Y-154144329D01*
X66830320Y-154199257D01*
X66855439Y-154251692D01*
X66899541Y-154294281D01*
X66963909Y-154308526D01*
X67018921Y-154306866D01*
X67096835Y-154305645D01*
X67137732Y-154323898D01*
X67162295Y-154372126D01*
X67165392Y-154381220D01*
X67176040Y-154449998D01*
X67147565Y-154491760D01*
X67073344Y-154511663D01*
X66993168Y-154515344D01*
X66848890Y-154488058D01*
X66774203Y-154449090D01*
X66681963Y-154357548D01*
X66633043Y-154245182D01*
X66628654Y-154126451D01*
X66670001Y-154015811D01*
X66732197Y-153946480D01*
X66794294Y-153907665D01*
X66891895Y-153858525D01*
X67005632Y-153808692D01*
X67024590Y-153801077D01*
X67149521Y-153745945D01*
X67221539Y-153697354D01*
X67244700Y-153649047D01*
X67223064Y-153594770D01*
X67185920Y-153552343D01*
X67098127Y-153500102D01*
X67001530Y-153496184D01*
X66912944Y-153536441D01*
X66849186Y-153616726D01*
X66840817Y-153637440D01*
X66792096Y-153713625D01*
X66720965Y-153770185D01*
X66631207Y-153816601D01*
X66631207Y-153684984D01*
X66636490Y-153604568D01*
X66659142Y-153541186D01*
X66709367Y-153473563D01*
X66757582Y-153421476D01*
X66832554Y-153347722D01*
X66890806Y-153308102D01*
X66953372Y-153292210D01*
X67024193Y-153289584D01*
X67179406Y-153312556D01*
G37*
X63074014Y-143830398D02*
X63232006Y-143831263D01*
X63346347Y-143833605D01*
X63424407Y-143838162D01*
X63473554Y-143845670D01*
X63501159Y-143856866D01*
X63514592Y-143872488D01*
X63521221Y-143893273D01*
X63521865Y-143895963D01*
X63531935Y-143944513D01*
X63550575Y-144040305D01*
X63575845Y-144173143D01*
X63605807Y-144332831D01*
X63638522Y-144509174D01*
X63639664Y-144515367D01*
X63672433Y-144688182D01*
X63703093Y-144840869D01*
X63729664Y-144964271D01*
X63750167Y-145049231D01*
X63762626Y-145086590D01*
X63763220Y-145087252D01*
X63799919Y-145105495D01*
X63875586Y-145135897D01*
X63973878Y-145171893D01*
X63974425Y-145172085D01*
X64098233Y-145218622D01*
X64244196Y-145277904D01*
X64381781Y-145337509D01*
X64388293Y-145340456D01*
X64612390Y-145442165D01*
X65108619Y-145103297D01*
X65260846Y-144999992D01*
X65398741Y-144907637D01*
X65514315Y-144831484D01*
X65599579Y-144776785D01*
X65646544Y-144748793D01*
X65651004Y-144746717D01*
X65685134Y-144755960D01*
X65748881Y-144800556D01*
X65844731Y-144882609D01*
X65975169Y-145004221D01*
X66108328Y-145133605D01*
X66236694Y-145261102D01*
X66351581Y-145377446D01*
X66446073Y-145475452D01*
X66513253Y-145547936D01*
X66546206Y-145587713D01*
X66547432Y-145589761D01*
X66551074Y-145617056D01*
X66537350Y-145661634D01*
X66502869Y-145729512D01*
X66444239Y-145826711D01*
X66358070Y-145959251D01*
X66243200Y-146129876D01*
X66141254Y-146280055D01*
X66050123Y-146414750D01*
X65975073Y-146526140D01*
X65921369Y-146606405D01*
X65894280Y-146647725D01*
X65892574Y-146650530D01*
X65895882Y-146690121D01*
X65920953Y-146767069D01*
X65962798Y-146866832D01*
X65977712Y-146898691D01*
X66042786Y-147040626D01*
X66112212Y-147201673D01*
X66168609Y-147341021D01*
X66209247Y-147444444D01*
X66241526Y-147523042D01*
X66260178Y-147564120D01*
X66262497Y-147567285D01*
X66296803Y-147572528D01*
X66377669Y-147586894D01*
X66494343Y-147608337D01*
X66636075Y-147634813D01*
X66792110Y-147664277D01*
X66951698Y-147694683D01*
X67104085Y-147723988D01*
X67238521Y-147750145D01*
X67344252Y-147771110D01*
X67410526Y-147784839D01*
X67426782Y-147788720D01*
X67443573Y-147798300D01*
X67456249Y-147819936D01*
X67465378Y-147860931D01*
X67471531Y-147928589D01*
X67475280Y-148030212D01*
X67477192Y-148173103D01*
X67477840Y-148364565D01*
X67477874Y-148443045D01*
X67477874Y-149081306D01*
X67324598Y-149111560D01*
X67239322Y-149127964D01*
X67112070Y-149151909D01*
X66958315Y-149180507D01*
X66793534Y-149210867D01*
X66747989Y-149219206D01*
X66595932Y-149248770D01*
X66463468Y-149277842D01*
X66361714Y-149303729D01*
X66301788Y-149323737D01*
X66291805Y-149329701D01*
X66267293Y-149371934D01*
X66232148Y-149453770D01*
X66193173Y-149559083D01*
X66185442Y-149581768D01*
X66134360Y-149722418D01*
X66070954Y-149881114D01*
X66008904Y-150023625D01*
X66008598Y-150024286D01*
X65905267Y-150247840D01*
X66584961Y-151247632D01*
X66148621Y-151684700D01*
X66016649Y-151814781D01*
X65896279Y-151929448D01*
X65794273Y-152022581D01*
X65717391Y-152088058D01*
X65672393Y-152119757D01*
X65665938Y-152121768D01*
X65628040Y-152105929D01*
X65550708Y-152061896D01*
X65442389Y-151994890D01*
X65311532Y-151910134D01*
X65170052Y-151815216D01*
X65026461Y-151718398D01*
X64898435Y-151634151D01*
X64794105Y-151567658D01*
X64721600Y-151524102D01*
X64689158Y-151508664D01*
X64649576Y-151521728D01*
X64574519Y-151556150D01*
X64479468Y-151604780D01*
X64469392Y-151610185D01*
X64341391Y-151674380D01*
X64253618Y-151705863D01*
X64199028Y-151706198D01*
X64170575Y-151676948D01*
X64170410Y-151676538D01*
X64156188Y-151641898D01*
X64122269Y-151559669D01*
X64071284Y-151436214D01*
X64005862Y-151277898D01*
X63928634Y-151091086D01*
X63842229Y-150882142D01*
X63758551Y-150679846D01*
X63666588Y-150456600D01*
X63582150Y-150249792D01*
X63507769Y-150065762D01*
X63445974Y-149910851D01*
X63399297Y-149791396D01*
X63370268Y-149713739D01*
X63361322Y-149684756D01*
X63383756Y-149651510D01*
X63442439Y-149598523D01*
X63520689Y-149540104D01*
X63743534Y-149355352D01*
X63917718Y-149143582D01*
X64041154Y-148909256D01*
X64111754Y-148656834D01*
X64127431Y-148390777D01*
X64116036Y-148267975D01*
X64053950Y-148013193D01*
X63947023Y-147788201D01*
X63801889Y-147595217D01*
X63625178Y-147436461D01*
X63423522Y-147314150D01*
X63203554Y-147230505D01*
X62971906Y-147187744D01*
X62735209Y-147188087D01*
X62500095Y-147233752D01*
X62273196Y-147326959D01*
X62061144Y-147469927D01*
X61972636Y-147550783D01*
X61802889Y-147758407D01*
X61684699Y-147985295D01*
X61617278Y-148224833D01*
X61599840Y-148470407D01*
X61631598Y-148715403D01*
X61711765Y-148953208D01*
X61839555Y-149177207D01*
X62014180Y-149380787D01*
X62209312Y-149540104D01*
X62290591Y-149601002D01*
X62348009Y-149653415D01*
X62368678Y-149684806D01*
X62357856Y-149719039D01*
X62327077Y-149800819D01*
X62278874Y-149923807D01*
X62215778Y-150081663D01*
X62140322Y-150268049D01*
X62055038Y-150476626D01*
X61971219Y-150679896D01*
X61878745Y-150903333D01*
X61793089Y-151110384D01*
X61716882Y-151294686D01*
X61652753Y-151449875D01*
X61603332Y-151569588D01*
X61571248Y-151647461D01*
X61559359Y-151676538D01*
X61531274Y-151706077D01*
X61476949Y-151705991D01*
X61389395Y-151674726D01*
X61261619Y-151610729D01*
X61260608Y-151610185D01*
X61164402Y-151560521D01*
X61086631Y-151524345D01*
X61042777Y-151508808D01*
X61040842Y-151508664D01*
X61007829Y-151524424D01*
X60934946Y-151568250D01*
X60830322Y-151634957D01*
X60702090Y-151719364D01*
X60559948Y-151815216D01*
X60415233Y-151912267D01*
X60284804Y-151996670D01*
X60177110Y-152063201D01*
X60100598Y-152106638D01*
X60064062Y-152121768D01*
X60030418Y-152101882D01*
X59962776Y-152046303D01*
X59867893Y-151961154D01*
X59752530Y-151852553D01*
X59623445Y-151726621D01*
X59581229Y-151684549D01*
X59144739Y-151247331D01*
X59476977Y-150759740D01*
X59577946Y-150610005D01*
X59666562Y-150475620D01*
X59737854Y-150364369D01*
X59786850Y-150284039D01*
X59808578Y-150242414D01*
X59809215Y-150239453D01*
X59797760Y-150200218D01*
X59766949Y-150121295D01*
X59722116Y-150015909D01*
X59690647Y-149945354D01*
X59631808Y-149810276D01*
X59576396Y-149673809D01*
X59533436Y-149558503D01*
X59521766Y-149523377D01*
X59488611Y-149429574D01*
X59456201Y-149357094D01*
X59438399Y-149329701D01*
X59399114Y-149312936D01*
X59313374Y-149289170D01*
X59192303Y-149261097D01*
X59047027Y-149231409D01*
X58982012Y-149219206D01*
X58816913Y-149188868D01*
X58658552Y-149159493D01*
X58522404Y-149133969D01*
X58423943Y-149115185D01*
X58405402Y-149111560D01*
X58252127Y-149081306D01*
X58252127Y-148443045D01*
X58252471Y-148233170D01*
X58253884Y-148074380D01*
X58256936Y-147959373D01*
X58262197Y-147880846D01*
X58270237Y-147831496D01*
X58281627Y-147804019D01*
X58296937Y-147791113D01*
X58303218Y-147788720D01*
X58341104Y-147780233D01*
X58424805Y-147763300D01*
X58543567Y-147739966D01*
X58686639Y-147712275D01*
X58843268Y-147682273D01*
X59002703Y-147652004D01*
X59154191Y-147623515D01*
X59286981Y-147598849D01*
X59390319Y-147580051D01*
X59453455Y-147569167D01*
X59467503Y-147567285D01*
X59480230Y-147542104D01*
X59508400Y-147475022D01*
X59546748Y-147378733D01*
X59561391Y-147341021D01*
X59620452Y-147195321D01*
X59690000Y-147034351D01*
X59752288Y-146898691D01*
X59798121Y-146794961D01*
X59828613Y-146709726D01*
X59838792Y-146657526D01*
X59837169Y-146650530D01*
X59815657Y-146617502D01*
X59766535Y-146544043D01*
X59695077Y-146437977D01*
X59606555Y-146307126D01*
X59506241Y-146159312D01*
X59486406Y-146130134D01*
X59370012Y-145957263D01*
X59284452Y-145825626D01*
X59226316Y-145729161D01*
X59192192Y-145661808D01*
X59178669Y-145617506D01*
X59182336Y-145590194D01*
X59182430Y-145590020D01*
X59211293Y-145554146D01*
X59275133Y-145484791D01*
X59367031Y-145389145D01*
X59480067Y-145274399D01*
X59607321Y-145147741D01*
X59621672Y-145133605D01*
X59782043Y-144978303D01*
X59905805Y-144864270D01*
X59995445Y-144789402D01*
X60053448Y-144751596D01*
X60078996Y-144746717D01*
X60116282Y-144768003D01*
X60193657Y-144817173D01*
X60303133Y-144888975D01*
X60436720Y-144978155D01*
X60586430Y-145079463D01*
X60621382Y-145103297D01*
X61117610Y-145442165D01*
X61341707Y-145340456D01*
X61477989Y-145281183D01*
X61624276Y-145221570D01*
X61750035Y-145174040D01*
X61755575Y-145172085D01*
X61853943Y-145136077D01*
X61929771Y-145105629D01*
X61966718Y-145087305D01*
X61966780Y-145087252D01*
X61978504Y-145054129D01*
X61998432Y-144972667D01*
X62024587Y-144852025D01*
X62054990Y-144701359D01*
X62087663Y-144529828D01*
X62090336Y-144515367D01*
X62123110Y-144338635D01*
X62153198Y-144178210D01*
X62178661Y-144044288D01*
X62197559Y-143947063D01*
X62207953Y-143896732D01*
X62208135Y-143895963D01*
X62214461Y-143874553D01*
X62226761Y-143858388D01*
X62252406Y-143846731D01*
X62298765Y-143838845D01*
X62373208Y-143833993D01*
X62483105Y-143831439D01*
X62635825Y-143830445D01*
X62838738Y-143830274D01*
X62865000Y-143830274D01*
X63074014Y-143830398D01*
G36*
X63074014Y-143830398D02*
G01*
X63232006Y-143831263D01*
X63346347Y-143833605D01*
X63424407Y-143838162D01*
X63473554Y-143845670D01*
X63501159Y-143856866D01*
X63514592Y-143872488D01*
X63521221Y-143893273D01*
X63521865Y-143895963D01*
X63531935Y-143944513D01*
X63550575Y-144040305D01*
X63575845Y-144173143D01*
X63605807Y-144332831D01*
X63638522Y-144509174D01*
X63639664Y-144515367D01*
X63672433Y-144688182D01*
X63703093Y-144840869D01*
X63729664Y-144964271D01*
X63750167Y-145049231D01*
X63762626Y-145086590D01*
X63763220Y-145087252D01*
X63799919Y-145105495D01*
X63875586Y-145135897D01*
X63973878Y-145171893D01*
X63974425Y-145172085D01*
X64098233Y-145218622D01*
X64244196Y-145277904D01*
X64381781Y-145337509D01*
X64388293Y-145340456D01*
X64612390Y-145442165D01*
X65108619Y-145103297D01*
X65260846Y-144999992D01*
X65398741Y-144907637D01*
X65514315Y-144831484D01*
X65599579Y-144776785D01*
X65646544Y-144748793D01*
X65651004Y-144746717D01*
X65685134Y-144755960D01*
X65748881Y-144800556D01*
X65844731Y-144882609D01*
X65975169Y-145004221D01*
X66108328Y-145133605D01*
X66236694Y-145261102D01*
X66351581Y-145377446D01*
X66446073Y-145475452D01*
X66513253Y-145547936D01*
X66546206Y-145587713D01*
X66547432Y-145589761D01*
X66551074Y-145617056D01*
X66537350Y-145661634D01*
X66502869Y-145729512D01*
X66444239Y-145826711D01*
X66358070Y-145959251D01*
X66243200Y-146129876D01*
X66141254Y-146280055D01*
X66050123Y-146414750D01*
X65975073Y-146526140D01*
X65921369Y-146606405D01*
X65894280Y-146647725D01*
X65892574Y-146650530D01*
X65895882Y-146690121D01*
X65920953Y-146767069D01*
X65962798Y-146866832D01*
X65977712Y-146898691D01*
X66042786Y-147040626D01*
X66112212Y-147201673D01*
X66168609Y-147341021D01*
X66209247Y-147444444D01*
X66241526Y-147523042D01*
X66260178Y-147564120D01*
X66262497Y-147567285D01*
X66296803Y-147572528D01*
X66377669Y-147586894D01*
X66494343Y-147608337D01*
X66636075Y-147634813D01*
X66792110Y-147664277D01*
X66951698Y-147694683D01*
X67104085Y-147723988D01*
X67238521Y-147750145D01*
X67344252Y-147771110D01*
X67410526Y-147784839D01*
X67426782Y-147788720D01*
X67443573Y-147798300D01*
X67456249Y-147819936D01*
X67465378Y-147860931D01*
X67471531Y-147928589D01*
X67475280Y-148030212D01*
X67477192Y-148173103D01*
X67477840Y-148364565D01*
X67477874Y-148443045D01*
X67477874Y-149081306D01*
X67324598Y-149111560D01*
X67239322Y-149127964D01*
X67112070Y-149151909D01*
X66958315Y-149180507D01*
X66793534Y-149210867D01*
X66747989Y-149219206D01*
X66595932Y-149248770D01*
X66463468Y-149277842D01*
X66361714Y-149303729D01*
X66301788Y-149323737D01*
X66291805Y-149329701D01*
X66267293Y-149371934D01*
X66232148Y-149453770D01*
X66193173Y-149559083D01*
X66185442Y-149581768D01*
X66134360Y-149722418D01*
X66070954Y-149881114D01*
X66008904Y-150023625D01*
X66008598Y-150024286D01*
X65905267Y-150247840D01*
X66584961Y-151247632D01*
X66148621Y-151684700D01*
X66016649Y-151814781D01*
X65896279Y-151929448D01*
X65794273Y-152022581D01*
X65717391Y-152088058D01*
X65672393Y-152119757D01*
X65665938Y-152121768D01*
X65628040Y-152105929D01*
X65550708Y-152061896D01*
X65442389Y-151994890D01*
X65311532Y-151910134D01*
X65170052Y-151815216D01*
X65026461Y-151718398D01*
X64898435Y-151634151D01*
X64794105Y-151567658D01*
X64721600Y-151524102D01*
X64689158Y-151508664D01*
X64649576Y-151521728D01*
X64574519Y-151556150D01*
X64479468Y-151604780D01*
X64469392Y-151610185D01*
X64341391Y-151674380D01*
X64253618Y-151705863D01*
X64199028Y-151706198D01*
X64170575Y-151676948D01*
X64170410Y-151676538D01*
X64156188Y-151641898D01*
X64122269Y-151559669D01*
X64071284Y-151436214D01*
X64005862Y-151277898D01*
X63928634Y-151091086D01*
X63842229Y-150882142D01*
X63758551Y-150679846D01*
X63666588Y-150456600D01*
X63582150Y-150249792D01*
X63507769Y-150065762D01*
X63445974Y-149910851D01*
X63399297Y-149791396D01*
X63370268Y-149713739D01*
X63361322Y-149684756D01*
X63383756Y-149651510D01*
X63442439Y-149598523D01*
X63520689Y-149540104D01*
X63743534Y-149355352D01*
X63917718Y-149143582D01*
X64041154Y-148909256D01*
X64111754Y-148656834D01*
X64127431Y-148390777D01*
X64116036Y-148267975D01*
X64053950Y-148013193D01*
X63947023Y-147788201D01*
X63801889Y-147595217D01*
X63625178Y-147436461D01*
X63423522Y-147314150D01*
X63203554Y-147230505D01*
X62971906Y-147187744D01*
X62735209Y-147188087D01*
X62500095Y-147233752D01*
X62273196Y-147326959D01*
X62061144Y-147469927D01*
X61972636Y-147550783D01*
X61802889Y-147758407D01*
X61684699Y-147985295D01*
X61617278Y-148224833D01*
X61599840Y-148470407D01*
X61631598Y-148715403D01*
X61711765Y-148953208D01*
X61839555Y-149177207D01*
X62014180Y-149380787D01*
X62209312Y-149540104D01*
X62290591Y-149601002D01*
X62348009Y-149653415D01*
X62368678Y-149684806D01*
X62357856Y-149719039D01*
X62327077Y-149800819D01*
X62278874Y-149923807D01*
X62215778Y-150081663D01*
X62140322Y-150268049D01*
X62055038Y-150476626D01*
X61971219Y-150679896D01*
X61878745Y-150903333D01*
X61793089Y-151110384D01*
X61716882Y-151294686D01*
X61652753Y-151449875D01*
X61603332Y-151569588D01*
X61571248Y-151647461D01*
X61559359Y-151676538D01*
X61531274Y-151706077D01*
X61476949Y-151705991D01*
X61389395Y-151674726D01*
X61261619Y-151610729D01*
X61260608Y-151610185D01*
X61164402Y-151560521D01*
X61086631Y-151524345D01*
X61042777Y-151508808D01*
X61040842Y-151508664D01*
X61007829Y-151524424D01*
X60934946Y-151568250D01*
X60830322Y-151634957D01*
X60702090Y-151719364D01*
X60559948Y-151815216D01*
X60415233Y-151912267D01*
X60284804Y-151996670D01*
X60177110Y-152063201D01*
X60100598Y-152106638D01*
X60064062Y-152121768D01*
X60030418Y-152101882D01*
X59962776Y-152046303D01*
X59867893Y-151961154D01*
X59752530Y-151852553D01*
X59623445Y-151726621D01*
X59581229Y-151684549D01*
X59144739Y-151247331D01*
X59476977Y-150759740D01*
X59577946Y-150610005D01*
X59666562Y-150475620D01*
X59737854Y-150364369D01*
X59786850Y-150284039D01*
X59808578Y-150242414D01*
X59809215Y-150239453D01*
X59797760Y-150200218D01*
X59766949Y-150121295D01*
X59722116Y-150015909D01*
X59690647Y-149945354D01*
X59631808Y-149810276D01*
X59576396Y-149673809D01*
X59533436Y-149558503D01*
X59521766Y-149523377D01*
X59488611Y-149429574D01*
X59456201Y-149357094D01*
X59438399Y-149329701D01*
X59399114Y-149312936D01*
X59313374Y-149289170D01*
X59192303Y-149261097D01*
X59047027Y-149231409D01*
X58982012Y-149219206D01*
X58816913Y-149188868D01*
X58658552Y-149159493D01*
X58522404Y-149133969D01*
X58423943Y-149115185D01*
X58405402Y-149111560D01*
X58252127Y-149081306D01*
X58252127Y-148443045D01*
X58252471Y-148233170D01*
X58253884Y-148074380D01*
X58256936Y-147959373D01*
X58262197Y-147880846D01*
X58270237Y-147831496D01*
X58281627Y-147804019D01*
X58296937Y-147791113D01*
X58303218Y-147788720D01*
X58341104Y-147780233D01*
X58424805Y-147763300D01*
X58543567Y-147739966D01*
X58686639Y-147712275D01*
X58843268Y-147682273D01*
X59002703Y-147652004D01*
X59154191Y-147623515D01*
X59286981Y-147598849D01*
X59390319Y-147580051D01*
X59453455Y-147569167D01*
X59467503Y-147567285D01*
X59480230Y-147542104D01*
X59508400Y-147475022D01*
X59546748Y-147378733D01*
X59561391Y-147341021D01*
X59620452Y-147195321D01*
X59690000Y-147034351D01*
X59752288Y-146898691D01*
X59798121Y-146794961D01*
X59828613Y-146709726D01*
X59838792Y-146657526D01*
X59837169Y-146650530D01*
X59815657Y-146617502D01*
X59766535Y-146544043D01*
X59695077Y-146437977D01*
X59606555Y-146307126D01*
X59506241Y-146159312D01*
X59486406Y-146130134D01*
X59370012Y-145957263D01*
X59284452Y-145825626D01*
X59226316Y-145729161D01*
X59192192Y-145661808D01*
X59178669Y-145617506D01*
X59182336Y-145590194D01*
X59182430Y-145590020D01*
X59211293Y-145554146D01*
X59275133Y-145484791D01*
X59367031Y-145389145D01*
X59480067Y-145274399D01*
X59607321Y-145147741D01*
X59621672Y-145133605D01*
X59782043Y-144978303D01*
X59905805Y-144864270D01*
X59995445Y-144789402D01*
X60053448Y-144751596D01*
X60078996Y-144746717D01*
X60116282Y-144768003D01*
X60193657Y-144817173D01*
X60303133Y-144888975D01*
X60436720Y-144978155D01*
X60586430Y-145079463D01*
X60621382Y-145103297D01*
X61117610Y-145442165D01*
X61341707Y-145340456D01*
X61477989Y-145281183D01*
X61624276Y-145221570D01*
X61750035Y-145174040D01*
X61755575Y-145172085D01*
X61853943Y-145136077D01*
X61929771Y-145105629D01*
X61966718Y-145087305D01*
X61966780Y-145087252D01*
X61978504Y-145054129D01*
X61998432Y-144972667D01*
X62024587Y-144852025D01*
X62054990Y-144701359D01*
X62087663Y-144529828D01*
X62090336Y-144515367D01*
X62123110Y-144338635D01*
X62153198Y-144178210D01*
X62178661Y-144044288D01*
X62197559Y-143947063D01*
X62207953Y-143896732D01*
X62208135Y-143895963D01*
X62214461Y-143874553D01*
X62226761Y-143858388D01*
X62252406Y-143846731D01*
X62298765Y-143838845D01*
X62373208Y-143833993D01*
X62483105Y-143831439D01*
X62635825Y-143830445D01*
X62838738Y-143830274D01*
X62865000Y-143830274D01*
X63074014Y-143830398D01*
G37*
%TD*%
M02*
