%TF.GenerationSoftware,KiCad,Pcbnew,(7.0.0)*%
%TF.CreationDate,2023-06-10T10:58:39-03:00*%
%TF.ProjectId,panel,70616e65-6c2e-46b6-9963-61645f706362,rev?*%
%TF.SameCoordinates,Original*%
%TF.FileFunction,Copper,L2,Bot*%
%TF.FilePolarity,Positive*%
%FSLAX46Y46*%
G04 Gerber Fmt 4.6, Leading zero omitted, Abs format (unit mm)*
G04 Created by KiCad (PCBNEW (7.0.0)) date 2023-06-10 10:58:39*
%MOMM*%
%LPD*%
G01*
G04 APERTURE LIST*
%TA.AperFunction,ComponentPad*%
%ADD10C,6.400000*%
%TD*%
%TA.AperFunction,Conductor*%
%ADD11C,0.250000*%
%TD*%
G04 APERTURE END LIST*
D10*
%TO.P,J4,1,Pin_1*%
%TO.N,GNDREF*%
X45542200Y-165404800D03*
%TD*%
%TO.P,J3,1,Pin_1*%
%TO.N,GNDREF*%
X149682200Y-165404800D03*
%TD*%
%TO.P,J5,1,Pin_1*%
%TO.N,GNDREF*%
X45542200Y-81584800D03*
%TD*%
%TO.P,J1,1,Pin_1*%
%TO.N,GNDREF*%
X149682200Y-30865744D03*
%TD*%
%TO.P,J6,1,Pin_1*%
%TO.N,GNDREF*%
X45542200Y-30865744D03*
%TD*%
%TO.P,J2,1,Pin_1*%
%TO.N,GNDREF*%
X149682200Y-81584800D03*
%TD*%
D11*
%TO.N,GNDREF*%
X149682200Y-81584800D02*
X152882200Y-84784800D01*
X152882200Y-162204800D02*
X149682200Y-165404800D01*
X149682200Y-165404800D02*
X146482200Y-168604800D01*
X149682200Y-30865744D02*
X146482200Y-34065744D01*
X51689000Y-87731600D02*
X45542200Y-81584800D01*
X45542200Y-165404800D02*
X51689000Y-159258000D01*
X146482200Y-168604800D02*
X48742200Y-168604800D01*
X51689000Y-159258000D02*
X51689000Y-87731600D01*
X145013344Y-35534600D02*
X149682200Y-30865744D01*
X152882200Y-84784800D02*
X152882200Y-162204800D01*
X45542200Y-81584800D02*
X45542200Y-30865744D01*
X146482200Y-34065744D02*
X146482200Y-78384800D01*
X45542200Y-30865744D02*
X50211056Y-35534600D01*
X50211056Y-35534600D02*
X145013344Y-35534600D01*
X48742200Y-168604800D02*
X45542200Y-165404800D01*
X146482200Y-78384800D02*
X149682200Y-81584800D01*
%TD*%
%TA.AperFunction,Conductor*%
%TO.N,GNDREF*%
G36*
X156904756Y-25244057D02*
G01*
X156950143Y-25289444D01*
X156966756Y-25351444D01*
X156966756Y-170945000D01*
X156950143Y-171007000D01*
X156904756Y-171052387D01*
X156842756Y-171069000D01*
X38478022Y-171069000D01*
X38416016Y-171052384D01*
X38370628Y-171006988D01*
X38354022Y-170944978D01*
X38354501Y-168193406D01*
X43112505Y-168193406D01*
X43120391Y-168204669D01*
X43361884Y-168400225D01*
X43367138Y-168404042D01*
X43686933Y-168611720D01*
X43692554Y-168614966D01*
X44032316Y-168788083D01*
X44038240Y-168790720D01*
X44394244Y-168927378D01*
X44400397Y-168929377D01*
X44768737Y-169028073D01*
X44775079Y-169029421D01*
X45151708Y-169089073D01*
X45158151Y-169089750D01*
X45538956Y-169109708D01*
X45545444Y-169109708D01*
X45926248Y-169089750D01*
X45932691Y-169089073D01*
X46309320Y-169029421D01*
X46315662Y-169028073D01*
X46684002Y-168929377D01*
X46690155Y-168927378D01*
X47046159Y-168790720D01*
X47052083Y-168788083D01*
X47391845Y-168614966D01*
X47397466Y-168611720D01*
X47717261Y-168404042D01*
X47722515Y-168400225D01*
X47964006Y-168204670D01*
X47971893Y-168193406D01*
X147252505Y-168193406D01*
X147260391Y-168204669D01*
X147501884Y-168400225D01*
X147507138Y-168404042D01*
X147826933Y-168611720D01*
X147832554Y-168614966D01*
X148172316Y-168788083D01*
X148178240Y-168790720D01*
X148534244Y-168927378D01*
X148540397Y-168929377D01*
X148908737Y-169028073D01*
X148915079Y-169029421D01*
X149291708Y-169089073D01*
X149298151Y-169089750D01*
X149678956Y-169109708D01*
X149685444Y-169109708D01*
X150066248Y-169089750D01*
X150072691Y-169089073D01*
X150449320Y-169029421D01*
X150455662Y-169028073D01*
X150824002Y-168929377D01*
X150830155Y-168927378D01*
X151186159Y-168790720D01*
X151192083Y-168788083D01*
X151531845Y-168614966D01*
X151537466Y-168611720D01*
X151857261Y-168404042D01*
X151862515Y-168400225D01*
X152104006Y-168204670D01*
X152111893Y-168193406D01*
X152105227Y-168181380D01*
X149693742Y-165769895D01*
X149682200Y-165763231D01*
X149670657Y-165769895D01*
X147259171Y-168181380D01*
X147252505Y-168193406D01*
X47971893Y-168193406D01*
X47965227Y-168181380D01*
X45553742Y-165769895D01*
X45542200Y-165763231D01*
X45530657Y-165769895D01*
X43119171Y-168181380D01*
X43112505Y-168193406D01*
X38354501Y-168193406D01*
X38354986Y-165408044D01*
X41837292Y-165408044D01*
X41857249Y-165788848D01*
X41857926Y-165795291D01*
X41917578Y-166171920D01*
X41918926Y-166178262D01*
X42017622Y-166546602D01*
X42019621Y-166552755D01*
X42156279Y-166908759D01*
X42158916Y-166914683D01*
X42332033Y-167254445D01*
X42335279Y-167260066D01*
X42542957Y-167579861D01*
X42546774Y-167585115D01*
X42742329Y-167826607D01*
X42753592Y-167834493D01*
X42765618Y-167827827D01*
X45177104Y-165416342D01*
X45183768Y-165404800D01*
X45900631Y-165404800D01*
X45907295Y-165416342D01*
X48318780Y-167827827D01*
X48330806Y-167834493D01*
X48342070Y-167826606D01*
X48537625Y-167585115D01*
X48541442Y-167579861D01*
X48749120Y-167260066D01*
X48752366Y-167254445D01*
X48925483Y-166914683D01*
X48928120Y-166908759D01*
X49064778Y-166552755D01*
X49066777Y-166546602D01*
X49165473Y-166178262D01*
X49166821Y-166171920D01*
X49226473Y-165795291D01*
X49227150Y-165788848D01*
X49240622Y-165531800D01*
X125932659Y-165531800D01*
X125932700Y-165531899D01*
X125932817Y-165532183D01*
X125933200Y-165532341D01*
X125933299Y-165532300D01*
X139903101Y-165532300D01*
X139903200Y-165532341D01*
X139903583Y-165532183D01*
X139903700Y-165531899D01*
X139903741Y-165531800D01*
X139903700Y-165531701D01*
X139903700Y-165408044D01*
X145977292Y-165408044D01*
X145997249Y-165788848D01*
X145997926Y-165795291D01*
X146057578Y-166171920D01*
X146058926Y-166178262D01*
X146157622Y-166546602D01*
X146159621Y-166552755D01*
X146296279Y-166908759D01*
X146298916Y-166914683D01*
X146472033Y-167254445D01*
X146475279Y-167260066D01*
X146682957Y-167579861D01*
X146686774Y-167585115D01*
X146882329Y-167826607D01*
X146893592Y-167834493D01*
X146905618Y-167827827D01*
X149317104Y-165416342D01*
X149323768Y-165404800D01*
X150040631Y-165404800D01*
X150047295Y-165416342D01*
X152458780Y-167827827D01*
X152470806Y-167834493D01*
X152482070Y-167826606D01*
X152677625Y-167585115D01*
X152681442Y-167579861D01*
X152889120Y-167260066D01*
X152892366Y-167254445D01*
X153065483Y-166914683D01*
X153068120Y-166908759D01*
X153204778Y-166552755D01*
X153206777Y-166546602D01*
X153305473Y-166178262D01*
X153306821Y-166171920D01*
X153366473Y-165795291D01*
X153367150Y-165788848D01*
X153387108Y-165408044D01*
X153387108Y-165401556D01*
X153367150Y-165020751D01*
X153366473Y-165014308D01*
X153306821Y-164637679D01*
X153305473Y-164631337D01*
X153206777Y-164262997D01*
X153204778Y-164256844D01*
X153068120Y-163900840D01*
X153065483Y-163894916D01*
X152892366Y-163555154D01*
X152889120Y-163549533D01*
X152681442Y-163229738D01*
X152677625Y-163224484D01*
X152482069Y-162982991D01*
X152470806Y-162975105D01*
X152458780Y-162981771D01*
X150047295Y-165393257D01*
X150040631Y-165404800D01*
X149323768Y-165404800D01*
X149317104Y-165393257D01*
X146905618Y-162981771D01*
X146893593Y-162975105D01*
X146882327Y-162982994D01*
X146686778Y-163224478D01*
X146682956Y-163229739D01*
X146475279Y-163549533D01*
X146472033Y-163555154D01*
X146298916Y-163894916D01*
X146296279Y-163900840D01*
X146159621Y-164256844D01*
X146157622Y-164262997D01*
X146058926Y-164631337D01*
X146057578Y-164637679D01*
X145997926Y-165014308D01*
X145997249Y-165020751D01*
X145977292Y-165401556D01*
X145977292Y-165408044D01*
X139903700Y-165408044D01*
X139903700Y-162616193D01*
X147252505Y-162616193D01*
X147259171Y-162628218D01*
X149670657Y-165039704D01*
X149682200Y-165046368D01*
X149693742Y-165039704D01*
X152105227Y-162628218D01*
X152111893Y-162616192D01*
X152104007Y-162604929D01*
X151862515Y-162409374D01*
X151857261Y-162405557D01*
X151537466Y-162197879D01*
X151531845Y-162194633D01*
X151192083Y-162021516D01*
X151186159Y-162018879D01*
X150830155Y-161882221D01*
X150824002Y-161880222D01*
X150455662Y-161781526D01*
X150449320Y-161780178D01*
X150072691Y-161720526D01*
X150066248Y-161719849D01*
X149685444Y-161699892D01*
X149678956Y-161699892D01*
X149298151Y-161719849D01*
X149291708Y-161720526D01*
X148915079Y-161780178D01*
X148908737Y-161781526D01*
X148540397Y-161880222D01*
X148534244Y-161882221D01*
X148178240Y-162018879D01*
X148172316Y-162021516D01*
X147832554Y-162194633D01*
X147826933Y-162197879D01*
X147507139Y-162405556D01*
X147501878Y-162409378D01*
X147260394Y-162604927D01*
X147252505Y-162616193D01*
X139903700Y-162616193D01*
X139903700Y-151561899D01*
X139903741Y-151561800D01*
X139903583Y-151561417D01*
X139903299Y-151561300D01*
X139903200Y-151561259D01*
X139903101Y-151561300D01*
X125933299Y-151561300D01*
X125933200Y-151561259D01*
X125933101Y-151561300D01*
X125932817Y-151561417D01*
X125932659Y-151561800D01*
X125932700Y-151561899D01*
X125932700Y-165531701D01*
X125932659Y-165531800D01*
X49240622Y-165531800D01*
X49247108Y-165408044D01*
X49247108Y-165401556D01*
X49227150Y-165020751D01*
X49226473Y-165014308D01*
X49166821Y-164637679D01*
X49165473Y-164631337D01*
X49066777Y-164262997D01*
X49064778Y-164256844D01*
X48928120Y-163900840D01*
X48925483Y-163894916D01*
X48752366Y-163555154D01*
X48749120Y-163549533D01*
X48541442Y-163229738D01*
X48537625Y-163224484D01*
X48342069Y-162982991D01*
X48330806Y-162975105D01*
X48318780Y-162981771D01*
X45907295Y-165393257D01*
X45900631Y-165404800D01*
X45183768Y-165404800D01*
X45177104Y-165393257D01*
X42765618Y-162981771D01*
X42753593Y-162975105D01*
X42742327Y-162982994D01*
X42546778Y-163224478D01*
X42542956Y-163229739D01*
X42335279Y-163549533D01*
X42332033Y-163555154D01*
X42158916Y-163894916D01*
X42156279Y-163900840D01*
X42019621Y-164256844D01*
X42017622Y-164262997D01*
X41918926Y-164631337D01*
X41917578Y-164637679D01*
X41857926Y-165014308D01*
X41857249Y-165020751D01*
X41837292Y-165401556D01*
X41837292Y-165408044D01*
X38354986Y-165408044D01*
X38355472Y-162616193D01*
X43112505Y-162616193D01*
X43119171Y-162628218D01*
X45530657Y-165039704D01*
X45542200Y-165046368D01*
X45553742Y-165039704D01*
X47965227Y-162628218D01*
X47971893Y-162616192D01*
X47964007Y-162604929D01*
X47722515Y-162409374D01*
X47717261Y-162405557D01*
X47397466Y-162197879D01*
X47391845Y-162194633D01*
X47052083Y-162021516D01*
X47046159Y-162018879D01*
X46690155Y-161882221D01*
X46684002Y-161880222D01*
X46315662Y-161781526D01*
X46309320Y-161780178D01*
X45932691Y-161720526D01*
X45926248Y-161719849D01*
X45545444Y-161699892D01*
X45538956Y-161699892D01*
X45158151Y-161719849D01*
X45151708Y-161720526D01*
X44775079Y-161780178D01*
X44768737Y-161781526D01*
X44400397Y-161880222D01*
X44394244Y-161882221D01*
X44038240Y-162018879D01*
X44032316Y-162021516D01*
X43692554Y-162194633D01*
X43686933Y-162197879D01*
X43367139Y-162405556D01*
X43361878Y-162409378D01*
X43120394Y-162604927D01*
X43112505Y-162616193D01*
X38355472Y-162616193D01*
X38368522Y-87680800D01*
X43891200Y-87680800D01*
X43891200Y-148640800D01*
X47430874Y-148640800D01*
X47447200Y-148640800D01*
X47447200Y-144449800D01*
X125932659Y-144449800D01*
X125932700Y-144449899D01*
X125932817Y-144450183D01*
X125933200Y-144450341D01*
X125933299Y-144450300D01*
X139903101Y-144450300D01*
X139903200Y-144450341D01*
X139903583Y-144450183D01*
X139903700Y-144449899D01*
X139903741Y-144449800D01*
X139903700Y-144449701D01*
X139903700Y-130479899D01*
X139903741Y-130479800D01*
X139903583Y-130479417D01*
X139903299Y-130479300D01*
X139903200Y-130479259D01*
X139903101Y-130479300D01*
X125933299Y-130479300D01*
X125933200Y-130479259D01*
X125933101Y-130479300D01*
X125932817Y-130479417D01*
X125932659Y-130479800D01*
X125932700Y-130479899D01*
X125932700Y-144449701D01*
X125932659Y-144449800D01*
X47447200Y-144449800D01*
X47447200Y-134289800D01*
X56336659Y-134289800D01*
X56336700Y-134289899D01*
X56336817Y-134290183D01*
X56337200Y-134290341D01*
X56337299Y-134290300D01*
X70307101Y-134290300D01*
X70307200Y-134290341D01*
X70307583Y-134290183D01*
X70307700Y-134289899D01*
X70307741Y-134289800D01*
X70307700Y-134289701D01*
X70307700Y-123063000D01*
X71450200Y-123063000D01*
X71450200Y-128143000D01*
X124519874Y-128143000D01*
X124536200Y-128143000D01*
X124536200Y-124129800D01*
X125932659Y-124129800D01*
X125932700Y-124129899D01*
X125932817Y-124130183D01*
X125933200Y-124130341D01*
X125933299Y-124130300D01*
X139903101Y-124130300D01*
X139903200Y-124130341D01*
X139903583Y-124130183D01*
X139903700Y-124129899D01*
X139903741Y-124129800D01*
X139903700Y-124129701D01*
X139903700Y-110159899D01*
X139903741Y-110159800D01*
X139903583Y-110159417D01*
X139903299Y-110159300D01*
X139903200Y-110159259D01*
X139903101Y-110159300D01*
X125933299Y-110159300D01*
X125933200Y-110159259D01*
X125933101Y-110159300D01*
X125932817Y-110159417D01*
X125932659Y-110159800D01*
X125932700Y-110159899D01*
X125932700Y-124129701D01*
X125932659Y-124129800D01*
X124536200Y-124129800D01*
X124536200Y-123063000D01*
X71450200Y-123063000D01*
X70307700Y-123063000D01*
X70307700Y-120319899D01*
X70307741Y-120319800D01*
X70307583Y-120319417D01*
X70307299Y-120319300D01*
X70307200Y-120319259D01*
X70307101Y-120319300D01*
X56337299Y-120319300D01*
X56337200Y-120319259D01*
X56337101Y-120319300D01*
X56336817Y-120319417D01*
X56336659Y-120319800D01*
X56336700Y-120319899D01*
X56336700Y-134289701D01*
X56336659Y-134289800D01*
X47447200Y-134289800D01*
X47447200Y-113969800D01*
X56336659Y-113969800D01*
X56336700Y-113969899D01*
X56336817Y-113970183D01*
X56337200Y-113970341D01*
X56337299Y-113970300D01*
X70307101Y-113970300D01*
X70307200Y-113970341D01*
X70307583Y-113970183D01*
X70307700Y-113969899D01*
X70307741Y-113969800D01*
X79196659Y-113969800D01*
X79196700Y-113969899D01*
X79196817Y-113970183D01*
X79197200Y-113970341D01*
X79197299Y-113970300D01*
X93167101Y-113970300D01*
X93167200Y-113970341D01*
X93167583Y-113970183D01*
X93167700Y-113969899D01*
X93167741Y-113969800D01*
X102056659Y-113969800D01*
X102056700Y-113969899D01*
X102056817Y-113970183D01*
X102057200Y-113970341D01*
X102057299Y-113970300D01*
X116027101Y-113970300D01*
X116027200Y-113970341D01*
X116027583Y-113970183D01*
X116027700Y-113969899D01*
X116027741Y-113969800D01*
X116027700Y-113969701D01*
X116027700Y-103301800D01*
X125932659Y-103301800D01*
X125932700Y-103301899D01*
X125932817Y-103302183D01*
X125933200Y-103302341D01*
X125933299Y-103302300D01*
X139903101Y-103302300D01*
X139903200Y-103302341D01*
X139903583Y-103302183D01*
X139903700Y-103301899D01*
X139903741Y-103301800D01*
X139903700Y-103301701D01*
X139903700Y-89331899D01*
X139903741Y-89331800D01*
X139903583Y-89331417D01*
X139903299Y-89331300D01*
X139903200Y-89331259D01*
X139903101Y-89331300D01*
X125933299Y-89331300D01*
X125933200Y-89331259D01*
X125933101Y-89331300D01*
X125932817Y-89331417D01*
X125932659Y-89331800D01*
X125932700Y-89331899D01*
X125932700Y-103301701D01*
X125932659Y-103301800D01*
X116027700Y-103301800D01*
X116027700Y-99999899D01*
X116027741Y-99999800D01*
X116027583Y-99999417D01*
X116027299Y-99999300D01*
X116027200Y-99999259D01*
X116027101Y-99999300D01*
X102057299Y-99999300D01*
X102057200Y-99999259D01*
X102057101Y-99999300D01*
X102056817Y-99999417D01*
X102056659Y-99999800D01*
X102056700Y-99999899D01*
X102056700Y-113969701D01*
X102056659Y-113969800D01*
X93167741Y-113969800D01*
X93167700Y-113969701D01*
X93167700Y-99999899D01*
X93167741Y-99999800D01*
X93167583Y-99999417D01*
X93167299Y-99999300D01*
X93167200Y-99999259D01*
X93167101Y-99999300D01*
X79197299Y-99999300D01*
X79197200Y-99999259D01*
X79197101Y-99999300D01*
X79196817Y-99999417D01*
X79196659Y-99999800D01*
X79196700Y-99999899D01*
X79196700Y-113969701D01*
X79196659Y-113969800D01*
X70307741Y-113969800D01*
X70307700Y-113969701D01*
X70307700Y-99999899D01*
X70307741Y-99999800D01*
X70307583Y-99999417D01*
X70307299Y-99999300D01*
X70307200Y-99999259D01*
X70307101Y-99999300D01*
X56337299Y-99999300D01*
X56337200Y-99999259D01*
X56337101Y-99999300D01*
X56336817Y-99999417D01*
X56336659Y-99999800D01*
X56336700Y-99999899D01*
X56336700Y-113969701D01*
X56336659Y-113969800D01*
X47447200Y-113969800D01*
X47447200Y-93726000D01*
X90118659Y-93726000D01*
X90118700Y-93726099D01*
X90118817Y-93726383D01*
X90119200Y-93726541D01*
X90119299Y-93726500D01*
X104089101Y-93726500D01*
X104089200Y-93726541D01*
X104089583Y-93726383D01*
X104089700Y-93726099D01*
X104089741Y-93726000D01*
X104089700Y-93725901D01*
X104089700Y-87249000D01*
X147523200Y-87249000D01*
X147523200Y-148640800D01*
X151062874Y-148640800D01*
X151079200Y-148640800D01*
X151079200Y-87249000D01*
X147523200Y-87249000D01*
X104089700Y-87249000D01*
X104089700Y-84373406D01*
X147252505Y-84373406D01*
X147260391Y-84384669D01*
X147501884Y-84580225D01*
X147507138Y-84584042D01*
X147826933Y-84791720D01*
X147832554Y-84794966D01*
X148172316Y-84968083D01*
X148178240Y-84970720D01*
X148534244Y-85107378D01*
X148540397Y-85109377D01*
X148908737Y-85208073D01*
X148915079Y-85209421D01*
X149291708Y-85269073D01*
X149298151Y-85269750D01*
X149678956Y-85289708D01*
X149685444Y-85289708D01*
X150066248Y-85269750D01*
X150072691Y-85269073D01*
X150449320Y-85209421D01*
X150455662Y-85208073D01*
X150824002Y-85109377D01*
X150830155Y-85107378D01*
X151186159Y-84970720D01*
X151192083Y-84968083D01*
X151531845Y-84794966D01*
X151537466Y-84791720D01*
X151857261Y-84584042D01*
X151862515Y-84580225D01*
X152104006Y-84384670D01*
X152111893Y-84373406D01*
X152105227Y-84361380D01*
X149693742Y-81949895D01*
X149682200Y-81943231D01*
X149670657Y-81949895D01*
X147259171Y-84361380D01*
X147252505Y-84373406D01*
X104089700Y-84373406D01*
X104089700Y-81588044D01*
X145977292Y-81588044D01*
X145997249Y-81968848D01*
X145997926Y-81975291D01*
X146057578Y-82351920D01*
X146058926Y-82358262D01*
X146157622Y-82726602D01*
X146159621Y-82732755D01*
X146296279Y-83088759D01*
X146298916Y-83094683D01*
X146472033Y-83434445D01*
X146475279Y-83440066D01*
X146682957Y-83759861D01*
X146686774Y-83765115D01*
X146882329Y-84006607D01*
X146893592Y-84014493D01*
X146905618Y-84007827D01*
X149317104Y-81596342D01*
X149323768Y-81584800D01*
X150040631Y-81584800D01*
X150047295Y-81596342D01*
X152458780Y-84007827D01*
X152470806Y-84014493D01*
X152482070Y-84006606D01*
X152677625Y-83765115D01*
X152681442Y-83759861D01*
X152889120Y-83440066D01*
X152892366Y-83434445D01*
X153065483Y-83094683D01*
X153068120Y-83088759D01*
X153204778Y-82732755D01*
X153206777Y-82726602D01*
X153305473Y-82358262D01*
X153306821Y-82351920D01*
X153366473Y-81975291D01*
X153367150Y-81968848D01*
X153387108Y-81588044D01*
X153387108Y-81581556D01*
X153367150Y-81200751D01*
X153366473Y-81194308D01*
X153306821Y-80817679D01*
X153305473Y-80811337D01*
X153206777Y-80442997D01*
X153204778Y-80436844D01*
X153068120Y-80080840D01*
X153065483Y-80074916D01*
X152892366Y-79735154D01*
X152889120Y-79729533D01*
X152681442Y-79409738D01*
X152677625Y-79404484D01*
X152482069Y-79162991D01*
X152470806Y-79155105D01*
X152458780Y-79161771D01*
X150047295Y-81573257D01*
X150040631Y-81584800D01*
X149323768Y-81584800D01*
X149317104Y-81573257D01*
X146905618Y-79161771D01*
X146893593Y-79155105D01*
X146882327Y-79162994D01*
X146686778Y-79404478D01*
X146682956Y-79409739D01*
X146475279Y-79729533D01*
X146472033Y-79735154D01*
X146298916Y-80074916D01*
X146296279Y-80080840D01*
X146159621Y-80436844D01*
X146157622Y-80442997D01*
X146058926Y-80811337D01*
X146057578Y-80817679D01*
X145997926Y-81194308D01*
X145997249Y-81200751D01*
X145977292Y-81581556D01*
X145977292Y-81588044D01*
X104089700Y-81588044D01*
X104089700Y-79756099D01*
X104089741Y-79756000D01*
X104089583Y-79755617D01*
X104089299Y-79755500D01*
X104089200Y-79755459D01*
X104089101Y-79755500D01*
X90119299Y-79755500D01*
X90119200Y-79755459D01*
X90119101Y-79755500D01*
X90118817Y-79755617D01*
X90118659Y-79756000D01*
X90118700Y-79756099D01*
X90118700Y-93725901D01*
X90118659Y-93726000D01*
X47447200Y-93726000D01*
X47447200Y-93649800D01*
X56336659Y-93649800D01*
X56336700Y-93649899D01*
X56336817Y-93650183D01*
X56337200Y-93650341D01*
X56337299Y-93650300D01*
X70307101Y-93650300D01*
X70307200Y-93650341D01*
X70307583Y-93650183D01*
X70307700Y-93649899D01*
X70307741Y-93649800D01*
X70307700Y-93649701D01*
X70307700Y-79679899D01*
X70307741Y-79679800D01*
X70307583Y-79679417D01*
X70307299Y-79679300D01*
X70307200Y-79679259D01*
X70307101Y-79679300D01*
X56337299Y-79679300D01*
X56337200Y-79679259D01*
X56337101Y-79679300D01*
X56336817Y-79679417D01*
X56336659Y-79679800D01*
X56336700Y-79679899D01*
X56336700Y-93649701D01*
X56336659Y-93649800D01*
X47447200Y-93649800D01*
X47447200Y-87680800D01*
X43891200Y-87680800D01*
X38368522Y-87680800D01*
X38369098Y-84373406D01*
X43112505Y-84373406D01*
X43120391Y-84384669D01*
X43361884Y-84580225D01*
X43367138Y-84584042D01*
X43686933Y-84791720D01*
X43692554Y-84794966D01*
X44032316Y-84968083D01*
X44038240Y-84970720D01*
X44394244Y-85107378D01*
X44400397Y-85109377D01*
X44768737Y-85208073D01*
X44775079Y-85209421D01*
X45151708Y-85269073D01*
X45158151Y-85269750D01*
X45538956Y-85289708D01*
X45545444Y-85289708D01*
X45926248Y-85269750D01*
X45932691Y-85269073D01*
X46309320Y-85209421D01*
X46315662Y-85208073D01*
X46684002Y-85109377D01*
X46690155Y-85107378D01*
X47046159Y-84970720D01*
X47052083Y-84968083D01*
X47391845Y-84794966D01*
X47397466Y-84791720D01*
X47717261Y-84584042D01*
X47722515Y-84580225D01*
X47964006Y-84384670D01*
X47971893Y-84373406D01*
X47965227Y-84361380D01*
X45553742Y-81949895D01*
X45542200Y-81943231D01*
X45530657Y-81949895D01*
X43119171Y-84361380D01*
X43112505Y-84373406D01*
X38369098Y-84373406D01*
X38369583Y-81588044D01*
X41837292Y-81588044D01*
X41857249Y-81968848D01*
X41857926Y-81975291D01*
X41917578Y-82351920D01*
X41918926Y-82358262D01*
X42017622Y-82726602D01*
X42019621Y-82732755D01*
X42156279Y-83088759D01*
X42158916Y-83094683D01*
X42332033Y-83434445D01*
X42335279Y-83440066D01*
X42542957Y-83759861D01*
X42546774Y-83765115D01*
X42742329Y-84006607D01*
X42753592Y-84014493D01*
X42765618Y-84007827D01*
X45177104Y-81596342D01*
X45183768Y-81584800D01*
X45900631Y-81584800D01*
X45907295Y-81596342D01*
X48318780Y-84007827D01*
X48330806Y-84014493D01*
X48342070Y-84006606D01*
X48537625Y-83765115D01*
X48541442Y-83759861D01*
X48749120Y-83440066D01*
X48752366Y-83434445D01*
X48925483Y-83094683D01*
X48928120Y-83088759D01*
X49064778Y-82732755D01*
X49066777Y-82726602D01*
X49165473Y-82358262D01*
X49166821Y-82351920D01*
X49226473Y-81975291D01*
X49227150Y-81968848D01*
X49247108Y-81588044D01*
X49247108Y-81581556D01*
X49227150Y-81200751D01*
X49226473Y-81194308D01*
X49166821Y-80817679D01*
X49165473Y-80811337D01*
X49066777Y-80442997D01*
X49064778Y-80436844D01*
X48928120Y-80080840D01*
X48925483Y-80074916D01*
X48752366Y-79735154D01*
X48749120Y-79729533D01*
X48541442Y-79409738D01*
X48537625Y-79404484D01*
X48342069Y-79162991D01*
X48330806Y-79155105D01*
X48318780Y-79161771D01*
X45907295Y-81573257D01*
X45900631Y-81584800D01*
X45183768Y-81584800D01*
X45177104Y-81573257D01*
X42765618Y-79161771D01*
X42753593Y-79155105D01*
X42742327Y-79162994D01*
X42546778Y-79404478D01*
X42542956Y-79409739D01*
X42335279Y-79729533D01*
X42332033Y-79735154D01*
X42158916Y-80074916D01*
X42156279Y-80080840D01*
X42019621Y-80436844D01*
X42017622Y-80442997D01*
X41918926Y-80811337D01*
X41917578Y-80817679D01*
X41857926Y-81194308D01*
X41857249Y-81200751D01*
X41837292Y-81581556D01*
X41837292Y-81588044D01*
X38369583Y-81588044D01*
X38369902Y-79757575D01*
X38370069Y-78796193D01*
X43112505Y-78796193D01*
X43119171Y-78808218D01*
X45530657Y-81219704D01*
X45542200Y-81226368D01*
X45553742Y-81219704D01*
X47965227Y-78808218D01*
X47971892Y-78796193D01*
X147252505Y-78796193D01*
X147259171Y-78808218D01*
X149670657Y-81219704D01*
X149682200Y-81226368D01*
X149693742Y-81219704D01*
X152105227Y-78808218D01*
X152111893Y-78796192D01*
X152104007Y-78784929D01*
X151862515Y-78589374D01*
X151857261Y-78585557D01*
X151537466Y-78377879D01*
X151531845Y-78374633D01*
X151192083Y-78201516D01*
X151186159Y-78198879D01*
X150830155Y-78062221D01*
X150824002Y-78060222D01*
X150455662Y-77961526D01*
X150449320Y-77960178D01*
X150072691Y-77900526D01*
X150066248Y-77899849D01*
X149685444Y-77879892D01*
X149678956Y-77879892D01*
X149298151Y-77899849D01*
X149291708Y-77900526D01*
X148915079Y-77960178D01*
X148908737Y-77961526D01*
X148540397Y-78060222D01*
X148534244Y-78062221D01*
X148178240Y-78198879D01*
X148172316Y-78201516D01*
X147832554Y-78374633D01*
X147826933Y-78377879D01*
X147507139Y-78585556D01*
X147501878Y-78589378D01*
X147260394Y-78784927D01*
X147252505Y-78796193D01*
X47971892Y-78796193D01*
X47971893Y-78796192D01*
X47964007Y-78784929D01*
X47722515Y-78589374D01*
X47717261Y-78585557D01*
X47397466Y-78377879D01*
X47391845Y-78374633D01*
X47052083Y-78201516D01*
X47046159Y-78198879D01*
X46690155Y-78062221D01*
X46684002Y-78060222D01*
X46315662Y-77961526D01*
X46309320Y-77960178D01*
X45932691Y-77900526D01*
X45926248Y-77899849D01*
X45545444Y-77879892D01*
X45538956Y-77879892D01*
X45158151Y-77899849D01*
X45151708Y-77900526D01*
X44775079Y-77960178D01*
X44768737Y-77961526D01*
X44400397Y-78060222D01*
X44394244Y-78062221D01*
X44038240Y-78198879D01*
X44032316Y-78201516D01*
X43692554Y-78374633D01*
X43686933Y-78377879D01*
X43367139Y-78585556D01*
X43361878Y-78589378D01*
X43120394Y-78784927D01*
X43112505Y-78796193D01*
X38370069Y-78796193D01*
X38370933Y-73837800D01*
X49478659Y-73837800D01*
X49478700Y-73837899D01*
X49478817Y-73838183D01*
X49479200Y-73838341D01*
X49479299Y-73838300D01*
X63449101Y-73838300D01*
X63449200Y-73838341D01*
X63449583Y-73838183D01*
X63449700Y-73837899D01*
X63449741Y-73837800D01*
X69798659Y-73837800D01*
X69798700Y-73837899D01*
X69798817Y-73838183D01*
X69799200Y-73838341D01*
X69799299Y-73838300D01*
X83769101Y-73838300D01*
X83769200Y-73838341D01*
X83769583Y-73838183D01*
X83769700Y-73837899D01*
X83769741Y-73837800D01*
X90118659Y-73837800D01*
X90118700Y-73837899D01*
X90118817Y-73838183D01*
X90119200Y-73838341D01*
X90119299Y-73838300D01*
X104089101Y-73838300D01*
X104089200Y-73838341D01*
X104089583Y-73838183D01*
X104089700Y-73837899D01*
X104089741Y-73837800D01*
X110438659Y-73837800D01*
X110438700Y-73837899D01*
X110438817Y-73838183D01*
X110439200Y-73838341D01*
X110439299Y-73838300D01*
X124409101Y-73838300D01*
X124409200Y-73838341D01*
X124409583Y-73838183D01*
X124409700Y-73837899D01*
X124409741Y-73837800D01*
X130758659Y-73837800D01*
X130758700Y-73837899D01*
X130758817Y-73838183D01*
X130759200Y-73838341D01*
X130759299Y-73838300D01*
X144729101Y-73838300D01*
X144729200Y-73838341D01*
X144729583Y-73838183D01*
X144729700Y-73837899D01*
X144729741Y-73837800D01*
X144729700Y-73837701D01*
X144729700Y-59867899D01*
X144729741Y-59867800D01*
X144729583Y-59867417D01*
X144729299Y-59867300D01*
X144729200Y-59867259D01*
X144729101Y-59867300D01*
X130759299Y-59867300D01*
X130759200Y-59867259D01*
X130759101Y-59867300D01*
X130758817Y-59867417D01*
X130758659Y-59867800D01*
X130758700Y-59867899D01*
X130758700Y-73837701D01*
X130758659Y-73837800D01*
X124409741Y-73837800D01*
X124409700Y-73837701D01*
X124409700Y-59867899D01*
X124409741Y-59867800D01*
X124409583Y-59867417D01*
X124409299Y-59867300D01*
X124409200Y-59867259D01*
X124409101Y-59867300D01*
X110439299Y-59867300D01*
X110439200Y-59867259D01*
X110439101Y-59867300D01*
X110438817Y-59867417D01*
X110438659Y-59867800D01*
X110438700Y-59867899D01*
X110438700Y-73837701D01*
X110438659Y-73837800D01*
X104089741Y-73837800D01*
X104089700Y-73837701D01*
X104089700Y-59867899D01*
X104089741Y-59867800D01*
X104089583Y-59867417D01*
X104089299Y-59867300D01*
X104089200Y-59867259D01*
X104089101Y-59867300D01*
X90119299Y-59867300D01*
X90119200Y-59867259D01*
X90119101Y-59867300D01*
X90118817Y-59867417D01*
X90118659Y-59867800D01*
X90118700Y-59867899D01*
X90118700Y-73837701D01*
X90118659Y-73837800D01*
X83769741Y-73837800D01*
X83769700Y-73837701D01*
X83769700Y-59867899D01*
X83769741Y-59867800D01*
X83769583Y-59867417D01*
X83769299Y-59867300D01*
X83769200Y-59867259D01*
X83769101Y-59867300D01*
X69799299Y-59867300D01*
X69799200Y-59867259D01*
X69799101Y-59867300D01*
X69798817Y-59867417D01*
X69798659Y-59867800D01*
X69798700Y-59867899D01*
X69798700Y-73837701D01*
X69798659Y-73837800D01*
X63449741Y-73837800D01*
X63449700Y-73837701D01*
X63449700Y-59867899D01*
X63449741Y-59867800D01*
X63449583Y-59867417D01*
X63449299Y-59867300D01*
X63449200Y-59867259D01*
X63449101Y-59867300D01*
X49479299Y-59867300D01*
X49479200Y-59867259D01*
X49479101Y-59867300D01*
X49478817Y-59867417D01*
X49478659Y-59867800D01*
X49478700Y-59867899D01*
X49478700Y-73837701D01*
X49478659Y-73837800D01*
X38370933Y-73837800D01*
X38374560Y-53009800D01*
X49478659Y-53009800D01*
X49478757Y-53010038D01*
X49478816Y-53010182D01*
X49478817Y-53010183D01*
X49479001Y-53010258D01*
X49479199Y-53010341D01*
X49479299Y-53010300D01*
X63449101Y-53010300D01*
X63449200Y-53010341D01*
X63449583Y-53010183D01*
X63449700Y-53009899D01*
X63449741Y-53009800D01*
X69798659Y-53009800D01*
X69798700Y-53009899D01*
X69798817Y-53010183D01*
X69799200Y-53010341D01*
X69799299Y-53010300D01*
X83769101Y-53010300D01*
X83769200Y-53010341D01*
X83769583Y-53010183D01*
X83769700Y-53009899D01*
X83769741Y-53009800D01*
X90118659Y-53009800D01*
X90118700Y-53009899D01*
X90118817Y-53010183D01*
X90119200Y-53010341D01*
X90119299Y-53010300D01*
X104089101Y-53010300D01*
X104089200Y-53010341D01*
X104089583Y-53010183D01*
X104089700Y-53009899D01*
X104089741Y-53009800D01*
X110438659Y-53009800D01*
X110438700Y-53009899D01*
X110438817Y-53010183D01*
X110439200Y-53010341D01*
X110439299Y-53010300D01*
X124409101Y-53010300D01*
X124409200Y-53010341D01*
X124409583Y-53010183D01*
X124409700Y-53009899D01*
X124409741Y-53009800D01*
X130758659Y-53009800D01*
X130758700Y-53009899D01*
X130758817Y-53010183D01*
X130759200Y-53010341D01*
X130759299Y-53010300D01*
X144729101Y-53010300D01*
X144729200Y-53010341D01*
X144729583Y-53010183D01*
X144729700Y-53009899D01*
X144729741Y-53009800D01*
X144729700Y-53009701D01*
X144729700Y-39039899D01*
X144729741Y-39039800D01*
X144729583Y-39039417D01*
X144729299Y-39039300D01*
X144729200Y-39039259D01*
X144729101Y-39039300D01*
X130759299Y-39039300D01*
X130759200Y-39039259D01*
X130759101Y-39039300D01*
X130758817Y-39039417D01*
X130758659Y-39039800D01*
X130758700Y-39039899D01*
X130758700Y-53009701D01*
X130758659Y-53009800D01*
X124409741Y-53009800D01*
X124409700Y-53009701D01*
X124409700Y-39039899D01*
X124409741Y-39039800D01*
X124409583Y-39039417D01*
X124409299Y-39039300D01*
X124409200Y-39039259D01*
X124409101Y-39039300D01*
X110439299Y-39039300D01*
X110439200Y-39039259D01*
X110439101Y-39039300D01*
X110438817Y-39039417D01*
X110438659Y-39039800D01*
X110438700Y-39039899D01*
X110438700Y-53009701D01*
X110438659Y-53009800D01*
X104089741Y-53009800D01*
X104089700Y-53009701D01*
X104089700Y-39039899D01*
X104089741Y-39039800D01*
X104089583Y-39039417D01*
X104089299Y-39039300D01*
X104089200Y-39039259D01*
X104089101Y-39039300D01*
X90119299Y-39039300D01*
X90119200Y-39039259D01*
X90119101Y-39039300D01*
X90118817Y-39039417D01*
X90118659Y-39039800D01*
X90118700Y-39039899D01*
X90118700Y-53009701D01*
X90118659Y-53009800D01*
X83769741Y-53009800D01*
X83769700Y-53009701D01*
X83769700Y-39039899D01*
X83769741Y-39039800D01*
X83769583Y-39039417D01*
X83769299Y-39039300D01*
X83769200Y-39039259D01*
X83769101Y-39039300D01*
X69799299Y-39039300D01*
X69799200Y-39039259D01*
X69799101Y-39039300D01*
X69798817Y-39039417D01*
X69798659Y-39039800D01*
X69798700Y-39039899D01*
X69798700Y-53009701D01*
X69798659Y-53009800D01*
X63449741Y-53009800D01*
X63449700Y-53009701D01*
X63449700Y-39039899D01*
X63449741Y-39039800D01*
X63449583Y-39039417D01*
X63449299Y-39039300D01*
X63449200Y-39039259D01*
X63449101Y-39039300D01*
X49504700Y-39039300D01*
X49504601Y-39039259D01*
X49504218Y-39039416D01*
X49504217Y-39039416D01*
X49504217Y-39039417D01*
X49504059Y-39039800D01*
X49504099Y-39039898D01*
X49504077Y-39051697D01*
X49504076Y-39051705D01*
X49478720Y-52998195D01*
X49478720Y-52998199D01*
X49478700Y-53009699D01*
X49478659Y-53009800D01*
X38374560Y-53009800D01*
X38377931Y-33654350D01*
X43112505Y-33654350D01*
X43120391Y-33665613D01*
X43361884Y-33861169D01*
X43367138Y-33864986D01*
X43686933Y-34072664D01*
X43692554Y-34075910D01*
X44032316Y-34249027D01*
X44038240Y-34251664D01*
X44394244Y-34388322D01*
X44400397Y-34390321D01*
X44768737Y-34489017D01*
X44775079Y-34490365D01*
X45151708Y-34550017D01*
X45158151Y-34550694D01*
X45538956Y-34570652D01*
X45545444Y-34570652D01*
X45926248Y-34550694D01*
X45932691Y-34550017D01*
X46309320Y-34490365D01*
X46315662Y-34489017D01*
X46684002Y-34390321D01*
X46690155Y-34388322D01*
X47046159Y-34251664D01*
X47052083Y-34249027D01*
X47391845Y-34075910D01*
X47397466Y-34072664D01*
X47717261Y-33864986D01*
X47722515Y-33861169D01*
X47964006Y-33665614D01*
X47971893Y-33654350D01*
X147252505Y-33654350D01*
X147260391Y-33665613D01*
X147501884Y-33861169D01*
X147507138Y-33864986D01*
X147826933Y-34072664D01*
X147832554Y-34075910D01*
X148172316Y-34249027D01*
X148178240Y-34251664D01*
X148534244Y-34388322D01*
X148540397Y-34390321D01*
X148908737Y-34489017D01*
X148915079Y-34490365D01*
X149291708Y-34550017D01*
X149298151Y-34550694D01*
X149678956Y-34570652D01*
X149685444Y-34570652D01*
X150066248Y-34550694D01*
X150072691Y-34550017D01*
X150449320Y-34490365D01*
X150455662Y-34489017D01*
X150824002Y-34390321D01*
X150830155Y-34388322D01*
X151186159Y-34251664D01*
X151192083Y-34249027D01*
X151531845Y-34075910D01*
X151537466Y-34072664D01*
X151857261Y-33864986D01*
X151862515Y-33861169D01*
X152104006Y-33665614D01*
X152111893Y-33654350D01*
X152105227Y-33642324D01*
X149693742Y-31230839D01*
X149682200Y-31224175D01*
X149670657Y-31230839D01*
X147259171Y-33642324D01*
X147252505Y-33654350D01*
X47971893Y-33654350D01*
X47965227Y-33642324D01*
X45553742Y-31230839D01*
X45542199Y-31224175D01*
X45530657Y-31230839D01*
X43119171Y-33642324D01*
X43112505Y-33654350D01*
X38377931Y-33654350D01*
X38378416Y-30868988D01*
X41837292Y-30868988D01*
X41857249Y-31249792D01*
X41857926Y-31256235D01*
X41917578Y-31632864D01*
X41918926Y-31639206D01*
X42017622Y-32007546D01*
X42019621Y-32013699D01*
X42156279Y-32369703D01*
X42158916Y-32375627D01*
X42332033Y-32715389D01*
X42335279Y-32721010D01*
X42542957Y-33040805D01*
X42546774Y-33046059D01*
X42742329Y-33287551D01*
X42753592Y-33295437D01*
X42765618Y-33288771D01*
X45177104Y-30877286D01*
X45183768Y-30865744D01*
X45183767Y-30865743D01*
X45900631Y-30865743D01*
X45907295Y-30877286D01*
X48318780Y-33288771D01*
X48330806Y-33295437D01*
X48342070Y-33287550D01*
X48537625Y-33046059D01*
X48541442Y-33040805D01*
X48749120Y-32721010D01*
X48752366Y-32715389D01*
X48925483Y-32375627D01*
X48928120Y-32369703D01*
X49064778Y-32013699D01*
X49066777Y-32007546D01*
X49165473Y-31639206D01*
X49166821Y-31632864D01*
X49226473Y-31256235D01*
X49227150Y-31249792D01*
X49247108Y-30868988D01*
X49247108Y-30862500D01*
X49227150Y-30481695D01*
X49226473Y-30475252D01*
X49166821Y-30098623D01*
X49165473Y-30092281D01*
X49066777Y-29723941D01*
X49064778Y-29717788D01*
X48928120Y-29361784D01*
X48925483Y-29355860D01*
X48752366Y-29016098D01*
X48749120Y-29010477D01*
X48541442Y-28690682D01*
X48537625Y-28685428D01*
X48342069Y-28443935D01*
X48330806Y-28436049D01*
X48318780Y-28442715D01*
X45907295Y-30854201D01*
X45900631Y-30865743D01*
X45183767Y-30865743D01*
X45177104Y-30854201D01*
X42765618Y-28442715D01*
X42753593Y-28436049D01*
X42742327Y-28443938D01*
X42546778Y-28685422D01*
X42542956Y-28690683D01*
X42335279Y-29010477D01*
X42332033Y-29016098D01*
X42158916Y-29355860D01*
X42156279Y-29361784D01*
X42019621Y-29717788D01*
X42017622Y-29723941D01*
X41918926Y-30092281D01*
X41917578Y-30098623D01*
X41857926Y-30475252D01*
X41857249Y-30481695D01*
X41837292Y-30862500D01*
X41837292Y-30868988D01*
X38378416Y-30868988D01*
X38378902Y-28077137D01*
X43112505Y-28077137D01*
X43119171Y-28089162D01*
X45530657Y-30500648D01*
X45542200Y-30507312D01*
X45553742Y-30500648D01*
X47965227Y-28089162D01*
X47971893Y-28077136D01*
X47964007Y-28065873D01*
X47722515Y-27870318D01*
X47717261Y-27866501D01*
X47634877Y-27813000D01*
X51130200Y-27813000D01*
X51130200Y-32893000D01*
X142299874Y-32893000D01*
X142316200Y-32893000D01*
X142316200Y-30868988D01*
X145977292Y-30868988D01*
X145997249Y-31249792D01*
X145997926Y-31256235D01*
X146057578Y-31632864D01*
X146058926Y-31639206D01*
X146157622Y-32007546D01*
X146159621Y-32013699D01*
X146296279Y-32369703D01*
X146298916Y-32375627D01*
X146472033Y-32715389D01*
X146475279Y-32721010D01*
X146682957Y-33040805D01*
X146686774Y-33046059D01*
X146882329Y-33287551D01*
X146893592Y-33295437D01*
X146905618Y-33288771D01*
X149317104Y-30877286D01*
X149323767Y-30865744D01*
X150040631Y-30865744D01*
X150047295Y-30877286D01*
X152458780Y-33288771D01*
X152470806Y-33295437D01*
X152482070Y-33287550D01*
X152677625Y-33046059D01*
X152681442Y-33040805D01*
X152889120Y-32721010D01*
X152892366Y-32715389D01*
X153065483Y-32375627D01*
X153068120Y-32369703D01*
X153204778Y-32013699D01*
X153206777Y-32007546D01*
X153305473Y-31639206D01*
X153306821Y-31632864D01*
X153366473Y-31256235D01*
X153367150Y-31249792D01*
X153387108Y-30868988D01*
X153387108Y-30862500D01*
X153367150Y-30481695D01*
X153366473Y-30475252D01*
X153306821Y-30098623D01*
X153305473Y-30092281D01*
X153206777Y-29723941D01*
X153204778Y-29717788D01*
X153068120Y-29361784D01*
X153065483Y-29355860D01*
X152892366Y-29016098D01*
X152889120Y-29010477D01*
X152681442Y-28690682D01*
X152677625Y-28685428D01*
X152482069Y-28443935D01*
X152470806Y-28436049D01*
X152458780Y-28442715D01*
X150047295Y-30854201D01*
X150040631Y-30865744D01*
X149323767Y-30865744D01*
X149323768Y-30865743D01*
X149317104Y-30854201D01*
X146905618Y-28442715D01*
X146893593Y-28436049D01*
X146882327Y-28443938D01*
X146686778Y-28685422D01*
X146682956Y-28690683D01*
X146475279Y-29010477D01*
X146472033Y-29016098D01*
X146298916Y-29355860D01*
X146296279Y-29361784D01*
X146159621Y-29717788D01*
X146157622Y-29723941D01*
X146058926Y-30092281D01*
X146057578Y-30098623D01*
X145997926Y-30475252D01*
X145997249Y-30481695D01*
X145977292Y-30862500D01*
X145977292Y-30868988D01*
X142316200Y-30868988D01*
X142316200Y-28077137D01*
X147252505Y-28077137D01*
X147259171Y-28089162D01*
X149670657Y-30500648D01*
X149682200Y-30507312D01*
X149693742Y-30500648D01*
X152105227Y-28089162D01*
X152111893Y-28077136D01*
X152104007Y-28065873D01*
X151862515Y-27870318D01*
X151857261Y-27866501D01*
X151537466Y-27658823D01*
X151531845Y-27655577D01*
X151192083Y-27482460D01*
X151186159Y-27479823D01*
X150830155Y-27343165D01*
X150824002Y-27341166D01*
X150455662Y-27242470D01*
X150449320Y-27241122D01*
X150072691Y-27181470D01*
X150066248Y-27180793D01*
X149685444Y-27160836D01*
X149678956Y-27160836D01*
X149298151Y-27180793D01*
X149291708Y-27181470D01*
X148915079Y-27241122D01*
X148908737Y-27242470D01*
X148540397Y-27341166D01*
X148534244Y-27343165D01*
X148178240Y-27479823D01*
X148172316Y-27482460D01*
X147832554Y-27655577D01*
X147826933Y-27658823D01*
X147507139Y-27866500D01*
X147501878Y-27870322D01*
X147260394Y-28065871D01*
X147252505Y-28077137D01*
X142316200Y-28077137D01*
X142316200Y-27813000D01*
X51130200Y-27813000D01*
X47634877Y-27813000D01*
X47397466Y-27658823D01*
X47391845Y-27655577D01*
X47052083Y-27482460D01*
X47046159Y-27479823D01*
X46690155Y-27343165D01*
X46684002Y-27341166D01*
X46315662Y-27242470D01*
X46309320Y-27241122D01*
X45932691Y-27181470D01*
X45926248Y-27180793D01*
X45545444Y-27160836D01*
X45538956Y-27160836D01*
X45158151Y-27180793D01*
X45151708Y-27181470D01*
X44775079Y-27241122D01*
X44768737Y-27242470D01*
X44400397Y-27341166D01*
X44394244Y-27343165D01*
X44038240Y-27479823D01*
X44032316Y-27482460D01*
X43692554Y-27655577D01*
X43686933Y-27658823D01*
X43367139Y-27866500D01*
X43361878Y-27870322D01*
X43120394Y-28065871D01*
X43112505Y-28077137D01*
X38378902Y-28077137D01*
X38379377Y-25351420D01*
X38395997Y-25289432D01*
X38441383Y-25244053D01*
X38503377Y-25227444D01*
X156842756Y-25227444D01*
X156904756Y-25244057D01*
G37*
%TD.AperFunction*%
%TD*%
M02*
