M48
; DRILL file {KiCad (7.0.0)} date Sun Jul 30 16:01:26 2023
; FORMAT={-:-/ absolute / inch / decimal}
; #@! TF.CreationDate,2023-07-30T16:01:26-03:00
; #@! TF.GenerationSoftware,Kicad,Pcbnew,(7.0.0)
; #@! TF.FileFunction,Plated,1,2,PTH
FMAT,2
INCH
; #@! TA.AperFunction,Plated,PTH,ViaDrill
T1C0.0197
; #@! TA.AperFunction,Plated,PTH,ComponentDrill
T2C0.0402
; #@! TA.AperFunction,Plated,PTH,ComponentDrill
T3C0.0591
; #@! TA.AperFunction,Plated,PTH,ComponentDrill
T4C0.1260
%
G90
G05
T1
X2.265Y-1.513
X2.28Y-5.891
X2.286Y-2.636
X2.336Y-1.805
X2.337Y-2.975
X2.348Y-4.544
X2.354Y-2.409
X2.4698Y-5.0737
X2.538Y-3.484
X2.544Y-3.79
X2.56Y-4.254
X2.562Y-4.752
X2.568Y-2.195
X2.573Y-5.58
X2.592Y-6.41
X2.785Y-5.978
X2.8559Y-5.7673
X2.871Y-3.916
X2.926Y-2.891
X2.936Y-4.662
X2.945Y-5.222
X3.058Y-3.671
X3.111Y-5.8048
X3.16Y-2.601
X3.208Y-4.457
X3.223Y-3.919
X3.311Y-2.223
X3.394Y-2.891
X3.422Y-3.683
X3.434Y-4.022
X3.4773Y-6.5592
X3.504Y-5.1002
X3.624Y-4.733
X3.64Y-4.381
X3.664Y-3.306
X3.672Y-5.374
X3.762Y-3.554
X3.762Y-3.836
X3.766Y-2.223
X3.837Y-5.037
X3.848Y-4.583
X3.966Y-3.16
X3.983Y-5.932
X4.022Y-3.551
X4.147Y-4.578
X4.149Y-6.58
X4.163Y-4.746
X4.2Y-2.223
X4.227Y-3.848
X4.286Y-6.144
X4.364Y-4.444
X4.368Y-4.936
X4.37Y-5.28
X4.374Y-4.737
X4.411Y-3.063
X4.419Y-1.328
X4.539Y-5.955
X4.594Y-5.216
X4.622Y-4.665
X4.634Y-2.229
X4.773Y-5.216
X4.799Y-2.457
X4.83Y-3.839
X4.836Y-1.358
X4.971Y-4.665
X5.13Y-5.304
X5.157Y-2.236
X5.17Y-3.825
X5.203Y-6.272
X5.251Y-5.436
X5.327Y-5.833
X5.364Y-1.357
X5.381Y-6.114
X5.403Y-6.438
X5.435Y-3.582
X5.463Y-3.251
X5.613Y-4.018
X5.613Y-4.22
X5.656Y-6.442
X5.669Y-5.869
X5.685Y-5.002
X5.899Y-3.127
X5.9369Y-5.135
X6.031Y-5.002
X6.048Y-1.323
X6.203Y-5.873
X6.207Y-6.14
X6.224Y-5.326
X6.224Y-5.671
X6.224Y-6.575
X6.233Y-4.679
X6.238Y-4.215
X6.472Y-4.566
X6.476Y-3.485
X6.487Y-2.076
X6.489Y-1.557
X6.496Y-2.792
X6.542Y-6.259
X6.568Y-5.671
T2
X3.1694Y-5.6482
X3.1694Y-6.3482
X3.2694Y-5.6482
X3.2694Y-6.3482
X3.3694Y-5.6482
X3.3694Y-6.3482
X3.4694Y-5.6482
X3.4694Y-6.3482
X3.5694Y-5.6482
X3.5694Y-6.3482
X3.6694Y-5.6482
X3.6694Y-6.3482
X3.7694Y-5.6482
X3.7694Y-6.3482
X3.8694Y-5.6482
X3.8694Y-6.3482
X3.9694Y-5.6482
X3.9694Y-6.3482
X4.0694Y-5.6482
X4.0694Y-6.3482
X4.1694Y-5.6482
X4.1694Y-6.3482
X4.2694Y-5.6482
X4.2694Y-6.3482
X4.3694Y-5.6482
X4.3694Y-6.3482
X4.4694Y-5.6482
X4.4694Y-6.3482
X4.5694Y-5.6482
X4.5694Y-6.3482
X4.6694Y-5.6482
X4.6694Y-6.3482
X4.7694Y-5.6482
X4.7694Y-6.3482
X4.8694Y-5.6482
X4.8694Y-6.3482
X4.9694Y-5.6482
X4.9694Y-6.3482
X5.0604Y-5.8982
X5.0604Y-5.9982
X5.0604Y-6.0982
X5.0694Y-5.6482
X5.0694Y-6.3482
T3
X2.6526Y-1.755
X2.6526Y-2.575
X2.9026Y-1.655
X2.9026Y-2.475
X2.9226Y-3.355
X2.9226Y-4.155
X2.9226Y-4.955
X3.1726Y-3.255
X3.1726Y-4.055
X3.1726Y-4.855
X3.4526Y-1.755
X3.4526Y-2.575
X3.7026Y-1.655
X3.7026Y-2.475
X3.8226Y-4.155
X4.0726Y-4.055
X4.2526Y-1.755
X4.2526Y-2.575
X4.2526Y-3.3582
X4.5026Y-1.655
X4.5026Y-2.475
X4.5026Y-3.2582
X4.7226Y-4.155
X4.9726Y-4.055
X5.0526Y-1.755
X5.0526Y-2.575
X5.3026Y-1.655
X5.3026Y-2.475
X5.6626Y-3.735
X5.6626Y-4.555
X5.6626Y-5.355
X5.6626Y-6.185
X5.8526Y-1.755
X5.8526Y-2.575
X5.9126Y-3.635
X5.9126Y-4.455
X5.9126Y-5.255
X5.9126Y-6.085
X6.1026Y-1.655
X6.1026Y-2.475
T4
X2.3726Y-1.2582
X2.3726Y-3.255
X2.3726Y-6.555
X6.4726Y-1.2582
X6.4726Y-3.255
X6.4726Y-6.555
T0
M30
