%TF.GenerationSoftware,KiCad,Pcbnew,(7.0.0)*%
%TF.CreationDate,2023-06-10T10:48:00-03:00*%
%TF.ProjectId,Bad Thing of the Edge Keyboard,42616420-5468-4696-9e67-206f66207468,rev?*%
%TF.SameCoordinates,Original*%
%TF.FileFunction,Soldermask,Top*%
%TF.FilePolarity,Negative*%
%FSLAX46Y46*%
G04 Gerber Fmt 4.6, Leading zero omitted, Abs format (unit mm)*
G04 Created by KiCad (PCBNEW (7.0.0)) date 2023-06-10 10:48:00*
%MOMM*%
%LPD*%
G01*
G04 APERTURE LIST*
G04 Aperture macros list*
%AMRoundRect*
0 Rectangle with rounded corners*
0 $1 Rounding radius*
0 $2 $3 $4 $5 $6 $7 $8 $9 X,Y pos of 4 corners*
0 Add a 4 corners polygon primitive as box body*
4,1,4,$2,$3,$4,$5,$6,$7,$8,$9,$2,$3,0*
0 Add four circle primitives for the rounded corners*
1,1,$1+$1,$2,$3*
1,1,$1+$1,$4,$5*
1,1,$1+$1,$6,$7*
1,1,$1+$1,$8,$9*
0 Add four rect primitives between the rounded corners*
20,1,$1+$1,$2,$3,$4,$5,0*
20,1,$1+$1,$4,$5,$6,$7,0*
20,1,$1+$1,$6,$7,$8,$9,0*
20,1,$1+$1,$8,$9,$2,$3,0*%
G04 Aperture macros list end*
%ADD10RoundRect,0.250000X-0.350000X-0.450000X0.350000X-0.450000X0.350000X0.450000X-0.350000X0.450000X0*%
%ADD11C,1.700000*%
%ADD12C,4.000000*%
%ADD13C,2.200000*%
%ADD14C,6.400000*%
%ADD15RoundRect,0.250000X0.450000X-0.325000X0.450000X0.325000X-0.450000X0.325000X-0.450000X-0.325000X0*%
%ADD16RoundRect,0.150000X0.150000X-0.587500X0.150000X0.587500X-0.150000X0.587500X-0.150000X-0.587500X0*%
%ADD17RoundRect,0.250000X-0.325000X-0.450000X0.325000X-0.450000X0.325000X0.450000X-0.325000X0.450000X0*%
%ADD18RoundRect,0.250000X0.450000X-0.350000X0.450000X0.350000X-0.450000X0.350000X-0.450000X-0.350000X0*%
%ADD19RoundRect,0.250000X0.325000X0.450000X-0.325000X0.450000X-0.325000X-0.450000X0.325000X-0.450000X0*%
%ADD20RoundRect,0.250000X0.350000X0.450000X-0.350000X0.450000X-0.350000X-0.450000X0.350000X-0.450000X0*%
%ADD21O,1.800000X1.800000*%
%ADD22O,1.500000X1.500000*%
%ADD23O,1.700000X1.700000*%
%ADD24R,1.700000X3.500000*%
%ADD25R,1.700000X1.700000*%
%ADD26R,3.500000X1.700000*%
%ADD27RoundRect,0.150000X0.587500X0.150000X-0.587500X0.150000X-0.587500X-0.150000X0.587500X-0.150000X0*%
%ADD28RoundRect,0.250000X-0.450000X0.350000X-0.450000X-0.350000X0.450000X-0.350000X0.450000X0.350000X0*%
G04 APERTURE END LIST*
D10*
%TO.C,R7*%
X69089900Y-31449900D03*
X71089900Y-31449900D03*
%TD*%
D11*
%TO.C,SW14*%
X95824800Y-108077000D03*
D12*
X100904800Y-108077000D03*
D11*
X105984800Y-108077000D03*
D13*
X103444800Y-102997000D03*
X97094800Y-105537000D03*
%TD*%
D14*
%TO.C,J3*%
X164404800Y-166497000D03*
%TD*%
D11*
%TO.C,SW10*%
X142560800Y-97409000D03*
D12*
X147640800Y-97409000D03*
D11*
X152720800Y-97409000D03*
D13*
X150180800Y-92329000D03*
X143830800Y-94869000D03*
%TD*%
D14*
%TO.C,J2*%
X164404800Y-82677000D03*
%TD*%
D11*
%TO.C,SW16*%
X118684800Y-108077000D03*
D12*
X123764800Y-108077000D03*
D11*
X128844800Y-108077000D03*
D13*
X126304800Y-102997000D03*
X119954800Y-105537000D03*
%TD*%
D10*
%TO.C,R2*%
X64040000Y-134620000D03*
X66040000Y-134620000D03*
%TD*%
D15*
%TO.C,D15*%
X164404800Y-93862000D03*
X164404800Y-91812000D03*
%TD*%
D14*
%TO.C,J6*%
X60264800Y-31957900D03*
%TD*%
D11*
%TO.C,SW13*%
X72964800Y-87757000D03*
D12*
X78044800Y-87757000D03*
D11*
X83124800Y-87757000D03*
D13*
X80584800Y-82677000D03*
X74234800Y-85217000D03*
%TD*%
D16*
%TO.C,Q4*%
X162438800Y-147368500D03*
X164338800Y-147368500D03*
X163388800Y-145493500D03*
%TD*%
%TO.C,Q2*%
X106304000Y-133271500D03*
X108204000Y-133271500D03*
X107254000Y-131396500D03*
%TD*%
D17*
%TO.C,D6*%
X105132900Y-126873000D03*
X107182900Y-126873000D03*
%TD*%
D11*
%TO.C,SW5*%
X66106800Y-47117000D03*
D12*
X71186800Y-47117000D03*
D11*
X76266800Y-47117000D03*
D13*
X73726800Y-42037000D03*
X67376800Y-44577000D03*
%TD*%
D11*
%TO.C,SW7*%
X142560800Y-159639000D03*
D12*
X147640800Y-159639000D03*
D11*
X152720800Y-159639000D03*
D13*
X150180800Y-154559000D03*
X143830800Y-157099000D03*
%TD*%
D11*
%TO.C,SW9*%
X142560800Y-118237000D03*
D12*
X147640800Y-118237000D03*
D11*
X152720800Y-118237000D03*
D13*
X150180800Y-113157000D03*
X143830800Y-115697000D03*
%TD*%
D11*
%TO.C,SW6*%
X66106800Y-67945000D03*
D12*
X71186800Y-67945000D03*
D11*
X76266800Y-67945000D03*
D13*
X73726800Y-62865000D03*
X67376800Y-65405000D03*
%TD*%
D17*
%TO.C,D8*%
X117578900Y-126873000D03*
X119628900Y-126873000D03*
%TD*%
D14*
%TO.C,J4*%
X60264800Y-166497000D03*
%TD*%
D11*
%TO.C,SW11*%
X72964800Y-128397000D03*
D12*
X78044800Y-128397000D03*
D11*
X83124800Y-128397000D03*
D13*
X80584800Y-123317000D03*
X74234800Y-125857000D03*
%TD*%
D11*
%TO.C,SW20*%
X147386800Y-67945000D03*
D12*
X152466800Y-67945000D03*
D11*
X157546800Y-67945000D03*
D13*
X155006800Y-62865000D03*
X148656800Y-65405000D03*
%TD*%
D15*
%TO.C,D16*%
X164404800Y-109102000D03*
X164404800Y-107052000D03*
%TD*%
%TO.C,D2*%
X60264800Y-109102000D03*
X60264800Y-107052000D03*
%TD*%
D18*
%TO.C,R1*%
X60452000Y-145272000D03*
X60452000Y-143272000D03*
%TD*%
D15*
%TO.C,D4*%
X60264800Y-123317000D03*
X60264800Y-121267000D03*
%TD*%
D19*
%TO.C,D10*%
X145790900Y-31449900D03*
X143740900Y-31449900D03*
%TD*%
D15*
%TO.C,D13*%
X164404800Y-123317000D03*
X164404800Y-121267000D03*
%TD*%
D11*
%TO.C,SW2*%
X86426800Y-47117000D03*
D12*
X91506800Y-47117000D03*
D11*
X96586800Y-47117000D03*
D13*
X94046800Y-42037000D03*
X87696800Y-44577000D03*
%TD*%
D11*
%TO.C,SW8*%
X142560800Y-138557000D03*
D12*
X147640800Y-138557000D03*
D11*
X152720800Y-138557000D03*
D13*
X150180800Y-133477000D03*
X143830800Y-136017000D03*
%TD*%
D11*
%TO.C,SW15*%
X106746800Y-87837900D03*
D12*
X111826800Y-87837900D03*
D11*
X116906800Y-87837900D03*
D13*
X114366800Y-82757900D03*
X108016800Y-85297900D03*
%TD*%
D11*
%TO.C,SW1*%
X106746800Y-47117000D03*
D12*
X111826800Y-47117000D03*
D11*
X116906800Y-47117000D03*
D13*
X114366800Y-42037000D03*
X108016800Y-44577000D03*
%TD*%
D15*
%TO.C,D1*%
X60264800Y-93862000D03*
X60264800Y-91812000D03*
%TD*%
D18*
%TO.C,R5*%
X103124000Y-133350000D03*
X103124000Y-131350000D03*
%TD*%
D17*
%TO.C,D5*%
X92178900Y-126873000D03*
X94228900Y-126873000D03*
%TD*%
D10*
%TO.C,R4*%
X92202000Y-130810000D03*
X94202000Y-130810000D03*
%TD*%
D15*
%TO.C,D3*%
X60264800Y-139582000D03*
X60264800Y-137532000D03*
%TD*%
D20*
%TO.C,R8*%
X131318000Y-91948000D03*
X129318000Y-91948000D03*
%TD*%
D17*
%TO.C,D7*%
X130523900Y-126873000D03*
X132573900Y-126873000D03*
%TD*%
D10*
%TO.C,R9*%
X129318000Y-88392000D03*
X131318000Y-88392000D03*
%TD*%
D11*
%TO.C,SW17*%
X127066800Y-47117000D03*
D12*
X132146800Y-47117000D03*
D11*
X137226800Y-47117000D03*
D13*
X134686800Y-42037000D03*
X128336800Y-44577000D03*
%TD*%
D19*
%TO.C,D11*%
X77718900Y-31449900D03*
X75668900Y-31449900D03*
%TD*%
D20*
%TO.C,R11*%
X164388800Y-154432000D03*
X162388800Y-154432000D03*
%TD*%
D11*
%TO.C,SW18*%
X127066800Y-67945000D03*
D12*
X132146800Y-67945000D03*
D11*
X137226800Y-67945000D03*
D13*
X134686800Y-62865000D03*
X128336800Y-65405000D03*
%TD*%
D11*
%TO.C,SW4*%
X106746800Y-67945000D03*
D12*
X111826800Y-67945000D03*
D11*
X116906800Y-67945000D03*
D13*
X114366800Y-62865000D03*
X108016800Y-65405000D03*
%TD*%
D20*
%TO.C,R3*%
X66040000Y-131064000D03*
X64040000Y-131064000D03*
%TD*%
D15*
%TO.C,D14*%
X164404800Y-139582000D03*
X164404800Y-137532000D03*
%TD*%
D18*
%TO.C,R10*%
X160594800Y-130429000D03*
X160594800Y-128429000D03*
%TD*%
D14*
%TO.C,J1*%
X164404800Y-31957900D03*
%TD*%
D11*
%TO.C,SW3*%
X86426800Y-67945000D03*
D12*
X91506800Y-67945000D03*
D11*
X96586800Y-67945000D03*
D13*
X94046800Y-62865000D03*
X87696800Y-65405000D03*
%TD*%
D14*
%TO.C,J5*%
X60264800Y-82677000D03*
%TD*%
D11*
%TO.C,SW12*%
X72964800Y-108077000D03*
D12*
X78044800Y-108077000D03*
D11*
X83124800Y-108077000D03*
D13*
X80584800Y-102997000D03*
X74234800Y-105537000D03*
%TD*%
D21*
%TO.C,U1*%
X80633899Y-155078899D03*
D22*
X83663899Y-154778899D03*
X83663899Y-149928899D03*
D21*
X80633899Y-149628899D03*
D23*
X80503899Y-161243899D03*
D24*
X80503899Y-162143899D03*
D23*
X83043899Y-161243899D03*
D24*
X83043899Y-162143899D03*
D25*
X85583899Y-161243899D03*
D24*
X85583899Y-162143899D03*
D23*
X88123899Y-161243899D03*
D24*
X88123899Y-162143899D03*
D23*
X90663899Y-161243899D03*
D24*
X90663899Y-162143899D03*
D23*
X93203899Y-161243899D03*
D24*
X93203899Y-162143899D03*
D23*
X95743899Y-161243899D03*
D24*
X95743899Y-162143899D03*
D25*
X98283899Y-161243899D03*
D24*
X98283899Y-162143899D03*
D23*
X100823899Y-161243899D03*
D24*
X100823899Y-162143899D03*
D23*
X103363899Y-161243899D03*
D24*
X103363899Y-162143899D03*
D23*
X105903899Y-161243899D03*
D24*
X105903899Y-162143899D03*
D23*
X108443899Y-161243899D03*
D24*
X108443899Y-162143899D03*
D25*
X110983899Y-161243899D03*
D24*
X110983899Y-162143899D03*
D23*
X113523899Y-161243899D03*
D24*
X113523899Y-162143899D03*
D23*
X116063899Y-161243899D03*
D24*
X116063899Y-162143899D03*
D23*
X118603899Y-161243899D03*
D24*
X118603899Y-162143899D03*
D23*
X121143899Y-161243899D03*
D24*
X121143899Y-162143899D03*
D25*
X123683899Y-161243899D03*
D24*
X123683899Y-162143899D03*
D23*
X126223899Y-161243899D03*
D24*
X126223899Y-162143899D03*
D23*
X128763899Y-161243899D03*
D24*
X128763899Y-162143899D03*
D23*
X128763899Y-143463899D03*
D24*
X128763899Y-142563899D03*
D23*
X126223899Y-143463899D03*
D24*
X126223899Y-142563899D03*
D25*
X123683899Y-143463899D03*
D24*
X123683899Y-142563899D03*
D23*
X121143899Y-143463899D03*
D24*
X121143899Y-142563899D03*
D23*
X118603899Y-143463899D03*
D24*
X118603899Y-142563899D03*
D23*
X116063899Y-143463899D03*
D24*
X116063899Y-142563899D03*
D23*
X113523899Y-143463899D03*
D24*
X113523899Y-142563899D03*
D25*
X110983899Y-143463899D03*
D24*
X110983899Y-142563899D03*
D23*
X108443899Y-143463899D03*
D24*
X108443899Y-142563899D03*
D23*
X105903899Y-143463899D03*
D24*
X105903899Y-142563899D03*
D23*
X103363899Y-143463899D03*
D24*
X103363899Y-142563899D03*
D23*
X100823899Y-143463899D03*
D24*
X100823899Y-142563899D03*
D25*
X98283899Y-143463899D03*
D24*
X98283899Y-142563899D03*
D23*
X95743899Y-143463899D03*
D24*
X95743899Y-142563899D03*
D23*
X93203899Y-143463899D03*
D24*
X93203899Y-142563899D03*
D23*
X90663899Y-143463899D03*
D24*
X90663899Y-142563899D03*
D23*
X88123899Y-143463899D03*
D24*
X88123899Y-142563899D03*
D25*
X85583899Y-143463899D03*
D24*
X85583899Y-142563899D03*
D23*
X83043899Y-143463899D03*
D24*
X83043899Y-142563899D03*
D23*
X80503899Y-143463899D03*
D24*
X80503899Y-142563899D03*
D23*
X128533899Y-154893899D03*
D26*
X129433899Y-154893899D03*
D25*
X128533899Y-152353899D03*
D26*
X129433899Y-152353899D03*
D23*
X128533899Y-149813899D03*
D26*
X129433899Y-149813899D03*
%TD*%
D16*
%TO.C,Q3*%
X129192500Y-84836000D03*
X131092500Y-84836000D03*
X130142500Y-82961000D03*
%TD*%
D27*
%TO.C,Q1*%
X65774300Y-128016000D03*
X65774300Y-126116000D03*
X63899300Y-127066000D03*
%TD*%
D19*
%TO.C,D12*%
X100315900Y-31449900D03*
X98265900Y-31449900D03*
%TD*%
D28*
%TO.C,R6*%
X99568000Y-131350000D03*
X99568000Y-133350000D03*
%TD*%
D19*
%TO.C,D9*%
X125461900Y-31449900D03*
X123411900Y-31449900D03*
%TD*%
D11*
%TO.C,SW19*%
X147386800Y-47117000D03*
D12*
X152466800Y-47117000D03*
D11*
X157546800Y-47117000D03*
D13*
X155006800Y-42037000D03*
X148656800Y-44577000D03*
%TD*%
D10*
%TO.C,R12*%
X162338000Y-150876000D03*
X164338000Y-150876000D03*
%TD*%
G36*
X73176818Y-162733872D02*
G01*
X73222247Y-162779651D01*
X73238539Y-162842054D01*
X73215047Y-165896054D01*
X73198119Y-165957650D01*
X73152775Y-166002646D01*
X73091051Y-166019100D01*
X69807500Y-166019100D01*
X69745500Y-166002487D01*
X69700113Y-165957100D01*
X69683500Y-165895100D01*
X69683500Y-162841100D01*
X69700113Y-162779100D01*
X69745500Y-162733713D01*
X69807500Y-162717100D01*
X73114543Y-162717100D01*
X73176818Y-162733872D01*
G37*
M02*
