M48
; DRILL file {KiCad (7.0.0)} date Sun Jul 30 16:01:26 2023
; FORMAT={-:-/ absolute / inch / decimal}
; #@! TF.CreationDate,2023-07-30T16:01:26-03:00
; #@! TF.GenerationSoftware,Kicad,Pcbnew,(7.0.0)
; #@! TF.FileFunction,NonPlated,1,2,NPTH
FMAT,2
INCH
; #@! TA.AperFunction,NonPlated,NPTH,ComponentDrill
T1C0.0591
; #@! TA.AperFunction,NonPlated,NPTH,ComponentDrill
T2C0.0669
; #@! TA.AperFunction,NonPlated,NPTH,ComponentDrill
T3C0.0709
; #@! TA.AperFunction,NonPlated,NPTH,ComponentDrill
T4C0.1575
%
G90
G05
T1
X3.2939Y-5.9027
X3.2939Y-6.0937
T2
X2.6026Y-1.855
X2.6026Y-2.675
X2.8726Y-3.455
X2.8726Y-4.255
X2.8726Y-5.055
X3.0026Y-1.855
X3.0026Y-2.675
X3.2726Y-3.455
X3.2726Y-4.255
X3.2726Y-5.055
X3.4026Y-1.855
X3.4026Y-2.675
X3.7726Y-4.255
X3.8026Y-1.855
X3.8026Y-2.675
X4.1726Y-4.255
X4.2026Y-1.855
X4.2026Y-2.675
X4.2026Y-3.4582
X4.6026Y-1.855
X4.6026Y-2.675
X4.6026Y-3.4582
X4.6726Y-4.255
X5.0026Y-1.855
X5.0026Y-2.675
X5.0726Y-4.255
X5.4026Y-1.855
X5.4026Y-2.675
X5.6126Y-3.835
X5.6126Y-4.655
X5.6126Y-5.455
X5.6126Y-6.285
X5.8026Y-1.855
X5.8026Y-2.675
X6.0126Y-3.835
X6.0126Y-4.655
X6.0126Y-5.455
X6.0126Y-6.285
X6.2026Y-1.855
X6.2026Y-2.675
T3
X3.1746Y-5.8909
X3.1746Y-6.1055
T4
X2.8026Y-1.855
X2.8026Y-2.675
X3.0726Y-3.455
X3.0726Y-4.255
X3.0726Y-5.055
X3.6026Y-1.855
X3.6026Y-2.675
X3.9726Y-4.255
X4.4026Y-1.855
X4.4026Y-2.675
X4.4026Y-3.4582
X4.8726Y-4.255
X5.2026Y-1.855
X5.2026Y-2.675
X5.8126Y-3.835
X5.8126Y-4.655
X5.8126Y-5.455
X5.8126Y-6.285
X6.0026Y-1.855
X6.0026Y-2.675
T0
M30
